G75*
G70*
%OFA0B0*%
%FSLAX24Y24*%
%IPPOS*%
%LPD*%
%AMOC8*
5,1,8,0,0,1.08239X$1,22.5*
%
%ADD10C,0.0060*%
%ADD11C,0.0580*%
%ADD12R,3.2000X0.3000*%
%ADD13C,0.1326*%
%ADD14C,0.0614*%
%ADD15C,0.0575*%
%ADD16C,0.0690*%
%ADD17C,0.0660*%
%ADD18C,0.2060*%
%ADD19C,0.0654*%
%ADD20C,0.0920*%
%ADD21C,0.2560*%
%ADD22C,0.0417*%
D10*
X004461Y041254D02*
X005156Y041884D01*
X004788Y042535D01*
X005196Y042535D01*
X005418Y042129D01*
X005859Y042535D01*
X006247Y042535D01*
X005548Y041894D01*
X005920Y041254D01*
X005508Y041254D01*
X005286Y041660D01*
X004849Y041254D01*
X004461Y041254D01*
X004513Y041301D02*
X004899Y041301D01*
X004962Y041359D02*
X004577Y041359D01*
X004642Y041418D02*
X005025Y041418D01*
X005088Y041476D02*
X004706Y041476D01*
X004771Y041535D02*
X005151Y041535D01*
X005214Y041593D02*
X004835Y041593D01*
X004900Y041652D02*
X005277Y041652D01*
X005290Y041652D02*
X005689Y041652D01*
X005655Y041710D02*
X004964Y041710D01*
X005029Y041769D02*
X005621Y041769D01*
X005587Y041827D02*
X005093Y041827D01*
X005155Y041886D02*
X005553Y041886D01*
X005602Y041944D02*
X005122Y041944D01*
X005089Y042003D02*
X005666Y042003D01*
X005730Y042061D02*
X005056Y042061D01*
X005023Y042120D02*
X005794Y042120D01*
X005858Y042178D02*
X005472Y042178D01*
X005391Y042178D02*
X004990Y042178D01*
X004957Y042237D02*
X005359Y042237D01*
X005327Y042295D02*
X004924Y042295D01*
X004890Y042354D02*
X005295Y042354D01*
X005263Y042412D02*
X004857Y042412D01*
X004824Y042471D02*
X005231Y042471D01*
X005199Y042529D02*
X004791Y042529D01*
X005535Y042237D02*
X005922Y042237D01*
X005985Y042295D02*
X005599Y042295D01*
X005662Y042354D02*
X006049Y042354D01*
X006113Y042412D02*
X005726Y042412D01*
X005789Y042471D02*
X006177Y042471D01*
X006241Y042529D02*
X005853Y042529D01*
X006435Y042354D02*
X008350Y042354D01*
X008350Y042370D02*
X008350Y042296D01*
X008339Y042222D01*
X008087Y041254D01*
X007742Y041254D01*
X008007Y042264D01*
X007557Y042264D01*
X007296Y041254D01*
X006946Y041254D01*
X007211Y042264D01*
X006761Y042264D01*
X006500Y041254D01*
X006151Y041254D01*
X006482Y042535D01*
X008168Y042535D01*
X008204Y042534D01*
X008239Y042525D01*
X008272Y042508D01*
X008300Y042485D01*
X008325Y042451D01*
X008342Y042412D01*
X008350Y042370D01*
X008342Y042412D02*
X006450Y042412D01*
X006465Y042471D02*
X008310Y042471D01*
X008221Y042529D02*
X006480Y042529D01*
X006420Y042295D02*
X008350Y042295D01*
X008341Y042237D02*
X008000Y042237D01*
X007985Y042178D02*
X008327Y042178D01*
X008312Y042120D02*
X007969Y042120D01*
X007954Y042061D02*
X008297Y042061D01*
X008282Y042003D02*
X007938Y042003D01*
X007923Y041944D02*
X008267Y041944D01*
X008251Y041886D02*
X007908Y041886D01*
X007892Y041827D02*
X008236Y041827D01*
X008221Y041769D02*
X007877Y041769D01*
X007862Y041710D02*
X008206Y041710D01*
X008191Y041652D02*
X007846Y041652D01*
X007831Y041593D02*
X008176Y041593D01*
X008160Y041535D02*
X007816Y041535D01*
X007800Y041476D02*
X008145Y041476D01*
X008130Y041418D02*
X007785Y041418D01*
X007770Y041359D02*
X008115Y041359D01*
X008100Y041301D02*
X007754Y041301D01*
X007338Y041418D02*
X006989Y041418D01*
X007005Y041476D02*
X007353Y041476D01*
X007368Y041535D02*
X007020Y041535D01*
X007035Y041593D02*
X007384Y041593D01*
X007399Y041652D02*
X007051Y041652D01*
X007066Y041710D02*
X007414Y041710D01*
X007429Y041769D02*
X007081Y041769D01*
X007097Y041827D02*
X007444Y041827D01*
X007459Y041886D02*
X007112Y041886D01*
X007128Y041944D02*
X007474Y041944D01*
X007490Y042003D02*
X007143Y042003D01*
X007158Y042061D02*
X007505Y042061D01*
X007520Y042120D02*
X007174Y042120D01*
X007189Y042178D02*
X007535Y042178D01*
X007550Y042237D02*
X007204Y042237D01*
X006754Y042237D02*
X006405Y042237D01*
X006389Y042178D02*
X006739Y042178D01*
X006724Y042120D02*
X006374Y042120D01*
X006359Y042061D02*
X006709Y042061D01*
X006694Y042003D02*
X006344Y042003D01*
X006329Y041944D02*
X006679Y041944D01*
X006664Y041886D02*
X006314Y041886D01*
X006299Y041827D02*
X006649Y041827D01*
X006633Y041769D02*
X006284Y041769D01*
X006269Y041710D02*
X006618Y041710D01*
X006603Y041652D02*
X006253Y041652D01*
X006238Y041593D02*
X006588Y041593D01*
X006573Y041535D02*
X006223Y041535D01*
X006208Y041476D02*
X006558Y041476D01*
X006543Y041418D02*
X006193Y041418D01*
X006178Y041359D02*
X006527Y041359D01*
X006512Y041301D02*
X006163Y041301D01*
X005893Y041301D02*
X005482Y041301D01*
X005450Y041359D02*
X005859Y041359D01*
X005825Y041418D02*
X005418Y041418D01*
X005386Y041476D02*
X005791Y041476D01*
X005757Y041535D02*
X005354Y041535D01*
X005322Y041593D02*
X005723Y041593D01*
X006959Y041301D02*
X007308Y041301D01*
X007323Y041359D02*
X006974Y041359D01*
X008339Y041254D02*
X008670Y042535D01*
X009015Y042535D01*
X008684Y041254D01*
X008339Y041254D01*
X008351Y041301D02*
X008696Y041301D01*
X008711Y041359D02*
X008366Y041359D01*
X008381Y041418D02*
X008726Y041418D01*
X008742Y041476D02*
X008396Y041476D01*
X008411Y041535D02*
X008757Y041535D01*
X008772Y041593D02*
X008426Y041593D01*
X008441Y041652D02*
X008787Y041652D01*
X008802Y041710D02*
X008456Y041710D01*
X008472Y041769D02*
X008817Y041769D01*
X008832Y041827D02*
X008487Y041827D01*
X008502Y041886D02*
X008847Y041886D01*
X008862Y041944D02*
X008517Y041944D01*
X008532Y042003D02*
X008878Y042003D01*
X008893Y042061D02*
X008547Y042061D01*
X008562Y042120D02*
X008908Y042120D01*
X008923Y042178D02*
X008577Y042178D01*
X008592Y042237D02*
X008938Y042237D01*
X008953Y042295D02*
X008608Y042295D01*
X008623Y042354D02*
X008968Y042354D01*
X008983Y042412D02*
X008638Y042412D01*
X008653Y042471D02*
X008998Y042471D01*
X009014Y042529D02*
X008668Y042529D01*
X009203Y042273D02*
X009235Y042335D01*
X009276Y042393D01*
X009325Y042444D01*
X009369Y042482D01*
X009419Y042511D01*
X009474Y042531D01*
X009502Y042535D01*
X009529Y042535D01*
X010790Y042535D01*
X010724Y042264D01*
X009546Y042264D01*
X009357Y041525D01*
X010528Y041525D01*
X010463Y041254D01*
X009168Y041254D01*
X009139Y041256D01*
X009111Y041265D01*
X009086Y041279D01*
X009063Y041298D01*
X009036Y041335D01*
X009017Y041377D01*
X009007Y041422D01*
X009005Y041474D01*
X009011Y041525D01*
X009023Y041586D01*
X009180Y042206D01*
X009203Y042273D01*
X009215Y042295D02*
X010731Y042295D01*
X010746Y042354D02*
X009248Y042354D01*
X009295Y042412D02*
X010760Y042412D01*
X010774Y042471D02*
X009356Y042471D01*
X009468Y042529D02*
X010788Y042529D01*
X011028Y042471D02*
X011110Y042471D01*
X012438Y042471D01*
X012428Y042482D02*
X012453Y042454D01*
X012474Y042423D01*
X012488Y042389D01*
X012496Y042353D01*
X012495Y042288D01*
X012484Y042224D01*
X012441Y042063D01*
X012429Y042024D01*
X012410Y041988D01*
X012354Y041905D01*
X012286Y041831D01*
X012228Y041786D01*
X012163Y041753D01*
X012095Y041737D01*
X012026Y041729D01*
X012198Y041254D01*
X011852Y041254D01*
X011680Y041733D01*
X011180Y041733D01*
X011055Y041254D01*
X010710Y041254D01*
X011045Y042535D01*
X012288Y042535D01*
X012326Y042532D01*
X012363Y042522D01*
X012397Y042505D01*
X012428Y042482D01*
X012478Y042412D02*
X011170Y042412D01*
X011012Y042412D01*
X010997Y042354D02*
X011229Y042354D01*
X012496Y042354D01*
X012496Y042295D02*
X011288Y042295D01*
X010982Y042295D01*
X010967Y042237D02*
X011314Y042237D01*
X011320Y042264D02*
X011045Y042535D01*
X011320Y042264D01*
X012150Y042264D01*
X012082Y041985D01*
X011252Y041985D01*
X011320Y042264D01*
X011299Y042178D02*
X010951Y042178D01*
X010936Y042120D02*
X011285Y042120D01*
X011271Y042061D02*
X010921Y042061D01*
X010905Y042003D02*
X011256Y042003D01*
X011174Y041710D02*
X010829Y041710D01*
X010814Y041652D02*
X011159Y041652D01*
X011144Y041593D02*
X010798Y041593D01*
X010783Y041535D02*
X011128Y041535D01*
X011113Y041476D02*
X010768Y041476D01*
X010753Y041418D02*
X011098Y041418D01*
X011083Y041359D02*
X010737Y041359D01*
X010722Y041301D02*
X011068Y041301D01*
X010844Y041769D02*
X012194Y041769D01*
X012281Y041827D02*
X010860Y041827D01*
X010875Y041886D02*
X012337Y041886D01*
X012381Y041944D02*
X010890Y041944D01*
X010516Y041476D02*
X009005Y041476D01*
X009008Y041418D02*
X010502Y041418D01*
X010488Y041359D02*
X009025Y041359D01*
X009062Y041301D02*
X010474Y041301D01*
X009374Y041593D02*
X009024Y041593D01*
X009013Y041535D02*
X009359Y041535D01*
X009389Y041652D02*
X009039Y041652D01*
X009054Y041710D02*
X009404Y041710D01*
X009419Y041769D02*
X009069Y041769D01*
X009084Y041827D02*
X009434Y041827D01*
X009449Y041886D02*
X009099Y041886D01*
X009114Y041944D02*
X009464Y041944D01*
X009479Y042003D02*
X009129Y042003D01*
X009144Y042061D02*
X009494Y042061D01*
X009509Y042120D02*
X009158Y042120D01*
X009173Y042178D02*
X009524Y042178D01*
X009539Y042237D02*
X009191Y042237D01*
X011043Y042529D02*
X011051Y042529D01*
X012338Y042529D01*
X012487Y042237D02*
X012144Y042237D01*
X012129Y042178D02*
X012472Y042178D01*
X012457Y042120D02*
X012115Y042120D01*
X012101Y042061D02*
X012441Y042061D01*
X012418Y042003D02*
X012086Y042003D01*
X012033Y041710D02*
X011689Y041710D01*
X011709Y041652D02*
X012054Y041652D01*
X012075Y041593D02*
X011730Y041593D01*
X011751Y041535D02*
X012096Y041535D01*
X012117Y041476D02*
X011772Y041476D01*
X011793Y041418D02*
X012138Y041418D01*
X012159Y041359D02*
X011814Y041359D01*
X011835Y041301D02*
X012180Y041301D01*
X012562Y041400D02*
X012576Y041358D01*
X012586Y041332D01*
X012603Y041309D01*
X012623Y041289D01*
X012647Y041273D01*
X012673Y041261D01*
X012701Y041256D01*
X012729Y041254D01*
X013743Y041254D01*
X013784Y041255D01*
X013824Y041263D01*
X013863Y041280D01*
X013898Y041302D01*
X013947Y041341D01*
X013990Y041386D01*
X014033Y041442D01*
X014067Y041504D01*
X014091Y041571D01*
X014263Y042230D01*
X014271Y042284D01*
X014271Y042339D01*
X014266Y042384D01*
X014253Y042428D01*
X014235Y042462D01*
X014210Y042492D01*
X014178Y042514D01*
X014142Y042529D01*
X014104Y042535D01*
X013115Y042535D01*
X013095Y042264D01*
X013115Y042535D01*
X013072Y042535D01*
X013018Y042527D01*
X012966Y042509D01*
X012919Y042481D01*
X012857Y042423D01*
X012806Y042356D01*
X012765Y042284D01*
X012735Y042206D01*
X012568Y041577D01*
X012560Y041538D01*
X012556Y041444D01*
X012562Y041400D01*
X012560Y041418D02*
X014014Y041418D01*
X014051Y041476D02*
X012557Y041476D01*
X012560Y041535D02*
X012902Y041535D01*
X012900Y041525D02*
X013732Y041525D01*
X013927Y042264D01*
X013095Y042264D01*
X012900Y041525D01*
X012918Y041593D02*
X012572Y041593D01*
X012588Y041652D02*
X012933Y041652D01*
X012949Y041710D02*
X012603Y041710D01*
X012619Y041769D02*
X012964Y041769D01*
X012979Y041827D02*
X012635Y041827D01*
X012650Y041886D02*
X012995Y041886D01*
X013010Y041944D02*
X012666Y041944D01*
X012681Y042003D02*
X013026Y042003D01*
X013041Y042061D02*
X012697Y042061D01*
X012712Y042120D02*
X013057Y042120D01*
X013072Y042178D02*
X012728Y042178D01*
X012747Y042237D02*
X013088Y042237D01*
X013097Y042295D02*
X014271Y042295D01*
X014269Y042354D02*
X013102Y042354D01*
X012804Y042354D01*
X012771Y042295D02*
X013097Y042295D01*
X013106Y042412D02*
X014258Y042412D01*
X014228Y042471D02*
X013110Y042471D01*
X012908Y042471D01*
X012849Y042412D02*
X013106Y042412D01*
X013115Y042529D02*
X014141Y042529D01*
X014264Y042237D02*
X013920Y042237D01*
X013905Y042178D02*
X014249Y042178D01*
X014234Y042120D02*
X013889Y042120D01*
X013874Y042061D02*
X014219Y042061D01*
X014204Y042003D02*
X013858Y042003D01*
X013843Y041944D02*
X014188Y041944D01*
X014173Y041886D02*
X013827Y041886D01*
X013812Y041827D02*
X014158Y041827D01*
X014143Y041769D02*
X013796Y041769D01*
X013781Y041710D02*
X014128Y041710D01*
X014112Y041652D02*
X013765Y041652D01*
X013750Y041593D02*
X014097Y041593D01*
X014078Y041535D02*
X013734Y041535D01*
X013896Y041301D02*
X012611Y041301D01*
X012575Y041359D02*
X013964Y041359D01*
X013115Y042529D02*
X013033Y042529D01*
D11*
X007430Y037600D03*
X006430Y036600D03*
X005430Y036600D03*
X004430Y036600D03*
X003430Y036600D03*
X003430Y037600D03*
X003430Y033600D03*
X004430Y033600D03*
X005430Y033600D03*
X006430Y033600D03*
X013430Y033600D03*
X014430Y033600D03*
X015430Y033600D03*
X016430Y033600D03*
X017430Y033600D03*
X018430Y033600D03*
X019430Y033600D03*
X019430Y031600D03*
X018430Y031600D03*
X017430Y031600D03*
X016430Y031600D03*
X015430Y031600D03*
X014430Y031600D03*
X013430Y031600D03*
X013430Y028600D03*
X014430Y028600D03*
X015430Y028600D03*
X016430Y028600D03*
X017430Y028600D03*
X018430Y028600D03*
X019430Y028600D03*
X019430Y026600D03*
X018430Y026600D03*
X017430Y026600D03*
X016430Y026600D03*
X015430Y026600D03*
X014430Y026600D03*
X013430Y026600D03*
X013430Y023600D03*
X014430Y023600D03*
X015430Y023600D03*
X016430Y023600D03*
X017430Y023600D03*
X018430Y023600D03*
X019430Y023600D03*
X019430Y021600D03*
X018430Y021600D03*
X017430Y021600D03*
X016430Y021600D03*
X015430Y021600D03*
X014430Y021600D03*
X013430Y021600D03*
X013430Y018600D03*
X014430Y018600D03*
X015430Y018600D03*
X016430Y018600D03*
X017430Y018600D03*
X018430Y018600D03*
X019430Y018600D03*
X019430Y016600D03*
X018430Y016600D03*
X017430Y016600D03*
X016430Y016600D03*
X015430Y016600D03*
X014430Y016600D03*
X013430Y016600D03*
X013430Y013600D03*
X014430Y013600D03*
X015430Y013600D03*
X016430Y013600D03*
X017430Y013600D03*
X018430Y013600D03*
X019430Y013600D03*
X019430Y011600D03*
X018430Y011600D03*
X017430Y011600D03*
X016430Y011600D03*
X015430Y011600D03*
X014430Y011600D03*
X013430Y011600D03*
X013430Y008600D03*
X014430Y008600D03*
X015430Y008600D03*
X016430Y008600D03*
X017430Y008600D03*
X018430Y008600D03*
X019430Y008600D03*
X024930Y008600D03*
X025930Y008600D03*
X026930Y008600D03*
X027930Y008600D03*
X028930Y008600D03*
X029930Y008600D03*
X030930Y008600D03*
X031930Y008600D03*
X031930Y011600D03*
X030930Y011600D03*
X029930Y011600D03*
X028930Y011600D03*
X027930Y011600D03*
X026930Y011600D03*
X025930Y011600D03*
X024930Y011600D03*
X024930Y013600D03*
X025930Y013600D03*
X026930Y013600D03*
X027930Y013600D03*
X028930Y013600D03*
X029930Y013600D03*
X030930Y013600D03*
X031930Y013600D03*
X031930Y016600D03*
X030930Y016600D03*
X029930Y016600D03*
X028930Y016600D03*
X027930Y016600D03*
X026930Y016600D03*
X025930Y016600D03*
X024930Y016600D03*
X024930Y018600D03*
X025930Y018600D03*
X026930Y018600D03*
X027930Y018600D03*
X028930Y018600D03*
X029930Y018600D03*
X030930Y018600D03*
X030930Y021600D03*
X029930Y021600D03*
X028930Y021600D03*
X027930Y021600D03*
X026930Y021600D03*
X025930Y021600D03*
X024930Y021600D03*
X024930Y023600D03*
X025930Y023600D03*
X026930Y023600D03*
X027930Y023600D03*
X028930Y023600D03*
X029930Y023600D03*
X030930Y023600D03*
X031930Y023600D03*
X032930Y023600D03*
X033930Y023600D03*
X033930Y026600D03*
X032930Y026600D03*
X031930Y026600D03*
X030930Y026600D03*
X029930Y026600D03*
X028930Y026600D03*
X027930Y026600D03*
X026930Y026600D03*
X025930Y026600D03*
X024930Y026600D03*
X024930Y028600D03*
X025930Y028600D03*
X026930Y028600D03*
X027930Y028600D03*
X028930Y028600D03*
X029930Y028600D03*
X030930Y028600D03*
X030930Y031600D03*
X029930Y031600D03*
X028930Y031600D03*
X027930Y031600D03*
X026930Y031600D03*
X025930Y031600D03*
X024930Y031600D03*
X024930Y033600D03*
X025930Y033600D03*
X026930Y033600D03*
X027930Y033600D03*
X028930Y033600D03*
X029930Y033600D03*
X030930Y033600D03*
X030930Y036600D03*
X029930Y036600D03*
X028930Y036600D03*
X027930Y036600D03*
X026930Y036600D03*
X025930Y036600D03*
X024930Y036600D03*
X024930Y038600D03*
X025930Y038600D03*
X026930Y038600D03*
X027930Y038600D03*
X028930Y038600D03*
X029930Y038600D03*
X030930Y038600D03*
X030930Y041600D03*
X029930Y041600D03*
X028930Y041600D03*
X027930Y041600D03*
X026930Y041600D03*
X025930Y041600D03*
X024930Y041600D03*
X019430Y036600D03*
X018430Y036600D03*
X017430Y036600D03*
X016430Y036600D03*
X015430Y036600D03*
X014430Y036600D03*
X013430Y036600D03*
X038930Y036600D03*
X039930Y036600D03*
X040930Y036600D03*
X041930Y036600D03*
X042930Y036600D03*
X043930Y036600D03*
X044930Y036600D03*
X045930Y036600D03*
X045930Y038600D03*
X044930Y038600D03*
X043930Y038600D03*
X042930Y038600D03*
X041930Y038600D03*
X040930Y038600D03*
X039930Y038600D03*
X038930Y038600D03*
X038930Y041600D03*
X039930Y041600D03*
X040930Y041600D03*
X041930Y041600D03*
X042930Y041600D03*
X043930Y041600D03*
X044930Y041600D03*
X045930Y041600D03*
X057930Y036475D03*
X060680Y035475D03*
X061680Y035475D03*
X062680Y035475D03*
X062680Y034475D03*
X061680Y034475D03*
X060680Y034475D03*
X059680Y034475D03*
X059680Y033475D03*
X060680Y033475D03*
X060680Y032475D03*
X059680Y032475D03*
X059680Y031475D03*
X060680Y031475D03*
X060680Y030475D03*
X059680Y030475D03*
X059680Y029475D03*
X060680Y029475D03*
X061680Y029475D03*
X062680Y029475D03*
X062680Y028475D03*
X061680Y028475D03*
X060680Y028475D03*
X063680Y028475D03*
X064680Y028475D03*
X065680Y028475D03*
X065680Y029475D03*
X064680Y029475D03*
X063680Y029475D03*
X065680Y030475D03*
X066680Y030475D03*
X066680Y029475D03*
X070180Y029475D03*
X070180Y028475D03*
X073180Y028475D03*
X073180Y029475D03*
X073180Y030475D03*
X073180Y031475D03*
X073180Y032475D03*
X073180Y033475D03*
X073180Y034475D03*
X073180Y035475D03*
X073180Y036475D03*
X073180Y037475D03*
X070180Y037475D03*
X070180Y036475D03*
X070180Y035475D03*
X070180Y034475D03*
X070180Y033475D03*
X070180Y032475D03*
X070180Y031475D03*
X070180Y030475D03*
X066680Y031475D03*
X065680Y031475D03*
X065680Y032475D03*
X066680Y032475D03*
X066680Y033475D03*
X065680Y033475D03*
X065680Y034475D03*
X064680Y034475D03*
X063680Y034475D03*
X063680Y035475D03*
X064680Y035475D03*
X065680Y035475D03*
X066680Y034475D03*
X057930Y032475D03*
X053180Y031475D03*
X050180Y031475D03*
X045930Y033600D03*
X044930Y033600D03*
X043930Y033600D03*
X042930Y033600D03*
X041930Y033600D03*
X040930Y033600D03*
X039930Y033600D03*
X038930Y033600D03*
X038930Y031600D03*
X039930Y031600D03*
X040930Y031600D03*
X041930Y031600D03*
X042930Y031600D03*
X043930Y031600D03*
X044930Y031600D03*
X044930Y028600D03*
X043930Y028600D03*
X042930Y028600D03*
X041930Y028600D03*
X040930Y028600D03*
X039930Y028600D03*
X038930Y028600D03*
X038930Y026600D03*
X039930Y026600D03*
X040930Y026600D03*
X041930Y026600D03*
X042930Y026600D03*
X043930Y026600D03*
X044930Y026600D03*
X045930Y026600D03*
X046930Y026600D03*
X047930Y026600D03*
X047930Y023600D03*
X046930Y023600D03*
X045930Y023600D03*
X044930Y023600D03*
X043930Y023600D03*
X042930Y023600D03*
X041930Y023600D03*
X040930Y023600D03*
X039930Y023600D03*
X038930Y023600D03*
X038930Y021600D03*
X039930Y021600D03*
X040930Y021600D03*
X041930Y021600D03*
X042930Y021600D03*
X043930Y021600D03*
X044930Y021600D03*
X045930Y021600D03*
X046930Y021600D03*
X047930Y021600D03*
X050180Y020600D03*
X050180Y019600D03*
X050180Y018600D03*
X050180Y017600D03*
X050180Y016600D03*
X047930Y016600D03*
X046930Y016600D03*
X046930Y017600D03*
X047930Y017600D03*
X047930Y018600D03*
X046930Y018600D03*
X045930Y018600D03*
X044930Y018600D03*
X043930Y018600D03*
X042930Y018600D03*
X041930Y018600D03*
X040930Y018600D03*
X039930Y018600D03*
X038930Y018600D03*
X039930Y017600D03*
X040930Y017600D03*
X041930Y017600D03*
X042930Y017600D03*
X043930Y017600D03*
X044930Y017600D03*
X045930Y017600D03*
X045930Y016600D03*
X044930Y016600D03*
X043930Y016600D03*
X042930Y016600D03*
X041930Y016600D03*
X040930Y016600D03*
X039930Y016600D03*
X038930Y016600D03*
X038930Y013600D03*
X039930Y013600D03*
X040930Y013600D03*
X041930Y013600D03*
X042930Y013600D03*
X043930Y013600D03*
X044930Y013600D03*
X045930Y013600D03*
X046930Y013600D03*
X047930Y013600D03*
X050180Y014600D03*
X050180Y015600D03*
X053180Y015600D03*
X053180Y014600D03*
X053180Y016600D03*
X053180Y017600D03*
X053180Y018600D03*
X053180Y019600D03*
X053180Y020600D03*
X057930Y019600D03*
X059680Y019600D03*
X060680Y019600D03*
X060680Y018600D03*
X059680Y018600D03*
X059680Y017600D03*
X060680Y017600D03*
X060680Y016600D03*
X059680Y016600D03*
X061680Y016600D03*
X062680Y016600D03*
X063680Y016600D03*
X064680Y016600D03*
X065680Y016600D03*
X066680Y016600D03*
X066680Y017600D03*
X065680Y017600D03*
X065680Y018600D03*
X066680Y018600D03*
X066680Y019600D03*
X065680Y019600D03*
X065680Y020600D03*
X066680Y020600D03*
X066680Y021600D03*
X065680Y021600D03*
X064680Y021600D03*
X063680Y021600D03*
X063680Y022600D03*
X064680Y022600D03*
X065680Y022600D03*
X062680Y022600D03*
X061680Y022600D03*
X060680Y022600D03*
X060680Y021600D03*
X059680Y021600D03*
X059680Y020600D03*
X060680Y020600D03*
X061680Y021600D03*
X062680Y021600D03*
X057930Y023600D03*
X070180Y023600D03*
X070180Y024600D03*
X073180Y024600D03*
X073180Y023600D03*
X073180Y022600D03*
X073180Y021600D03*
X073180Y020600D03*
X073180Y019600D03*
X073180Y018600D03*
X073180Y017600D03*
X073180Y016600D03*
X073180Y015600D03*
X070180Y015600D03*
X070180Y016600D03*
X070180Y017600D03*
X070180Y018600D03*
X070180Y019600D03*
X070180Y020600D03*
X070180Y021600D03*
X070180Y022600D03*
X065680Y015600D03*
X064680Y015600D03*
X063680Y015600D03*
X062680Y015600D03*
X061680Y015600D03*
X060680Y015600D03*
X060180Y008600D03*
X059180Y008600D03*
X058180Y008600D03*
X057180Y008600D03*
X056180Y008600D03*
X055180Y008600D03*
X054180Y008600D03*
X053180Y008600D03*
X052180Y008600D03*
X051180Y008600D03*
X051180Y005600D03*
X052180Y005600D03*
X053180Y005600D03*
X054180Y005600D03*
X055180Y005600D03*
X056180Y005600D03*
X057180Y005600D03*
X058180Y005600D03*
X059180Y005600D03*
X060180Y005600D03*
X063180Y005600D03*
X064180Y005600D03*
X065180Y005600D03*
X066180Y005600D03*
X067180Y005600D03*
X068180Y005600D03*
X069180Y005600D03*
X070180Y005600D03*
X071180Y005600D03*
X072180Y005600D03*
X072180Y008600D03*
X071180Y008600D03*
X070180Y008600D03*
X069180Y008600D03*
X068180Y008600D03*
X067180Y008600D03*
X066180Y008600D03*
X065180Y008600D03*
X064180Y008600D03*
X063180Y008600D03*
X053180Y034475D03*
X050180Y034475D03*
X007680Y021850D03*
X007680Y020850D03*
X005680Y019850D03*
X005180Y019100D03*
X006180Y019100D03*
X007680Y017600D03*
X007680Y016600D03*
X005680Y015600D03*
X005180Y014850D03*
X006180Y014850D03*
X007680Y013350D03*
X005680Y012350D03*
X005180Y011600D03*
X006180Y011600D03*
X007680Y010100D03*
X003680Y010100D03*
X003680Y013350D03*
X003680Y016600D03*
X003680Y017600D03*
X003680Y020850D03*
X003680Y021850D03*
D12*
X060180Y001600D03*
D13*
X078886Y007689D03*
X079205Y010350D03*
X078886Y013011D03*
D14*
X077705Y011669D03*
X076724Y011669D03*
X077705Y010862D03*
X077705Y009838D03*
X077705Y009031D03*
X076724Y009031D03*
D15*
X075430Y008600D03*
X075430Y009600D03*
X073180Y014100D03*
X072180Y014100D03*
X071180Y014100D03*
X070180Y014100D03*
X061680Y007600D03*
X061680Y006600D03*
X049680Y006600D03*
X049680Y007600D03*
X037430Y014600D03*
X037430Y015600D03*
X037430Y019600D03*
X037430Y020600D03*
X037430Y024600D03*
X037430Y025600D03*
X037430Y029600D03*
X037430Y030600D03*
X037430Y034600D03*
X037430Y035600D03*
X037430Y039600D03*
X037430Y040600D03*
X051180Y036475D03*
X052180Y036475D03*
X062680Y037475D03*
X063680Y037475D03*
X070180Y026975D03*
X071180Y026975D03*
X072180Y026975D03*
X073180Y026975D03*
X063680Y024600D03*
X062680Y024600D03*
X052180Y022100D03*
X051180Y022100D03*
X023430Y020600D03*
X023430Y019600D03*
X023430Y015600D03*
X023430Y014600D03*
X023430Y010600D03*
X023430Y009600D03*
X011930Y009600D03*
X011930Y010600D03*
X011930Y014600D03*
X011930Y015600D03*
X011930Y019600D03*
X011930Y020600D03*
X011930Y024600D03*
X011930Y025600D03*
X011930Y029600D03*
X011930Y030600D03*
X008930Y034100D03*
X007930Y034100D03*
X011930Y034600D03*
X011930Y035600D03*
X001930Y035600D03*
X001930Y034600D03*
X023430Y034600D03*
X023430Y035600D03*
X023430Y039600D03*
X023430Y040600D03*
X023430Y030600D03*
X023430Y029600D03*
X023430Y025600D03*
X023430Y024600D03*
D16*
X008930Y036100D03*
X007930Y036100D03*
X069680Y040475D03*
X070680Y040475D03*
X072680Y040475D03*
X073680Y040475D03*
D17*
X074555Y038538D03*
X075555Y038538D03*
X066680Y037475D03*
X065680Y037475D03*
X064680Y037475D03*
X057930Y031475D03*
X057930Y030475D03*
X064680Y024600D03*
X065680Y024600D03*
X066680Y024600D03*
X074555Y026413D03*
X075555Y026413D03*
X057930Y018600D03*
X057930Y017600D03*
X074555Y014288D03*
X075555Y014288D03*
X075430Y011850D03*
X075430Y010850D03*
X075555Y007350D03*
X074555Y007350D03*
X032430Y039600D03*
X032430Y040600D03*
D18*
X077305Y037894D03*
X077305Y028056D03*
X077305Y024769D03*
X077305Y014931D03*
D19*
X076746Y017669D03*
X076746Y018759D03*
X077864Y018214D03*
X077864Y019305D03*
X077864Y020395D03*
X076746Y019850D03*
X076746Y020941D03*
X077864Y021486D03*
X076746Y022031D03*
X076746Y030794D03*
X077864Y031339D03*
X076746Y031884D03*
X076746Y032975D03*
X077864Y032430D03*
X077864Y033520D03*
X076746Y034066D03*
X076746Y035156D03*
X077864Y034611D03*
D20*
X047180Y007100D03*
X045180Y007100D03*
D21*
X002180Y005100D03*
X002180Y041100D03*
X078180Y041100D03*
X078180Y005100D03*
D22*
X075430Y003663D03*
X075180Y004038D03*
X074930Y003663D03*
X068680Y003475D03*
X067680Y003475D03*
X066680Y003475D03*
X065680Y003475D03*
X058680Y003475D03*
X056680Y003475D03*
X055680Y003475D03*
X054680Y003475D03*
X052680Y003475D03*
X048555Y003600D03*
X047180Y003725D03*
X047180Y003350D03*
X046430Y003725D03*
X046180Y004100D03*
X045930Y003725D03*
X044805Y003600D03*
X047180Y004100D03*
X050430Y008725D03*
X053680Y009100D03*
X055680Y009100D03*
X056930Y009850D03*
X057680Y009100D03*
X059680Y009100D03*
X060555Y009350D03*
X064180Y009725D03*
X065930Y010600D03*
X066555Y010850D03*
X067180Y011100D03*
X068055Y010725D03*
X068555Y010725D03*
X069055Y010725D03*
X069555Y010725D03*
X070055Y010725D03*
X072680Y009350D03*
X067680Y013038D03*
X068055Y014850D03*
X068055Y017600D03*
X063180Y017600D03*
X059180Y015475D03*
X059555Y015100D03*
X060430Y014225D03*
X060930Y014225D03*
X057055Y014350D03*
X056680Y013975D03*
X056305Y013600D03*
X055930Y013225D03*
X055555Y012850D03*
X055180Y012475D03*
X054805Y012100D03*
X054430Y011725D03*
X052680Y013725D03*
X049555Y015100D03*
X050805Y016100D03*
X054055Y018600D03*
X057055Y020600D03*
X056305Y021475D03*
X056680Y021850D03*
X055930Y022600D03*
X055180Y022975D03*
X054430Y023350D03*
X054805Y022225D03*
X055555Y021100D03*
X049680Y021350D03*
X049305Y020850D03*
X047930Y019725D03*
X045430Y024600D03*
X052930Y025163D03*
X052930Y025475D03*
X046930Y028975D03*
X043305Y030475D03*
X039430Y033225D03*
X040430Y034225D03*
X040430Y035975D03*
X036180Y038100D03*
X035805Y037725D03*
X030430Y037725D03*
X029055Y035475D03*
X026430Y037475D03*
X022180Y037100D03*
X021055Y038975D03*
X018930Y037475D03*
X017680Y035100D03*
X021805Y034100D03*
X017930Y033100D03*
X017930Y030850D03*
X018930Y030475D03*
X021430Y027850D03*
X020305Y027475D03*
X019930Y027100D03*
X015930Y027100D03*
X013930Y025975D03*
X013930Y024850D03*
X013180Y022975D03*
X010430Y022100D03*
X008680Y021100D03*
X009680Y019350D03*
X009180Y017600D03*
X013930Y020475D03*
X014930Y020100D03*
X016930Y020725D03*
X020055Y022100D03*
X020805Y023100D03*
X022180Y022600D03*
X015930Y022600D03*
X018930Y018100D03*
X020430Y017350D03*
X021930Y017725D03*
X021180Y015975D03*
X021555Y013350D03*
X020430Y012100D03*
X020805Y011600D03*
X025430Y010975D03*
X026430Y010975D03*
X027430Y010975D03*
X029430Y010850D03*
X030430Y010725D03*
X034305Y013100D03*
X035430Y011850D03*
X034805Y015600D03*
X036180Y017100D03*
X035055Y017725D03*
X033680Y018100D03*
X034305Y020725D03*
X035805Y022100D03*
X032930Y024725D03*
X032930Y025600D03*
X031430Y025100D03*
X030930Y024725D03*
X029930Y024600D03*
X033180Y027600D03*
X036180Y027100D03*
X035055Y030100D03*
X029930Y030100D03*
X027305Y028100D03*
X025555Y027600D03*
X033180Y033600D03*
X035430Y033600D03*
X046430Y037975D03*
X046930Y037600D03*
X054430Y036225D03*
X055180Y035850D03*
X055930Y035475D03*
X054805Y034975D03*
X056305Y034475D03*
X056680Y033975D03*
X057055Y033475D03*
X055555Y032975D03*
X053805Y032475D03*
X060180Y036975D03*
X068430Y034475D03*
X069555Y034225D03*
X069555Y034975D03*
X071055Y035975D03*
X070930Y036975D03*
X068743Y038225D03*
X068993Y038475D03*
X068743Y025475D03*
X068743Y025100D03*
X070930Y024100D03*
X071055Y023100D03*
X069555Y022100D03*
X068430Y021600D03*
X069555Y021350D03*
X061180Y020100D03*
X060180Y024100D03*
X038493Y008350D03*
X038180Y008350D03*
X033680Y007600D03*
X024493Y006850D03*
X024180Y006850D03*
X021930Y008100D03*
X014930Y008100D03*
X012930Y008038D03*
X012680Y007788D03*
X010055Y008600D03*
X014930Y010850D03*
X010430Y013350D03*
X014430Y015100D03*
X014930Y015975D03*
X009180Y027100D03*
X010055Y029100D03*
X009680Y032475D03*
X010430Y032850D03*
X009805Y036100D03*
M02*
