G75*
G70*
%OFA0B0*%
%FSLAX24Y24*%
%IPPOS*%
%LPD*%
%AMOC8*
5,1,8,0,0,1.08239X$1,22.5*
%
%ADD10C,0.0080*%
%ADD11C,0.0040*%
D10*
X039111Y014543D02*
X039164Y014490D01*
X039271Y014490D01*
X039324Y014543D01*
X039111Y014757D01*
X039111Y014543D01*
X039324Y014543D02*
X039324Y014757D01*
X039271Y014810D01*
X039164Y014810D01*
X039111Y014757D01*
X039861Y014382D02*
X040074Y014168D01*
X040021Y014115D01*
X039914Y014115D01*
X039861Y014168D01*
X039861Y014382D01*
X039914Y014435D01*
X040021Y014435D01*
X040074Y014382D01*
X040074Y014168D01*
X040861Y014115D02*
X041074Y014115D01*
X040967Y014115D02*
X040967Y014435D01*
X041074Y014329D01*
X041861Y014329D02*
X041861Y014382D01*
X041914Y014435D01*
X042021Y014435D01*
X042074Y014382D01*
X041861Y014329D02*
X042074Y014115D01*
X041861Y014115D01*
X042861Y014168D02*
X042914Y014115D01*
X043021Y014115D01*
X043074Y014168D01*
X042967Y014275D02*
X042914Y014275D01*
X042861Y014222D01*
X042861Y014168D01*
X042914Y014275D02*
X042861Y014329D01*
X042861Y014382D01*
X042914Y014435D01*
X043021Y014435D01*
X043074Y014382D01*
X043861Y014275D02*
X044074Y014275D01*
X043914Y014435D01*
X043914Y014115D01*
X044861Y014168D02*
X044914Y014115D01*
X045021Y014115D01*
X045074Y014168D01*
X045074Y014275D02*
X044967Y014329D01*
X044914Y014329D01*
X044861Y014275D01*
X044861Y014168D01*
X045074Y014275D02*
X045074Y014435D01*
X044861Y014435D01*
X045861Y014435D02*
X045967Y014382D01*
X046074Y014275D01*
X045914Y014275D01*
X045861Y014222D01*
X045861Y014168D01*
X045914Y014115D01*
X046021Y014115D01*
X046074Y014168D01*
X046074Y014275D01*
X046861Y014382D02*
X046861Y014435D01*
X047074Y014435D01*
X046861Y014382D02*
X047074Y014168D01*
X047074Y014115D01*
X042118Y015881D02*
X042064Y015828D01*
X041958Y015828D01*
X041904Y015881D01*
X041749Y015828D02*
X041749Y016041D01*
X041643Y016148D01*
X041536Y016041D01*
X041536Y015828D01*
X041381Y015828D02*
X041381Y016148D01*
X041221Y016148D01*
X041168Y016094D01*
X041168Y015988D01*
X041221Y015934D01*
X041381Y015934D01*
X041274Y015934D02*
X041168Y015828D01*
X041013Y015828D02*
X040853Y015828D01*
X040799Y015881D01*
X040799Y016094D01*
X040853Y016148D01*
X041013Y016148D01*
X041013Y015828D01*
X041536Y015988D02*
X041749Y015988D01*
X041904Y016094D02*
X041958Y016148D01*
X042064Y016148D01*
X042118Y016094D01*
X042118Y015881D01*
X040276Y015828D02*
X040169Y015828D01*
X040223Y015828D02*
X040223Y016148D01*
X040276Y016148D02*
X040169Y016148D01*
X040031Y016148D02*
X039870Y016148D01*
X039817Y016094D01*
X039817Y015881D01*
X039870Y015828D01*
X040031Y015828D01*
X040031Y016148D01*
X039324Y015604D02*
X039217Y015710D01*
X039217Y015390D01*
X039111Y015390D02*
X039324Y015390D01*
D11*
X044180Y004580D02*
X044333Y004580D01*
X044410Y004504D01*
X044180Y004580D02*
X044103Y004504D01*
X044103Y004427D01*
X044410Y004120D01*
X044103Y004120D01*
X075643Y004120D02*
X075950Y004120D01*
X075643Y004427D01*
X075643Y004504D01*
X075719Y004580D01*
X075873Y004580D01*
X075950Y004504D01*
X076103Y004580D02*
X076257Y004504D01*
X076410Y004350D01*
X076180Y004350D01*
X076103Y004273D01*
X076103Y004197D01*
X076180Y004120D01*
X076333Y004120D01*
X076410Y004197D01*
X076410Y004350D01*
M02*
