G75*
G70*
%OFA0B0*%
%FSLAX24Y24*%
%IPPOS*%
%LPD*%
%AMOC8*
5,1,8,0,0,1.08239X$1,22.5*
%
%ADD10C,0.0080*%
%ADD11C,0.0060*%
%ADD12C,0.0070*%
%ADD13C,0.0110*%
%ADD14C,0.0040*%
%ADD15C,0.0050*%
%ADD16R,0.0400X0.0750*%
%ADD17R,0.0700X0.0150*%
%ADD18R,0.0500X0.0100*%
%ADD19R,0.0300X0.0100*%
%ADD20R,0.0100X0.0100*%
%ADD21R,0.0100X0.0050*%
%ADD22R,0.0050X0.0050*%
%ADD23C,0.0100*%
%ADD24R,0.0340X0.0240*%
%ADD25R,0.0240X0.0340*%
D10*
X014860Y041265D02*
X015000Y041405D01*
X015000Y041685D01*
X015180Y041545D02*
X015321Y041685D01*
X015321Y041265D01*
X015461Y041265D02*
X015180Y041265D01*
X014860Y041265D02*
X014720Y041405D01*
X014720Y041685D01*
X014970Y042015D02*
X015250Y042435D01*
X015430Y042435D02*
X015571Y042295D01*
X015711Y042435D01*
X015711Y042015D01*
X015891Y042015D02*
X016031Y042015D01*
X015961Y042015D02*
X015961Y042435D01*
X015891Y042435D02*
X016031Y042435D01*
X016198Y042365D02*
X016198Y042085D01*
X016268Y042015D01*
X016408Y042015D01*
X016478Y042085D01*
X016658Y042015D02*
X016658Y042435D01*
X016868Y042435D01*
X016938Y042365D01*
X016938Y042225D01*
X016868Y042155D01*
X016658Y042155D01*
X016798Y042155D02*
X016938Y042015D01*
X017118Y042085D02*
X017189Y042015D01*
X017329Y042015D01*
X017399Y042085D01*
X017399Y042365D01*
X017329Y042435D01*
X017189Y042435D01*
X017118Y042365D01*
X017118Y042085D01*
X016932Y041685D02*
X016932Y041265D01*
X016792Y041265D02*
X017072Y041265D01*
X017252Y041335D02*
X017322Y041265D01*
X017462Y041265D01*
X017532Y041335D01*
X017532Y041615D01*
X017462Y041685D01*
X017322Y041685D01*
X017252Y041615D01*
X017252Y041545D01*
X017322Y041475D01*
X017532Y041475D01*
X017713Y041475D02*
X017993Y041475D01*
X018173Y041475D02*
X018383Y041475D01*
X018453Y041405D01*
X018453Y041335D01*
X018383Y041265D01*
X018243Y041265D01*
X018173Y041335D01*
X018173Y041475D01*
X018313Y041615D01*
X018453Y041685D01*
X018500Y042015D02*
X018780Y042015D01*
X018960Y042015D02*
X018960Y042435D01*
X019170Y042435D01*
X019240Y042365D01*
X019240Y042225D01*
X019170Y042155D01*
X018960Y042155D01*
X019100Y042155D02*
X019240Y042015D01*
X019420Y042015D02*
X019561Y042015D01*
X019491Y042015D02*
X019491Y042435D01*
X019561Y042435D02*
X019420Y042435D01*
X019727Y042295D02*
X019868Y042435D01*
X020008Y042295D01*
X020008Y042015D01*
X020188Y042015D02*
X020468Y042015D01*
X020188Y042015D02*
X020188Y042435D01*
X020008Y042225D02*
X019727Y042225D01*
X019727Y042295D02*
X019727Y042015D01*
X018780Y042435D02*
X018500Y042435D01*
X018500Y042015D01*
X018320Y042085D02*
X018249Y042015D01*
X018109Y042015D01*
X018039Y042085D01*
X018109Y042225D02*
X018249Y042225D01*
X018320Y042155D01*
X018320Y042085D01*
X018500Y042225D02*
X018640Y042225D01*
X018320Y042365D02*
X018249Y042435D01*
X018109Y042435D01*
X018039Y042365D01*
X018039Y042295D01*
X018109Y042225D01*
X017859Y042225D02*
X017579Y042225D01*
X017923Y041685D02*
X017713Y041475D01*
X017923Y041265D02*
X017923Y041685D01*
X016932Y041685D02*
X016792Y041545D01*
X016151Y041265D02*
X015871Y041265D01*
X016011Y041265D02*
X016011Y041685D01*
X015871Y041545D01*
X015711Y041335D02*
X015711Y041265D01*
X015641Y041265D01*
X015641Y041335D01*
X015711Y041335D01*
X015430Y042015D02*
X015430Y042435D01*
X015250Y042015D02*
X014970Y042435D01*
X016198Y042365D02*
X016268Y042435D01*
X016408Y042435D01*
X016478Y042365D01*
D11*
X003710Y003703D02*
X003783Y003630D01*
X003930Y003630D01*
X004004Y003703D01*
X004170Y003630D02*
X004170Y004070D01*
X004004Y003997D02*
X003930Y004070D01*
X003783Y004070D01*
X003710Y003997D01*
X003710Y003703D01*
X004170Y003850D02*
X004464Y003850D01*
X004631Y003777D02*
X004851Y003777D01*
X004924Y003850D01*
X004924Y003997D01*
X004851Y004070D01*
X004631Y004070D01*
X004631Y003630D01*
X004464Y003630D02*
X004464Y004070D01*
X004778Y003777D02*
X004924Y003630D01*
X005091Y003630D02*
X005238Y003630D01*
X005165Y003630D02*
X005165Y004070D01*
X005238Y004070D02*
X005091Y004070D01*
X005398Y003997D02*
X005398Y003924D01*
X005472Y003850D01*
X005618Y003850D01*
X005692Y003777D01*
X005692Y003703D01*
X005618Y003630D01*
X005472Y003630D01*
X005398Y003703D01*
X005398Y003997D02*
X005472Y004070D01*
X005618Y004070D01*
X005692Y003997D01*
X006319Y004070D02*
X006319Y003630D01*
X006466Y003777D01*
X006612Y003630D01*
X006612Y004070D01*
X006779Y004070D02*
X006779Y003630D01*
X007073Y003630D01*
X007240Y003630D02*
X007386Y003630D01*
X007313Y003630D02*
X007313Y004070D01*
X007240Y004070D02*
X007386Y004070D01*
X007547Y004070D02*
X007767Y004070D01*
X007840Y003997D01*
X007840Y003850D01*
X007767Y003777D01*
X007547Y003777D01*
X007693Y003777D02*
X007840Y003630D01*
X007547Y003630D02*
X007547Y004070D01*
X007073Y004070D02*
X006779Y004070D01*
X006779Y003850D02*
X006926Y003850D01*
X008467Y003997D02*
X008541Y004070D01*
X008688Y004070D01*
X008761Y003997D01*
X008761Y003924D01*
X008467Y003630D01*
X008761Y003630D01*
X008928Y003703D02*
X009221Y003997D01*
X009221Y003703D01*
X009148Y003630D01*
X009001Y003630D01*
X008928Y003703D01*
X008928Y003997D01*
X009001Y004070D01*
X009148Y004070D01*
X009221Y003997D01*
X009388Y003924D02*
X009535Y004070D01*
X009535Y003630D01*
X009388Y003630D02*
X009682Y003630D01*
X009849Y003703D02*
X009922Y003630D01*
X010069Y003630D01*
X010142Y003703D01*
X010142Y003997D01*
X010069Y004070D01*
X009922Y004070D01*
X009849Y003997D01*
X009849Y003924D01*
X009922Y003850D01*
X010142Y003850D01*
X012930Y008950D02*
X012930Y009700D01*
X012969Y009702D01*
X013008Y009708D01*
X013046Y009717D01*
X013083Y009730D01*
X013119Y009747D01*
X013152Y009767D01*
X013184Y009791D01*
X013213Y009817D01*
X013239Y009846D01*
X013263Y009878D01*
X013283Y009911D01*
X013300Y009947D01*
X013313Y009984D01*
X013322Y010022D01*
X013328Y010061D01*
X013330Y010100D01*
X013328Y010139D01*
X013322Y010178D01*
X013313Y010216D01*
X013300Y010253D01*
X013283Y010289D01*
X013263Y010322D01*
X013239Y010354D01*
X013213Y010383D01*
X013184Y010409D01*
X013152Y010433D01*
X013119Y010453D01*
X013083Y010470D01*
X013046Y010483D01*
X013008Y010492D01*
X012969Y010498D01*
X012930Y010500D01*
X012930Y011250D01*
X019930Y011250D01*
X019930Y008950D01*
X012930Y008950D01*
X012380Y009450D02*
X012380Y010750D01*
X012378Y010776D01*
X012373Y010802D01*
X012365Y010827D01*
X012353Y010850D01*
X012339Y010872D01*
X012321Y010891D01*
X012302Y010909D01*
X012280Y010923D01*
X012257Y010935D01*
X012232Y010943D01*
X012206Y010948D01*
X012180Y010950D01*
X011680Y010950D01*
X011654Y010948D01*
X011628Y010943D01*
X011603Y010935D01*
X011580Y010923D01*
X011558Y010909D01*
X011539Y010891D01*
X011521Y010872D01*
X011507Y010850D01*
X011495Y010827D01*
X011487Y010802D01*
X011482Y010776D01*
X011480Y010750D01*
X011480Y009450D01*
X011482Y009424D01*
X011487Y009398D01*
X011495Y009373D01*
X011507Y009350D01*
X011521Y009328D01*
X011539Y009309D01*
X011558Y009291D01*
X011580Y009277D01*
X011603Y009265D01*
X011628Y009257D01*
X011654Y009252D01*
X011680Y009250D01*
X012180Y009250D01*
X012206Y009252D01*
X012232Y009257D01*
X012257Y009265D01*
X012280Y009277D01*
X012302Y009291D01*
X012321Y009309D01*
X012339Y009328D01*
X012353Y009350D01*
X012365Y009373D01*
X012373Y009398D01*
X012378Y009424D01*
X012380Y009450D01*
X011275Y009743D02*
X011275Y009890D01*
X011202Y009963D01*
X011275Y010130D02*
X010981Y010424D01*
X010908Y010424D01*
X010835Y010350D01*
X010835Y010203D01*
X010908Y010130D01*
X010908Y009963D02*
X010835Y009890D01*
X010835Y009743D01*
X010908Y009670D01*
X011202Y009670D01*
X011275Y009743D01*
X011275Y010130D02*
X011275Y010424D01*
X009549Y011203D02*
X009476Y011130D01*
X009329Y011130D01*
X009256Y011203D01*
X009256Y011277D01*
X009329Y011350D01*
X009476Y011350D01*
X009549Y011277D01*
X009549Y011203D01*
X009476Y011350D02*
X009549Y011424D01*
X009549Y011497D01*
X009476Y011570D01*
X009329Y011570D01*
X009256Y011497D01*
X009256Y011424D01*
X009329Y011350D01*
X009089Y011277D02*
X009016Y011350D01*
X008869Y011350D01*
X008795Y011424D01*
X008795Y011497D01*
X008869Y011570D01*
X009016Y011570D01*
X009089Y011497D01*
X009089Y011424D01*
X009016Y011350D01*
X009089Y011277D02*
X009089Y011203D01*
X009016Y011130D01*
X008869Y011130D01*
X008795Y011203D01*
X008795Y011277D01*
X008869Y011350D01*
X008629Y011203D02*
X008555Y011130D01*
X008408Y011130D01*
X008335Y011203D01*
X008629Y011497D01*
X008629Y011203D01*
X008629Y011497D02*
X008555Y011570D01*
X008408Y011570D01*
X008335Y011497D01*
X008335Y011203D01*
X008168Y011203D02*
X008095Y011130D01*
X007948Y011130D01*
X007875Y011203D01*
X007875Y011350D02*
X008021Y011424D01*
X008095Y011424D01*
X008168Y011350D01*
X008168Y011203D01*
X007875Y011350D02*
X007875Y011570D01*
X008168Y011570D01*
X007754Y011755D02*
X007460Y011755D01*
X007607Y011755D02*
X007607Y012195D01*
X007460Y012049D01*
X007293Y012122D02*
X007293Y011828D01*
X007220Y011755D01*
X007073Y011755D01*
X007000Y011828D01*
X007000Y012122D01*
X007073Y012195D01*
X007220Y012195D01*
X007293Y012122D01*
X007146Y011902D02*
X007293Y011755D01*
X007174Y011570D02*
X007027Y011570D01*
X006954Y011497D01*
X007174Y011570D02*
X007247Y011497D01*
X007247Y011424D01*
X006954Y011130D01*
X007247Y011130D01*
X007414Y011130D02*
X007414Y011570D01*
X007708Y011130D01*
X007708Y011570D01*
X006830Y010550D02*
X006680Y010550D01*
X006630Y010500D01*
X004730Y010500D01*
X004680Y010550D01*
X004530Y010550D01*
X004513Y010548D01*
X004496Y010544D01*
X004480Y010537D01*
X004466Y010527D01*
X004453Y010514D01*
X004443Y010500D01*
X004436Y010484D01*
X004432Y010467D01*
X004430Y010450D01*
X004430Y009750D01*
X004432Y009733D01*
X004436Y009716D01*
X004443Y009700D01*
X004453Y009686D01*
X004466Y009673D01*
X004480Y009663D01*
X004496Y009656D01*
X004513Y009652D01*
X004530Y009650D01*
X004680Y009650D01*
X004730Y009700D01*
X006630Y009700D01*
X006680Y009650D01*
X006830Y009650D01*
X006847Y009652D01*
X006864Y009656D01*
X006880Y009663D01*
X006894Y009673D01*
X006907Y009686D01*
X006917Y009700D01*
X006924Y009716D01*
X006928Y009733D01*
X006930Y009750D01*
X006930Y010450D01*
X006928Y010467D01*
X006924Y010484D01*
X006917Y010500D01*
X006907Y010514D01*
X006894Y010527D01*
X006880Y010537D01*
X006864Y010544D01*
X006847Y010548D01*
X006830Y010550D01*
X006199Y010174D02*
X005979Y010027D01*
X006199Y009880D01*
X005979Y009880D02*
X005979Y010320D01*
X005812Y010247D02*
X005518Y009953D01*
X005592Y009880D01*
X005738Y009880D01*
X005812Y009953D01*
X005812Y010247D01*
X005738Y010320D01*
X005592Y010320D01*
X005518Y010247D01*
X005518Y009953D01*
X005351Y009880D02*
X005058Y009880D01*
X005205Y009880D02*
X005205Y010320D01*
X005058Y010174D01*
X008250Y010320D02*
X008250Y009880D01*
X008250Y010027D02*
X008470Y010027D01*
X008543Y010100D01*
X008543Y010247D01*
X008470Y010320D01*
X008250Y010320D01*
X008396Y010027D02*
X008543Y009880D01*
X008710Y009880D02*
X009004Y009880D01*
X008857Y009880D02*
X008857Y010320D01*
X008710Y010174D01*
X006830Y012900D02*
X006680Y012900D01*
X006630Y012950D01*
X004730Y012950D01*
X004680Y012900D01*
X004530Y012900D01*
X004513Y012902D01*
X004496Y012906D01*
X004480Y012913D01*
X004466Y012923D01*
X004453Y012936D01*
X004443Y012950D01*
X004436Y012966D01*
X004432Y012983D01*
X004430Y013000D01*
X004430Y013700D01*
X004432Y013717D01*
X004436Y013734D01*
X004443Y013750D01*
X004453Y013764D01*
X004466Y013777D01*
X004480Y013787D01*
X004496Y013794D01*
X004513Y013798D01*
X004530Y013800D01*
X004680Y013800D01*
X004730Y013750D01*
X006630Y013750D01*
X006680Y013800D01*
X006830Y013800D01*
X006847Y013798D01*
X006864Y013794D01*
X006880Y013787D01*
X006894Y013777D01*
X006907Y013764D01*
X006917Y013750D01*
X006924Y013734D01*
X006928Y013717D01*
X006930Y013700D01*
X006930Y013000D01*
X006928Y012983D01*
X006924Y012966D01*
X006917Y012950D01*
X006907Y012936D01*
X006894Y012923D01*
X006880Y012913D01*
X006864Y012906D01*
X006847Y012902D01*
X006830Y012900D01*
X006429Y013130D02*
X006209Y013277D01*
X006429Y013424D01*
X006209Y013570D02*
X006209Y013130D01*
X006042Y013203D02*
X005969Y013130D01*
X005822Y013130D01*
X005748Y013203D01*
X006042Y013497D01*
X006042Y013203D01*
X005748Y013203D02*
X005748Y013497D01*
X005822Y013570D01*
X005969Y013570D01*
X006042Y013497D01*
X005582Y013497D02*
X005288Y013203D01*
X005361Y013130D01*
X005508Y013130D01*
X005582Y013203D01*
X005582Y013497D01*
X005508Y013570D01*
X005361Y013570D01*
X005288Y013497D01*
X005288Y013203D01*
X005121Y013130D02*
X004828Y013130D01*
X004974Y013130D02*
X004974Y013570D01*
X004828Y013424D01*
X006954Y014380D02*
X007247Y014674D01*
X007247Y014747D01*
X007174Y014820D01*
X007027Y014820D01*
X006954Y014747D01*
X007073Y015005D02*
X007000Y015078D01*
X007000Y015372D01*
X007073Y015445D01*
X007220Y015445D01*
X007293Y015372D01*
X007293Y015078D01*
X007220Y015005D01*
X007073Y015005D01*
X007146Y015152D02*
X007293Y015005D01*
X007460Y015005D02*
X007754Y015299D01*
X007754Y015372D01*
X007680Y015445D01*
X007533Y015445D01*
X007460Y015372D01*
X007460Y015005D02*
X007754Y015005D01*
X007708Y014820D02*
X007708Y014380D01*
X007414Y014820D01*
X007414Y014380D01*
X007247Y014380D02*
X006954Y014380D01*
X007875Y014453D02*
X007948Y014380D01*
X008095Y014380D01*
X008168Y014453D01*
X008168Y014600D01*
X008095Y014674D01*
X008021Y014674D01*
X007875Y014600D01*
X007875Y014820D01*
X008168Y014820D01*
X008335Y014747D02*
X008408Y014820D01*
X008555Y014820D01*
X008629Y014747D01*
X008335Y014453D01*
X008408Y014380D01*
X008555Y014380D01*
X008629Y014453D01*
X008629Y014747D01*
X008795Y014747D02*
X008795Y014674D01*
X008869Y014600D01*
X009016Y014600D01*
X009089Y014527D01*
X009089Y014453D01*
X009016Y014380D01*
X008869Y014380D01*
X008795Y014453D01*
X008795Y014527D01*
X008869Y014600D01*
X009016Y014600D02*
X009089Y014674D01*
X009089Y014747D01*
X009016Y014820D01*
X008869Y014820D01*
X008795Y014747D01*
X008335Y014747D02*
X008335Y014453D01*
X009256Y014453D02*
X009329Y014380D01*
X009476Y014380D01*
X009549Y014453D01*
X009549Y014527D01*
X009476Y014600D01*
X009329Y014600D01*
X009256Y014674D01*
X009256Y014747D01*
X009329Y014820D01*
X009476Y014820D01*
X009549Y014747D01*
X009549Y014674D01*
X009476Y014600D01*
X009329Y014600D02*
X009256Y014527D01*
X009256Y014453D01*
X008930Y013570D02*
X008783Y013570D01*
X008710Y013497D01*
X008543Y013497D02*
X008543Y013350D01*
X008470Y013277D01*
X008250Y013277D01*
X008396Y013277D02*
X008543Y013130D01*
X008710Y013130D02*
X009004Y013424D01*
X009004Y013497D01*
X008930Y013570D01*
X008543Y013497D02*
X008470Y013570D01*
X008250Y013570D01*
X008250Y013130D01*
X008710Y013130D02*
X009004Y013130D01*
X010835Y014743D02*
X010908Y014670D01*
X011202Y014670D01*
X011275Y014743D01*
X011275Y014890D01*
X011202Y014963D01*
X011202Y015130D02*
X011275Y015203D01*
X011275Y015350D01*
X011202Y015424D01*
X011128Y015424D01*
X011055Y015350D01*
X011055Y015277D01*
X011055Y015350D02*
X010981Y015424D01*
X010908Y015424D01*
X010835Y015350D01*
X010835Y015203D01*
X010908Y015130D01*
X010908Y014963D02*
X010835Y014890D01*
X010835Y014743D01*
X011480Y014450D02*
X011480Y015750D01*
X011482Y015776D01*
X011487Y015802D01*
X011495Y015827D01*
X011507Y015850D01*
X011521Y015872D01*
X011539Y015891D01*
X011558Y015909D01*
X011580Y015923D01*
X011603Y015935D01*
X011628Y015943D01*
X011654Y015948D01*
X011680Y015950D01*
X012180Y015950D01*
X012206Y015948D01*
X012232Y015943D01*
X012257Y015935D01*
X012280Y015923D01*
X012302Y015909D01*
X012321Y015891D01*
X012339Y015872D01*
X012353Y015850D01*
X012365Y015827D01*
X012373Y015802D01*
X012378Y015776D01*
X012380Y015750D01*
X012380Y014450D01*
X012378Y014424D01*
X012373Y014398D01*
X012365Y014373D01*
X012353Y014350D01*
X012339Y014328D01*
X012321Y014309D01*
X012302Y014291D01*
X012280Y014277D01*
X012257Y014265D01*
X012232Y014257D01*
X012206Y014252D01*
X012180Y014250D01*
X011680Y014250D01*
X011654Y014252D01*
X011628Y014257D01*
X011603Y014265D01*
X011580Y014277D01*
X011558Y014291D01*
X011539Y014309D01*
X011521Y014328D01*
X011507Y014350D01*
X011495Y014373D01*
X011487Y014398D01*
X011482Y014424D01*
X011480Y014450D01*
X012930Y014700D02*
X012930Y013950D01*
X019930Y013950D01*
X019930Y016250D01*
X012930Y016250D01*
X012930Y015500D01*
X012969Y015498D01*
X013008Y015492D01*
X013046Y015483D01*
X013083Y015470D01*
X013119Y015453D01*
X013152Y015433D01*
X013184Y015409D01*
X013213Y015383D01*
X013239Y015354D01*
X013263Y015322D01*
X013283Y015289D01*
X013300Y015253D01*
X013313Y015216D01*
X013322Y015178D01*
X013328Y015139D01*
X013330Y015100D01*
X013328Y015061D01*
X013322Y015022D01*
X013313Y014984D01*
X013300Y014947D01*
X013283Y014911D01*
X013263Y014878D01*
X013239Y014846D01*
X013213Y014817D01*
X013184Y014791D01*
X013152Y014767D01*
X013119Y014747D01*
X013083Y014730D01*
X013046Y014717D01*
X013008Y014708D01*
X012969Y014702D01*
X012930Y014700D01*
X015539Y014880D02*
X015539Y014953D01*
X015833Y015247D01*
X015833Y015320D01*
X015539Y015320D01*
X016000Y015100D02*
X016293Y015100D01*
X016460Y015174D02*
X016607Y015320D01*
X016607Y014880D01*
X016460Y014880D02*
X016754Y014880D01*
X016920Y014953D02*
X017214Y015247D01*
X017214Y014953D01*
X017141Y014880D01*
X016994Y014880D01*
X016920Y014953D01*
X016920Y015247D01*
X016994Y015320D01*
X017141Y015320D01*
X017214Y015247D01*
X016220Y015320D02*
X016000Y015100D01*
X016220Y014880D02*
X016220Y015320D01*
X020210Y015350D02*
X020210Y015203D01*
X020283Y015130D01*
X020210Y014963D02*
X020577Y014963D01*
X020650Y014890D01*
X020650Y014743D01*
X020577Y014670D01*
X020210Y014670D01*
X020577Y015130D02*
X020650Y015203D01*
X020650Y015350D01*
X020577Y015424D01*
X020503Y015424D01*
X020430Y015350D01*
X020430Y015277D01*
X020430Y015350D02*
X020356Y015424D01*
X020283Y015424D01*
X020210Y015350D01*
X022335Y015350D02*
X022335Y015203D01*
X022408Y015130D01*
X022481Y015130D01*
X022555Y015203D01*
X022555Y015424D01*
X022702Y015424D02*
X022408Y015424D01*
X022335Y015350D01*
X022702Y015424D02*
X022775Y015350D01*
X022775Y015203D01*
X022702Y015130D01*
X022702Y014963D02*
X022775Y014890D01*
X022775Y014743D01*
X022702Y014670D01*
X022408Y014670D01*
X022335Y014743D01*
X022335Y014890D01*
X022408Y014963D01*
X022980Y014450D02*
X022980Y015750D01*
X022982Y015776D01*
X022987Y015802D01*
X022995Y015827D01*
X023007Y015850D01*
X023021Y015872D01*
X023039Y015891D01*
X023058Y015909D01*
X023080Y015923D01*
X023103Y015935D01*
X023128Y015943D01*
X023154Y015948D01*
X023180Y015950D01*
X023680Y015950D01*
X023706Y015948D01*
X023732Y015943D01*
X023757Y015935D01*
X023780Y015923D01*
X023802Y015909D01*
X023821Y015891D01*
X023839Y015872D01*
X023853Y015850D01*
X023865Y015827D01*
X023873Y015802D01*
X023878Y015776D01*
X023880Y015750D01*
X023880Y014450D01*
X023878Y014424D01*
X023873Y014398D01*
X023865Y014373D01*
X023853Y014350D01*
X023839Y014328D01*
X023821Y014309D01*
X023802Y014291D01*
X023780Y014277D01*
X023757Y014265D01*
X023732Y014257D01*
X023706Y014252D01*
X023680Y014250D01*
X023180Y014250D01*
X023154Y014252D01*
X023128Y014257D01*
X023103Y014265D01*
X023080Y014277D01*
X023058Y014291D01*
X023039Y014309D01*
X023021Y014328D01*
X023007Y014350D01*
X022995Y014373D01*
X022987Y014398D01*
X022982Y014424D01*
X022980Y014450D01*
X024430Y014700D02*
X024430Y013950D01*
X032430Y013950D01*
X032430Y016250D01*
X024430Y016250D01*
X024430Y015500D01*
X024469Y015498D01*
X024508Y015492D01*
X024546Y015483D01*
X024583Y015470D01*
X024619Y015453D01*
X024652Y015433D01*
X024684Y015409D01*
X024713Y015383D01*
X024739Y015354D01*
X024763Y015322D01*
X024783Y015289D01*
X024800Y015253D01*
X024813Y015216D01*
X024822Y015178D01*
X024828Y015139D01*
X024830Y015100D01*
X024828Y015061D01*
X024822Y015022D01*
X024813Y014984D01*
X024800Y014947D01*
X024783Y014911D01*
X024763Y014878D01*
X024739Y014846D01*
X024713Y014817D01*
X024684Y014791D01*
X024652Y014767D01*
X024619Y014747D01*
X024583Y014730D01*
X024546Y014717D01*
X024508Y014708D01*
X024469Y014702D01*
X024430Y014700D01*
X027309Y014880D02*
X027309Y014953D01*
X027603Y015247D01*
X027603Y015320D01*
X027309Y015320D01*
X027769Y015100D02*
X028063Y015100D01*
X028230Y015174D02*
X028377Y015320D01*
X028377Y014880D01*
X028523Y014880D02*
X028230Y014880D01*
X027990Y014880D02*
X027990Y015320D01*
X027769Y015100D01*
X028690Y014953D02*
X028764Y014880D01*
X028910Y014880D01*
X028984Y014953D01*
X028984Y015027D01*
X028910Y015100D01*
X028837Y015100D01*
X028910Y015100D02*
X028984Y015174D01*
X028984Y015247D01*
X028910Y015320D01*
X028764Y015320D01*
X028690Y015247D01*
X029151Y015247D02*
X029151Y015174D01*
X029224Y015100D01*
X029371Y015100D01*
X029444Y015027D01*
X029444Y014953D01*
X029371Y014880D01*
X029224Y014880D01*
X029151Y014953D01*
X029151Y015027D01*
X029224Y015100D01*
X029371Y015100D02*
X029444Y015174D01*
X029444Y015247D01*
X029371Y015320D01*
X029224Y015320D01*
X029151Y015247D01*
X032710Y015203D02*
X032783Y015130D01*
X032856Y015130D01*
X032930Y015203D01*
X032930Y015424D01*
X033077Y015424D02*
X032783Y015424D01*
X032710Y015350D01*
X032710Y015203D01*
X032710Y014963D02*
X033077Y014963D01*
X033150Y014890D01*
X033150Y014743D01*
X033077Y014670D01*
X032710Y014670D01*
X033077Y015130D02*
X033150Y015203D01*
X033150Y015350D01*
X033077Y015424D01*
X036335Y015360D02*
X036555Y015360D01*
X036481Y015507D01*
X036481Y015580D01*
X036555Y015654D01*
X036702Y015654D01*
X036775Y015580D01*
X036775Y015434D01*
X036702Y015360D01*
X036775Y015193D02*
X036775Y014900D01*
X036775Y015047D02*
X036335Y015047D01*
X036481Y014900D01*
X036408Y014733D02*
X036335Y014660D01*
X036335Y014513D01*
X036408Y014439D01*
X036702Y014439D01*
X036775Y014513D01*
X036775Y014660D01*
X036702Y014733D01*
X036980Y014450D02*
X036980Y015750D01*
X036982Y015776D01*
X036987Y015802D01*
X036995Y015827D01*
X037007Y015850D01*
X037021Y015872D01*
X037039Y015891D01*
X037058Y015909D01*
X037080Y015923D01*
X037103Y015935D01*
X037128Y015943D01*
X037154Y015948D01*
X037180Y015950D01*
X037680Y015950D01*
X037706Y015948D01*
X037732Y015943D01*
X037757Y015935D01*
X037780Y015923D01*
X037802Y015909D01*
X037821Y015891D01*
X037839Y015872D01*
X037853Y015850D01*
X037865Y015827D01*
X037873Y015802D01*
X037878Y015776D01*
X037880Y015750D01*
X037880Y014450D01*
X037878Y014424D01*
X037873Y014398D01*
X037865Y014373D01*
X037853Y014350D01*
X037839Y014328D01*
X037821Y014309D01*
X037802Y014291D01*
X037780Y014277D01*
X037757Y014265D01*
X037732Y014257D01*
X037706Y014252D01*
X037680Y014250D01*
X037180Y014250D01*
X037154Y014252D01*
X037128Y014257D01*
X037103Y014265D01*
X037080Y014277D01*
X037058Y014291D01*
X037039Y014309D01*
X037021Y014328D01*
X037007Y014350D01*
X036995Y014373D01*
X036987Y014398D01*
X036982Y014424D01*
X036980Y014450D01*
X036335Y015360D02*
X036335Y015654D01*
X038430Y015500D02*
X038430Y016250D01*
X048430Y016250D01*
X048430Y013950D01*
X038430Y013950D01*
X038430Y014700D01*
X038469Y014702D01*
X038508Y014708D01*
X038546Y014717D01*
X038583Y014730D01*
X038619Y014747D01*
X038652Y014767D01*
X038684Y014791D01*
X038713Y014817D01*
X038739Y014846D01*
X038763Y014878D01*
X038783Y014911D01*
X038800Y014947D01*
X038813Y014984D01*
X038822Y015022D01*
X038828Y015061D01*
X038830Y015100D01*
X038828Y015139D01*
X038822Y015178D01*
X038813Y015216D01*
X038800Y015253D01*
X038783Y015289D01*
X038763Y015322D01*
X038739Y015354D01*
X038713Y015383D01*
X038684Y015409D01*
X038652Y015433D01*
X038619Y015453D01*
X038583Y015470D01*
X038546Y015483D01*
X038508Y015492D01*
X038469Y015498D01*
X038430Y015500D01*
X038355Y017380D02*
X038355Y017820D01*
X038648Y017380D01*
X038648Y017820D01*
X038815Y017674D02*
X038962Y017820D01*
X038962Y017380D01*
X038815Y017380D02*
X039109Y017380D01*
X039430Y017400D02*
X039430Y017800D01*
X039432Y017826D01*
X039437Y017852D01*
X039445Y017877D01*
X039457Y017900D01*
X039471Y017922D01*
X039489Y017941D01*
X039508Y017959D01*
X039530Y017973D01*
X039553Y017985D01*
X039578Y017993D01*
X039604Y017998D01*
X039630Y018000D01*
X048230Y018000D01*
X048256Y017998D01*
X048282Y017993D01*
X048307Y017985D01*
X048330Y017973D01*
X048352Y017959D01*
X048371Y017941D01*
X048389Y017922D01*
X048403Y017900D01*
X048415Y017877D01*
X048423Y017852D01*
X048428Y017826D01*
X048430Y017800D01*
X048430Y017400D01*
X048428Y017374D01*
X048423Y017348D01*
X048415Y017323D01*
X048403Y017300D01*
X048389Y017278D01*
X048371Y017259D01*
X048352Y017241D01*
X048330Y017227D01*
X048307Y017215D01*
X048282Y017207D01*
X048256Y017202D01*
X048230Y017200D01*
X039630Y017200D01*
X039580Y017250D02*
X039580Y017950D01*
X040280Y017950D01*
X040280Y017250D01*
X039580Y017250D01*
X039630Y017200D02*
X039604Y017202D01*
X039578Y017207D01*
X039553Y017215D01*
X039530Y017227D01*
X039508Y017241D01*
X039489Y017259D01*
X039471Y017278D01*
X039457Y017300D01*
X039445Y017323D01*
X039437Y017348D01*
X039432Y017374D01*
X039430Y017400D01*
X038188Y017380D02*
X038041Y017527D01*
X038115Y017527D02*
X037894Y017527D01*
X037894Y017380D02*
X037894Y017820D01*
X038115Y017820D01*
X038188Y017747D01*
X038188Y017600D01*
X038115Y017527D01*
X038430Y018950D02*
X038430Y019700D01*
X038469Y019702D01*
X038508Y019708D01*
X038546Y019717D01*
X038583Y019730D01*
X038619Y019747D01*
X038652Y019767D01*
X038684Y019791D01*
X038713Y019817D01*
X038739Y019846D01*
X038763Y019878D01*
X038783Y019911D01*
X038800Y019947D01*
X038813Y019984D01*
X038822Y020022D01*
X038828Y020061D01*
X038830Y020100D01*
X038828Y020139D01*
X038822Y020178D01*
X038813Y020216D01*
X038800Y020253D01*
X038783Y020289D01*
X038763Y020322D01*
X038739Y020354D01*
X038713Y020383D01*
X038684Y020409D01*
X038652Y020433D01*
X038619Y020453D01*
X038583Y020470D01*
X038546Y020483D01*
X038508Y020492D01*
X038469Y020498D01*
X038430Y020500D01*
X038430Y021250D01*
X048430Y021250D01*
X048430Y018950D01*
X038430Y018950D01*
X037880Y019450D02*
X037880Y020750D01*
X037878Y020776D01*
X037873Y020802D01*
X037865Y020827D01*
X037853Y020850D01*
X037839Y020872D01*
X037821Y020891D01*
X037802Y020909D01*
X037780Y020923D01*
X037757Y020935D01*
X037732Y020943D01*
X037706Y020948D01*
X037680Y020950D01*
X037180Y020950D01*
X037154Y020948D01*
X037128Y020943D01*
X037103Y020935D01*
X037080Y020923D01*
X037058Y020909D01*
X037039Y020891D01*
X037021Y020872D01*
X037007Y020850D01*
X036995Y020827D01*
X036987Y020802D01*
X036982Y020776D01*
X036980Y020750D01*
X036980Y019450D01*
X036982Y019424D01*
X036987Y019398D01*
X036995Y019373D01*
X037007Y019350D01*
X037021Y019328D01*
X037039Y019309D01*
X037058Y019291D01*
X037080Y019277D01*
X037103Y019265D01*
X037128Y019257D01*
X037154Y019252D01*
X037180Y019250D01*
X037680Y019250D01*
X037706Y019252D01*
X037732Y019257D01*
X037757Y019265D01*
X037780Y019277D01*
X037802Y019291D01*
X037821Y019309D01*
X037839Y019328D01*
X037853Y019350D01*
X037865Y019373D01*
X037873Y019398D01*
X037878Y019424D01*
X037880Y019450D01*
X036775Y019513D02*
X036775Y019660D01*
X036702Y019733D01*
X036775Y019900D02*
X036775Y020193D01*
X036775Y020047D02*
X036335Y020047D01*
X036481Y019900D01*
X036408Y019733D02*
X036335Y019660D01*
X036335Y019513D01*
X036408Y019439D01*
X036702Y019439D01*
X036775Y019513D01*
X036702Y020360D02*
X036775Y020434D01*
X036775Y020580D01*
X036702Y020654D01*
X036628Y020654D01*
X036555Y020580D01*
X036555Y020360D01*
X036702Y020360D01*
X036555Y020360D02*
X036408Y020507D01*
X036335Y020654D01*
X032150Y020580D02*
X032150Y020434D01*
X032077Y020360D01*
X031783Y020654D01*
X032077Y020654D01*
X032150Y020580D01*
X032077Y020360D02*
X031783Y020360D01*
X031710Y020434D01*
X031710Y020580D01*
X031783Y020654D01*
X032150Y020193D02*
X032150Y019900D01*
X032150Y020047D02*
X031710Y020047D01*
X031856Y019900D01*
X031710Y019733D02*
X032077Y019733D01*
X032150Y019660D01*
X032150Y019513D01*
X032077Y019439D01*
X031710Y019439D01*
X031430Y018950D02*
X031430Y021250D01*
X024430Y021250D01*
X024430Y020500D01*
X024469Y020498D01*
X024508Y020492D01*
X024546Y020483D01*
X024583Y020470D01*
X024619Y020453D01*
X024652Y020433D01*
X024684Y020409D01*
X024713Y020383D01*
X024739Y020354D01*
X024763Y020322D01*
X024783Y020289D01*
X024800Y020253D01*
X024813Y020216D01*
X024822Y020178D01*
X024828Y020139D01*
X024830Y020100D01*
X024828Y020061D01*
X024822Y020022D01*
X024813Y019984D01*
X024800Y019947D01*
X024783Y019911D01*
X024763Y019878D01*
X024739Y019846D01*
X024713Y019817D01*
X024684Y019791D01*
X024652Y019767D01*
X024619Y019747D01*
X024583Y019730D01*
X024546Y019717D01*
X024508Y019708D01*
X024469Y019702D01*
X024430Y019700D01*
X024430Y018950D01*
X031430Y018950D01*
X028944Y019953D02*
X028944Y020247D01*
X028651Y019953D01*
X028724Y019880D01*
X028871Y019880D01*
X028944Y019953D01*
X028651Y019953D02*
X028651Y020247D01*
X028724Y020320D01*
X028871Y020320D01*
X028944Y020247D01*
X028484Y020247D02*
X028484Y020174D01*
X028410Y020100D01*
X028264Y020100D01*
X028190Y020174D01*
X028190Y020247D01*
X028264Y020320D01*
X028410Y020320D01*
X028484Y020247D01*
X028410Y020100D02*
X028484Y020027D01*
X028484Y019953D01*
X028410Y019880D01*
X028264Y019880D01*
X028190Y019953D01*
X028190Y020027D01*
X028264Y020100D01*
X028023Y020174D02*
X028023Y020247D01*
X027950Y020320D01*
X027803Y020320D01*
X027730Y020247D01*
X027563Y020100D02*
X027269Y020100D01*
X027490Y020320D01*
X027490Y019880D01*
X027730Y019880D02*
X028023Y020174D01*
X028023Y019880D02*
X027730Y019880D01*
X027103Y020247D02*
X026809Y019953D01*
X026809Y019880D01*
X026809Y020320D02*
X027103Y020320D01*
X027103Y020247D01*
X023880Y020750D02*
X023880Y019450D01*
X023878Y019424D01*
X023873Y019398D01*
X023865Y019373D01*
X023853Y019350D01*
X023839Y019328D01*
X023821Y019309D01*
X023802Y019291D01*
X023780Y019277D01*
X023757Y019265D01*
X023732Y019257D01*
X023706Y019252D01*
X023680Y019250D01*
X023180Y019250D01*
X023154Y019252D01*
X023128Y019257D01*
X023103Y019265D01*
X023080Y019277D01*
X023058Y019291D01*
X023039Y019309D01*
X023021Y019328D01*
X023007Y019350D01*
X022995Y019373D01*
X022987Y019398D01*
X022982Y019424D01*
X022980Y019450D01*
X022980Y020750D01*
X022982Y020776D01*
X022987Y020802D01*
X022995Y020827D01*
X023007Y020850D01*
X023021Y020872D01*
X023039Y020891D01*
X023058Y020909D01*
X023080Y020923D01*
X023103Y020935D01*
X023128Y020943D01*
X023154Y020948D01*
X023180Y020950D01*
X023680Y020950D01*
X023706Y020948D01*
X023732Y020943D01*
X023757Y020935D01*
X023780Y020923D01*
X023802Y020909D01*
X023821Y020891D01*
X023839Y020872D01*
X023853Y020850D01*
X023865Y020827D01*
X023873Y020802D01*
X023878Y020776D01*
X023880Y020750D01*
X022775Y020580D02*
X022775Y020434D01*
X022702Y020360D01*
X022408Y020654D01*
X022702Y020654D01*
X022775Y020580D01*
X022702Y020360D02*
X022408Y020360D01*
X022335Y020434D01*
X022335Y020580D01*
X022408Y020654D01*
X022775Y020193D02*
X022775Y019900D01*
X022775Y020047D02*
X022335Y020047D01*
X022481Y019900D01*
X022408Y019733D02*
X022335Y019660D01*
X022335Y019513D01*
X022408Y019439D01*
X022702Y019439D01*
X022775Y019513D01*
X022775Y019660D01*
X022702Y019733D01*
X020650Y019743D02*
X020650Y019890D01*
X020577Y019963D01*
X020210Y019963D01*
X020430Y020130D02*
X020210Y020350D01*
X020650Y020350D01*
X020430Y020424D02*
X020430Y020130D01*
X020650Y019743D02*
X020577Y019670D01*
X020210Y019670D01*
X019930Y018950D02*
X019930Y021250D01*
X012930Y021250D01*
X012930Y020500D01*
X012969Y020498D01*
X013008Y020492D01*
X013046Y020483D01*
X013083Y020470D01*
X013119Y020453D01*
X013152Y020433D01*
X013184Y020409D01*
X013213Y020383D01*
X013239Y020354D01*
X013263Y020322D01*
X013283Y020289D01*
X013300Y020253D01*
X013313Y020216D01*
X013322Y020178D01*
X013328Y020139D01*
X013330Y020100D01*
X013328Y020061D01*
X013322Y020022D01*
X013313Y019984D01*
X013300Y019947D01*
X013283Y019911D01*
X013263Y019878D01*
X013239Y019846D01*
X013213Y019817D01*
X013184Y019791D01*
X013152Y019767D01*
X013119Y019747D01*
X013083Y019730D01*
X013046Y019717D01*
X013008Y019708D01*
X012969Y019702D01*
X012930Y019700D01*
X012930Y018950D01*
X019930Y018950D01*
X017141Y019880D02*
X017141Y020320D01*
X016920Y020100D01*
X017214Y020100D01*
X016754Y019953D02*
X016680Y019880D01*
X016533Y019880D01*
X016460Y019953D01*
X016754Y020247D01*
X016754Y019953D01*
X016754Y020247D02*
X016680Y020320D01*
X016533Y020320D01*
X016460Y020247D01*
X016460Y019953D01*
X016293Y020100D02*
X016000Y020100D01*
X016220Y020320D01*
X016220Y019880D01*
X015833Y020247D02*
X015539Y019953D01*
X015539Y019880D01*
X015539Y020320D02*
X015833Y020320D01*
X015833Y020247D01*
X012380Y020750D02*
X012380Y019450D01*
X012378Y019424D01*
X012373Y019398D01*
X012365Y019373D01*
X012353Y019350D01*
X012339Y019328D01*
X012321Y019309D01*
X012302Y019291D01*
X012280Y019277D01*
X012257Y019265D01*
X012232Y019257D01*
X012206Y019252D01*
X012180Y019250D01*
X011680Y019250D01*
X011654Y019252D01*
X011628Y019257D01*
X011603Y019265D01*
X011580Y019277D01*
X011558Y019291D01*
X011539Y019309D01*
X011521Y019328D01*
X011507Y019350D01*
X011495Y019373D01*
X011487Y019398D01*
X011482Y019424D01*
X011480Y019450D01*
X011480Y020750D01*
X011482Y020776D01*
X011487Y020802D01*
X011495Y020827D01*
X011507Y020850D01*
X011521Y020872D01*
X011539Y020891D01*
X011558Y020909D01*
X011580Y020923D01*
X011603Y020935D01*
X011628Y020943D01*
X011654Y020948D01*
X011680Y020950D01*
X012180Y020950D01*
X012206Y020948D01*
X012232Y020943D01*
X012257Y020935D01*
X012280Y020923D01*
X012302Y020909D01*
X012321Y020891D01*
X012339Y020872D01*
X012353Y020850D01*
X012365Y020827D01*
X012373Y020802D01*
X012378Y020776D01*
X012380Y020750D01*
X011275Y020350D02*
X010835Y020350D01*
X011055Y020130D01*
X011055Y020424D01*
X011202Y019963D02*
X011275Y019890D01*
X011275Y019743D01*
X011202Y019670D01*
X010908Y019670D01*
X010835Y019743D01*
X010835Y019890D01*
X010908Y019963D01*
X009549Y018997D02*
X009549Y018924D01*
X009476Y018850D01*
X009329Y018850D01*
X009256Y018924D01*
X009256Y018997D01*
X009329Y019070D01*
X009476Y019070D01*
X009549Y018997D01*
X009476Y018850D02*
X009549Y018777D01*
X009549Y018703D01*
X009476Y018630D01*
X009329Y018630D01*
X009256Y018703D01*
X009256Y018777D01*
X009329Y018850D01*
X009089Y018777D02*
X009089Y018703D01*
X009016Y018630D01*
X008869Y018630D01*
X008795Y018703D01*
X008795Y018777D01*
X008869Y018850D01*
X009016Y018850D01*
X009089Y018777D01*
X009016Y018850D02*
X009089Y018924D01*
X009089Y018997D01*
X009016Y019070D01*
X008869Y019070D01*
X008795Y018997D01*
X008795Y018924D01*
X008869Y018850D01*
X008629Y018703D02*
X008555Y018630D01*
X008408Y018630D01*
X008335Y018703D01*
X008629Y018997D01*
X008629Y018703D01*
X008629Y018997D02*
X008555Y019070D01*
X008408Y019070D01*
X008335Y018997D01*
X008335Y018703D01*
X008168Y018703D02*
X008095Y018630D01*
X007948Y018630D01*
X007875Y018703D01*
X007875Y018850D02*
X008021Y018924D01*
X008095Y018924D01*
X008168Y018850D01*
X008168Y018703D01*
X007875Y018850D02*
X007875Y019070D01*
X008168Y019070D01*
X007708Y019070D02*
X007708Y018630D01*
X007414Y019070D01*
X007414Y018630D01*
X007247Y018630D02*
X006954Y018630D01*
X007247Y018924D01*
X007247Y018997D01*
X007174Y019070D01*
X007027Y019070D01*
X006954Y018997D01*
X007073Y019255D02*
X007000Y019328D01*
X007000Y019622D01*
X007073Y019695D01*
X007220Y019695D01*
X007293Y019622D01*
X007293Y019328D01*
X007220Y019255D01*
X007073Y019255D01*
X007146Y019402D02*
X007293Y019255D01*
X007460Y019328D02*
X007533Y019255D01*
X007680Y019255D01*
X007754Y019328D01*
X007754Y019402D01*
X007680Y019475D01*
X007607Y019475D01*
X007680Y019475D02*
X007754Y019549D01*
X007754Y019622D01*
X007680Y019695D01*
X007533Y019695D01*
X007460Y019622D01*
X006830Y020400D02*
X006680Y020400D01*
X006630Y020450D01*
X004730Y020450D01*
X004680Y020400D01*
X004530Y020400D01*
X004513Y020402D01*
X004496Y020406D01*
X004480Y020413D01*
X004466Y020423D01*
X004453Y020436D01*
X004443Y020450D01*
X004436Y020466D01*
X004432Y020483D01*
X004430Y020500D01*
X004430Y021200D01*
X004432Y021217D01*
X004436Y021234D01*
X004443Y021250D01*
X004453Y021264D01*
X004466Y021277D01*
X004480Y021287D01*
X004496Y021294D01*
X004513Y021298D01*
X004530Y021300D01*
X004680Y021300D01*
X004730Y021250D01*
X006630Y021250D01*
X006680Y021300D01*
X006830Y021300D01*
X006847Y021298D01*
X006864Y021294D01*
X006880Y021287D01*
X006894Y021277D01*
X006907Y021264D01*
X006917Y021250D01*
X006924Y021234D01*
X006928Y021217D01*
X006930Y021200D01*
X006930Y020500D01*
X006928Y020483D01*
X006924Y020466D01*
X006917Y020450D01*
X006907Y020436D01*
X006894Y020423D01*
X006880Y020413D01*
X006864Y020406D01*
X006847Y020402D01*
X006830Y020400D01*
X006429Y020630D02*
X006209Y020777D01*
X006429Y020924D01*
X006209Y021070D02*
X006209Y020630D01*
X006042Y020703D02*
X006042Y020997D01*
X005748Y020703D01*
X005822Y020630D01*
X005969Y020630D01*
X006042Y020703D01*
X005748Y020703D02*
X005748Y020997D01*
X005822Y021070D01*
X005969Y021070D01*
X006042Y020997D01*
X005582Y020997D02*
X005288Y020703D01*
X005361Y020630D01*
X005508Y020630D01*
X005582Y020703D01*
X005582Y020997D01*
X005508Y021070D01*
X005361Y021070D01*
X005288Y020997D01*
X005288Y020703D01*
X005121Y020630D02*
X004828Y020630D01*
X004974Y020630D02*
X004974Y021070D01*
X004828Y020924D01*
X004680Y021400D02*
X004730Y021450D01*
X006630Y021450D01*
X006680Y021400D01*
X006830Y021400D01*
X006847Y021402D01*
X006864Y021406D01*
X006880Y021413D01*
X006894Y021423D01*
X006907Y021436D01*
X006917Y021450D01*
X006924Y021466D01*
X006928Y021483D01*
X006930Y021500D01*
X006930Y022200D01*
X006928Y022217D01*
X006924Y022234D01*
X006917Y022250D01*
X006907Y022264D01*
X006894Y022277D01*
X006880Y022287D01*
X006864Y022294D01*
X006847Y022298D01*
X006830Y022300D01*
X006680Y022300D01*
X006630Y022250D01*
X004730Y022250D01*
X004680Y022300D01*
X004530Y022300D01*
X004513Y022298D01*
X004496Y022294D01*
X004480Y022287D01*
X004466Y022277D01*
X004453Y022264D01*
X004443Y022250D01*
X004436Y022234D01*
X004432Y022217D01*
X004430Y022200D01*
X004430Y021500D01*
X004432Y021483D01*
X004436Y021466D01*
X004443Y021450D01*
X004453Y021436D01*
X004466Y021423D01*
X004480Y021413D01*
X004496Y021406D01*
X004513Y021402D01*
X004530Y021400D01*
X004680Y021400D01*
X005058Y021640D02*
X005351Y021640D01*
X005205Y021640D02*
X005205Y022080D01*
X005058Y021934D01*
X005518Y022007D02*
X005518Y021713D01*
X005812Y022007D01*
X005812Y021713D01*
X005738Y021640D01*
X005592Y021640D01*
X005518Y021713D01*
X005518Y022007D02*
X005592Y022080D01*
X005738Y022080D01*
X005812Y022007D01*
X005979Y022080D02*
X005979Y021640D01*
X005979Y021787D02*
X006199Y021934D01*
X005979Y021787D02*
X006199Y021640D01*
X008250Y021630D02*
X008250Y022070D01*
X008470Y022070D01*
X008543Y021997D01*
X008543Y021850D01*
X008470Y021777D01*
X008250Y021777D01*
X008396Y021777D02*
X008543Y021630D01*
X008710Y021703D02*
X008783Y021630D01*
X008930Y021630D01*
X009004Y021703D01*
X009004Y021777D01*
X008930Y021850D01*
X008710Y021850D01*
X008710Y021703D01*
X008710Y021850D02*
X008857Y021997D01*
X009004Y022070D01*
X009004Y020820D02*
X008710Y020820D01*
X008710Y020600D01*
X008857Y020674D01*
X008930Y020674D01*
X009004Y020600D01*
X009004Y020453D01*
X008930Y020380D01*
X008783Y020380D01*
X008710Y020453D01*
X008543Y020380D02*
X008396Y020527D01*
X008470Y020527D02*
X008250Y020527D01*
X008250Y020380D02*
X008250Y020820D01*
X008470Y020820D01*
X008543Y020747D01*
X008543Y020600D01*
X008470Y020527D01*
X006830Y018050D02*
X006680Y018050D01*
X006630Y018000D01*
X004730Y018000D01*
X004680Y018050D01*
X004530Y018050D01*
X004513Y018048D01*
X004496Y018044D01*
X004480Y018037D01*
X004466Y018027D01*
X004453Y018014D01*
X004443Y018000D01*
X004436Y017984D01*
X004432Y017967D01*
X004430Y017950D01*
X004430Y017250D01*
X004432Y017233D01*
X004436Y017216D01*
X004443Y017200D01*
X004453Y017186D01*
X004466Y017173D01*
X004480Y017163D01*
X004496Y017156D01*
X004513Y017152D01*
X004530Y017150D01*
X004680Y017150D01*
X004730Y017200D01*
X006630Y017200D01*
X006680Y017150D01*
X006830Y017150D01*
X006847Y017152D01*
X006864Y017156D01*
X006880Y017163D01*
X006894Y017173D01*
X006907Y017186D01*
X006917Y017200D01*
X006924Y017216D01*
X006928Y017233D01*
X006930Y017250D01*
X006930Y017950D01*
X006928Y017967D01*
X006924Y017984D01*
X006917Y018000D01*
X006907Y018014D01*
X006894Y018027D01*
X006880Y018037D01*
X006864Y018044D01*
X006847Y018048D01*
X006830Y018050D01*
X006199Y017674D02*
X005979Y017527D01*
X006199Y017380D01*
X005979Y017380D02*
X005979Y017820D01*
X005812Y017747D02*
X005518Y017453D01*
X005592Y017380D01*
X005738Y017380D01*
X005812Y017453D01*
X005812Y017747D01*
X005738Y017820D01*
X005592Y017820D01*
X005518Y017747D01*
X005518Y017453D01*
X005351Y017380D02*
X005058Y017380D01*
X005205Y017380D02*
X005205Y017820D01*
X005058Y017674D01*
X004680Y017050D02*
X004530Y017050D01*
X004513Y017048D01*
X004496Y017044D01*
X004480Y017037D01*
X004466Y017027D01*
X004453Y017014D01*
X004443Y017000D01*
X004436Y016984D01*
X004432Y016967D01*
X004430Y016950D01*
X004430Y016250D01*
X004432Y016233D01*
X004436Y016216D01*
X004443Y016200D01*
X004453Y016186D01*
X004466Y016173D01*
X004480Y016163D01*
X004496Y016156D01*
X004513Y016152D01*
X004530Y016150D01*
X004680Y016150D01*
X004730Y016200D01*
X006630Y016200D01*
X006680Y016150D01*
X006830Y016150D01*
X006847Y016152D01*
X006864Y016156D01*
X006880Y016163D01*
X006894Y016173D01*
X006907Y016186D01*
X006917Y016200D01*
X006924Y016216D01*
X006928Y016233D01*
X006930Y016250D01*
X006930Y016950D01*
X006928Y016967D01*
X006924Y016984D01*
X006917Y017000D01*
X006907Y017014D01*
X006894Y017027D01*
X006880Y017037D01*
X006864Y017044D01*
X006847Y017048D01*
X006830Y017050D01*
X006680Y017050D01*
X006630Y017000D01*
X004730Y017000D01*
X004680Y017050D01*
X004974Y016820D02*
X004974Y016380D01*
X004828Y016380D02*
X005121Y016380D01*
X005288Y016453D02*
X005582Y016747D01*
X005582Y016453D01*
X005508Y016380D01*
X005361Y016380D01*
X005288Y016453D01*
X005288Y016747D01*
X005361Y016820D01*
X005508Y016820D01*
X005582Y016747D01*
X005748Y016747D02*
X005822Y016820D01*
X005969Y016820D01*
X006042Y016747D01*
X005748Y016453D01*
X005822Y016380D01*
X005969Y016380D01*
X006042Y016453D01*
X006042Y016747D01*
X006209Y016820D02*
X006209Y016380D01*
X006209Y016527D02*
X006429Y016674D01*
X006209Y016527D02*
X006429Y016380D01*
X005748Y016453D02*
X005748Y016747D01*
X004974Y016820D02*
X004828Y016674D01*
X008125Y016820D02*
X008125Y016380D01*
X008125Y016527D02*
X008345Y016527D01*
X008418Y016600D01*
X008418Y016747D01*
X008345Y016820D01*
X008125Y016820D01*
X008271Y016527D02*
X008418Y016380D01*
X008585Y016453D02*
X008658Y016380D01*
X008805Y016380D01*
X008879Y016453D01*
X008879Y016527D01*
X008805Y016600D01*
X008732Y016600D01*
X008805Y016600D02*
X008879Y016674D01*
X008879Y016747D01*
X008805Y016820D01*
X008658Y016820D01*
X008585Y016747D01*
X008418Y017380D02*
X008271Y017527D01*
X008345Y017527D02*
X008125Y017527D01*
X008125Y017380D02*
X008125Y017820D01*
X008345Y017820D01*
X008418Y017747D01*
X008418Y017600D01*
X008345Y017527D01*
X008585Y017600D02*
X008879Y017600D01*
X008805Y017380D02*
X008805Y017820D01*
X008585Y017600D01*
X012930Y023950D02*
X012930Y024700D01*
X012969Y024702D01*
X013008Y024708D01*
X013046Y024717D01*
X013083Y024730D01*
X013119Y024747D01*
X013152Y024767D01*
X013184Y024791D01*
X013213Y024817D01*
X013239Y024846D01*
X013263Y024878D01*
X013283Y024911D01*
X013300Y024947D01*
X013313Y024984D01*
X013322Y025022D01*
X013328Y025061D01*
X013330Y025100D01*
X013328Y025139D01*
X013322Y025178D01*
X013313Y025216D01*
X013300Y025253D01*
X013283Y025289D01*
X013263Y025322D01*
X013239Y025354D01*
X013213Y025383D01*
X013184Y025409D01*
X013152Y025433D01*
X013119Y025453D01*
X013083Y025470D01*
X013046Y025483D01*
X013008Y025492D01*
X012969Y025498D01*
X012930Y025500D01*
X012930Y026250D01*
X019930Y026250D01*
X019930Y023950D01*
X012930Y023950D01*
X012180Y024250D02*
X011680Y024250D01*
X011654Y024252D01*
X011628Y024257D01*
X011603Y024265D01*
X011580Y024277D01*
X011558Y024291D01*
X011539Y024309D01*
X011521Y024328D01*
X011507Y024350D01*
X011495Y024373D01*
X011487Y024398D01*
X011482Y024424D01*
X011480Y024450D01*
X011480Y025750D01*
X011482Y025776D01*
X011487Y025802D01*
X011495Y025827D01*
X011507Y025850D01*
X011521Y025872D01*
X011539Y025891D01*
X011558Y025909D01*
X011580Y025923D01*
X011603Y025935D01*
X011628Y025943D01*
X011654Y025948D01*
X011680Y025950D01*
X012180Y025950D01*
X012206Y025948D01*
X012232Y025943D01*
X012257Y025935D01*
X012280Y025923D01*
X012302Y025909D01*
X012321Y025891D01*
X012339Y025872D01*
X012353Y025850D01*
X012365Y025827D01*
X012373Y025802D01*
X012378Y025776D01*
X012380Y025750D01*
X012380Y024450D01*
X012378Y024424D01*
X012373Y024398D01*
X012365Y024373D01*
X012353Y024350D01*
X012339Y024328D01*
X012321Y024309D01*
X012302Y024291D01*
X012280Y024277D01*
X012257Y024265D01*
X012232Y024257D01*
X012206Y024252D01*
X012180Y024250D01*
X011275Y024743D02*
X011275Y024890D01*
X011202Y024963D01*
X011202Y025130D02*
X011275Y025203D01*
X011275Y025350D01*
X011202Y025424D01*
X011055Y025424D01*
X010981Y025350D01*
X010981Y025277D01*
X011055Y025130D01*
X010835Y025130D01*
X010835Y025424D01*
X010908Y024963D02*
X010835Y024890D01*
X010835Y024743D01*
X010908Y024670D01*
X011202Y024670D01*
X011275Y024743D01*
X015539Y024880D02*
X015539Y024953D01*
X015833Y025247D01*
X015833Y025320D01*
X015539Y025320D01*
X016000Y025100D02*
X016293Y025100D01*
X016460Y024953D02*
X016460Y024880D01*
X016460Y024953D02*
X016754Y025247D01*
X016754Y025320D01*
X016460Y025320D01*
X016220Y025320D02*
X016000Y025100D01*
X016220Y024880D02*
X016220Y025320D01*
X016920Y025100D02*
X017214Y025100D01*
X017141Y024880D02*
X017141Y025320D01*
X016920Y025100D01*
X020210Y025130D02*
X020430Y025130D01*
X020356Y025277D01*
X020356Y025350D01*
X020430Y025424D01*
X020577Y025424D01*
X020650Y025350D01*
X020650Y025203D01*
X020577Y025130D01*
X020577Y024963D02*
X020210Y024963D01*
X020210Y025130D02*
X020210Y025424D01*
X020577Y024963D02*
X020650Y024890D01*
X020650Y024743D01*
X020577Y024670D01*
X020210Y024670D01*
X022335Y024660D02*
X022335Y024513D01*
X022408Y024439D01*
X022702Y024439D01*
X022775Y024513D01*
X022775Y024660D01*
X022702Y024733D01*
X022775Y024900D02*
X022775Y025193D01*
X022775Y025047D02*
X022335Y025047D01*
X022481Y024900D01*
X022408Y024733D02*
X022335Y024660D01*
X022980Y024450D02*
X022980Y025750D01*
X022982Y025776D01*
X022987Y025802D01*
X022995Y025827D01*
X023007Y025850D01*
X023021Y025872D01*
X023039Y025891D01*
X023058Y025909D01*
X023080Y025923D01*
X023103Y025935D01*
X023128Y025943D01*
X023154Y025948D01*
X023180Y025950D01*
X023680Y025950D01*
X023706Y025948D01*
X023732Y025943D01*
X023757Y025935D01*
X023780Y025923D01*
X023802Y025909D01*
X023821Y025891D01*
X023839Y025872D01*
X023853Y025850D01*
X023865Y025827D01*
X023873Y025802D01*
X023878Y025776D01*
X023880Y025750D01*
X023880Y024450D01*
X023878Y024424D01*
X023873Y024398D01*
X023865Y024373D01*
X023853Y024350D01*
X023839Y024328D01*
X023821Y024309D01*
X023802Y024291D01*
X023780Y024277D01*
X023757Y024265D01*
X023732Y024257D01*
X023706Y024252D01*
X023680Y024250D01*
X023180Y024250D01*
X023154Y024252D01*
X023128Y024257D01*
X023103Y024265D01*
X023080Y024277D01*
X023058Y024291D01*
X023039Y024309D01*
X023021Y024328D01*
X023007Y024350D01*
X022995Y024373D01*
X022987Y024398D01*
X022982Y024424D01*
X022980Y024450D01*
X024430Y024700D02*
X024430Y023950D01*
X034430Y023950D01*
X034430Y026250D01*
X024430Y026250D01*
X024430Y025500D01*
X024469Y025498D01*
X024508Y025492D01*
X024546Y025483D01*
X024583Y025470D01*
X024619Y025453D01*
X024652Y025433D01*
X024684Y025409D01*
X024713Y025383D01*
X024739Y025354D01*
X024763Y025322D01*
X024783Y025289D01*
X024800Y025253D01*
X024813Y025216D01*
X024822Y025178D01*
X024828Y025139D01*
X024830Y025100D01*
X024828Y025061D01*
X024822Y025022D01*
X024813Y024984D01*
X024800Y024947D01*
X024783Y024911D01*
X024763Y024878D01*
X024739Y024846D01*
X024713Y024817D01*
X024684Y024791D01*
X024652Y024767D01*
X024619Y024747D01*
X024583Y024730D01*
X024546Y024717D01*
X024508Y024708D01*
X024469Y024702D01*
X024430Y024700D01*
X022775Y025360D02*
X022775Y025654D01*
X022775Y025507D02*
X022335Y025507D01*
X022481Y025360D01*
X028309Y025320D02*
X028603Y025320D01*
X028603Y025247D01*
X028309Y024953D01*
X028309Y024880D01*
X028769Y025100D02*
X029063Y025100D01*
X029230Y025247D02*
X029303Y025320D01*
X029450Y025320D01*
X029523Y025247D01*
X029523Y025174D01*
X029230Y024880D01*
X029523Y024880D01*
X029690Y024880D02*
X029690Y024953D01*
X029984Y025247D01*
X029984Y025320D01*
X029690Y025320D01*
X030151Y025247D02*
X030224Y025320D01*
X030371Y025320D01*
X030444Y025247D01*
X030444Y025174D01*
X030371Y025100D01*
X030444Y025027D01*
X030444Y024953D01*
X030371Y024880D01*
X030224Y024880D01*
X030151Y024953D01*
X030297Y025100D02*
X030371Y025100D01*
X028990Y024880D02*
X028990Y025320D01*
X028769Y025100D01*
X034710Y025047D02*
X035150Y025047D01*
X035150Y025193D02*
X035150Y024900D01*
X035077Y024733D02*
X034710Y024733D01*
X034856Y024900D02*
X034710Y025047D01*
X034856Y025360D02*
X034710Y025507D01*
X035150Y025507D01*
X035150Y025360D02*
X035150Y025654D01*
X035077Y024733D02*
X035150Y024660D01*
X035150Y024513D01*
X035077Y024439D01*
X034710Y024439D01*
X036335Y024513D02*
X036408Y024439D01*
X036702Y024439D01*
X036775Y024513D01*
X036775Y024660D01*
X036702Y024733D01*
X036775Y024900D02*
X036775Y025193D01*
X036775Y025047D02*
X036335Y025047D01*
X036481Y024900D01*
X036408Y024733D02*
X036335Y024660D01*
X036335Y024513D01*
X036980Y024450D02*
X036980Y025750D01*
X036982Y025776D01*
X036987Y025802D01*
X036995Y025827D01*
X037007Y025850D01*
X037021Y025872D01*
X037039Y025891D01*
X037058Y025909D01*
X037080Y025923D01*
X037103Y025935D01*
X037128Y025943D01*
X037154Y025948D01*
X037180Y025950D01*
X037680Y025950D01*
X037706Y025948D01*
X037732Y025943D01*
X037757Y025935D01*
X037780Y025923D01*
X037802Y025909D01*
X037821Y025891D01*
X037839Y025872D01*
X037853Y025850D01*
X037865Y025827D01*
X037873Y025802D01*
X037878Y025776D01*
X037880Y025750D01*
X037880Y024450D01*
X037878Y024424D01*
X037873Y024398D01*
X037865Y024373D01*
X037853Y024350D01*
X037839Y024328D01*
X037821Y024309D01*
X037802Y024291D01*
X037780Y024277D01*
X037757Y024265D01*
X037732Y024257D01*
X037706Y024252D01*
X037680Y024250D01*
X037180Y024250D01*
X037154Y024252D01*
X037128Y024257D01*
X037103Y024265D01*
X037080Y024277D01*
X037058Y024291D01*
X037039Y024309D01*
X037021Y024328D01*
X037007Y024350D01*
X036995Y024373D01*
X036987Y024398D01*
X036982Y024424D01*
X036980Y024450D01*
X036775Y025360D02*
X036702Y025360D01*
X036408Y025654D01*
X036335Y025654D01*
X036335Y025360D01*
X038430Y025500D02*
X038430Y026250D01*
X048430Y026250D01*
X048430Y023950D01*
X038430Y023950D01*
X038430Y024700D01*
X038469Y024702D01*
X038508Y024708D01*
X038546Y024717D01*
X038583Y024730D01*
X038619Y024747D01*
X038652Y024767D01*
X038684Y024791D01*
X038713Y024817D01*
X038739Y024846D01*
X038763Y024878D01*
X038783Y024911D01*
X038800Y024947D01*
X038813Y024984D01*
X038822Y025022D01*
X038828Y025061D01*
X038830Y025100D01*
X038828Y025139D01*
X038822Y025178D01*
X038813Y025216D01*
X038800Y025253D01*
X038783Y025289D01*
X038763Y025322D01*
X038739Y025354D01*
X038713Y025383D01*
X038684Y025409D01*
X038652Y025433D01*
X038619Y025453D01*
X038583Y025470D01*
X038546Y025483D01*
X038508Y025492D01*
X038469Y025498D01*
X038430Y025500D01*
X042309Y025320D02*
X042603Y025320D01*
X042603Y025247D01*
X042309Y024953D01*
X042309Y024880D01*
X042769Y025100D02*
X042990Y025320D01*
X042990Y024880D01*
X043063Y025100D02*
X042769Y025100D01*
X043230Y025247D02*
X043303Y025320D01*
X043450Y025320D01*
X043523Y025247D01*
X043523Y025174D01*
X043230Y024880D01*
X043523Y024880D01*
X043690Y025100D02*
X043984Y025100D01*
X044151Y024953D02*
X044444Y025247D01*
X044444Y024953D01*
X044371Y024880D01*
X044224Y024880D01*
X044151Y024953D01*
X044151Y025247D01*
X044224Y025320D01*
X044371Y025320D01*
X044444Y025247D01*
X043910Y025320D02*
X043690Y025100D01*
X043910Y024880D02*
X043910Y025320D01*
X047960Y023155D02*
X048180Y022935D01*
X048180Y023229D01*
X048400Y023155D02*
X047960Y023155D01*
X048033Y022768D02*
X048106Y022768D01*
X048180Y022695D01*
X048253Y022768D01*
X048327Y022768D01*
X048400Y022695D01*
X048400Y022548D01*
X048327Y022475D01*
X048327Y022308D02*
X048400Y022235D01*
X048400Y022088D01*
X048327Y022014D01*
X048033Y022014D01*
X047960Y022088D01*
X047960Y022235D01*
X048033Y022308D01*
X048033Y022475D02*
X047960Y022548D01*
X047960Y022695D01*
X048033Y022768D01*
X048180Y022695D02*
X048180Y022622D01*
X048893Y022050D02*
X048993Y022050D01*
X048993Y022150D01*
X048993Y022050D02*
X049093Y022050D01*
X048993Y022050D02*
X048993Y021950D01*
X048555Y022600D02*
X048557Y022663D01*
X048563Y022725D01*
X048573Y022787D01*
X048586Y022849D01*
X048604Y022909D01*
X048625Y022968D01*
X048650Y023026D01*
X048679Y023082D01*
X048711Y023136D01*
X048746Y023188D01*
X048784Y023237D01*
X048826Y023285D01*
X048870Y023329D01*
X048918Y023371D01*
X048967Y023409D01*
X049019Y023444D01*
X049073Y023476D01*
X049129Y023505D01*
X049187Y023530D01*
X049246Y023551D01*
X049306Y023569D01*
X049368Y023582D01*
X049430Y023592D01*
X049492Y023598D01*
X049555Y023600D01*
X049618Y023598D01*
X049680Y023592D01*
X049742Y023582D01*
X049804Y023569D01*
X049864Y023551D01*
X049923Y023530D01*
X049981Y023505D01*
X050037Y023476D01*
X050091Y023444D01*
X050143Y023409D01*
X050192Y023371D01*
X050240Y023329D01*
X050284Y023285D01*
X050326Y023237D01*
X050364Y023188D01*
X050399Y023136D01*
X050431Y023082D01*
X050460Y023026D01*
X050485Y022968D01*
X050506Y022909D01*
X050524Y022849D01*
X050537Y022787D01*
X050547Y022725D01*
X050553Y022663D01*
X050555Y022600D01*
X050553Y022537D01*
X050547Y022475D01*
X050537Y022413D01*
X050524Y022351D01*
X050506Y022291D01*
X050485Y022232D01*
X050460Y022174D01*
X050431Y022118D01*
X050399Y022064D01*
X050364Y022012D01*
X050326Y021963D01*
X050284Y021915D01*
X050240Y021871D01*
X050192Y021829D01*
X050143Y021791D01*
X050091Y021756D01*
X050037Y021724D01*
X049981Y021695D01*
X049923Y021670D01*
X049864Y021649D01*
X049804Y021631D01*
X049742Y021618D01*
X049680Y021608D01*
X049618Y021602D01*
X049555Y021600D01*
X049492Y021602D01*
X049430Y021608D01*
X049368Y021618D01*
X049306Y021631D01*
X049246Y021649D01*
X049187Y021670D01*
X049129Y021695D01*
X049073Y021724D01*
X049019Y021756D01*
X048967Y021791D01*
X048918Y021829D01*
X048870Y021871D01*
X048826Y021915D01*
X048784Y021963D01*
X048746Y022012D01*
X048711Y022064D01*
X048679Y022118D01*
X048650Y022174D01*
X048625Y022232D01*
X048604Y022291D01*
X048586Y022351D01*
X048573Y022413D01*
X048563Y022475D01*
X048557Y022537D01*
X048555Y022600D01*
X048714Y023705D02*
X049008Y023705D01*
X048861Y023705D02*
X048861Y024145D01*
X048714Y023999D01*
X048710Y024439D02*
X049077Y024439D01*
X049150Y024513D01*
X049150Y024660D01*
X049077Y024733D01*
X048710Y024733D01*
X048856Y024900D02*
X048710Y025047D01*
X049150Y025047D01*
X049150Y025193D02*
X049150Y024900D01*
X049150Y025360D02*
X049077Y025360D01*
X048783Y025654D01*
X048710Y025654D01*
X048710Y025360D01*
X049643Y024925D02*
X049743Y024925D01*
X049743Y025025D01*
X049743Y024925D02*
X049843Y024925D01*
X049743Y024925D02*
X049743Y024825D01*
X049395Y024145D02*
X049468Y024072D01*
X049175Y023778D01*
X049248Y023705D01*
X049395Y023705D01*
X049468Y023778D01*
X049468Y024072D01*
X049395Y024145D02*
X049248Y024145D01*
X049175Y024072D01*
X049175Y023778D01*
X049635Y023778D02*
X049635Y023999D01*
X049635Y023778D02*
X049708Y023705D01*
X049929Y023705D01*
X049929Y023999D01*
X050095Y023925D02*
X050242Y023925D01*
X050095Y023705D02*
X050095Y024145D01*
X050389Y024145D01*
X051460Y024106D02*
X051606Y023959D01*
X051460Y024106D02*
X051900Y024106D01*
X051900Y023959D02*
X051900Y024253D01*
X051827Y024420D02*
X051533Y024713D01*
X051827Y024713D01*
X051900Y024640D01*
X051900Y024493D01*
X051827Y024420D01*
X051533Y024420D01*
X051460Y024493D01*
X051460Y024640D01*
X051533Y024713D01*
X051606Y024880D02*
X051827Y024880D01*
X051900Y024953D01*
X051900Y025174D01*
X051606Y025174D01*
X051680Y025340D02*
X051680Y025487D01*
X051900Y025340D02*
X051460Y025340D01*
X051460Y025634D01*
X051365Y026380D02*
X051218Y026380D01*
X051144Y026453D01*
X051144Y026820D01*
X051438Y026820D02*
X051438Y026453D01*
X051365Y026380D01*
X051605Y026380D02*
X051898Y026674D01*
X051898Y026747D01*
X051825Y026820D01*
X051678Y026820D01*
X051605Y026747D01*
X051605Y026380D02*
X051898Y026380D01*
X052065Y026453D02*
X052139Y026380D01*
X052285Y026380D01*
X052359Y026453D01*
X052359Y026747D01*
X052285Y026820D01*
X052139Y026820D01*
X052065Y026747D01*
X052065Y026674D01*
X052139Y026600D01*
X052359Y026600D01*
X052830Y027100D02*
X050530Y027100D01*
X050530Y031100D01*
X051280Y031100D01*
X051282Y031061D01*
X051288Y031022D01*
X051297Y030984D01*
X051310Y030947D01*
X051327Y030911D01*
X051347Y030878D01*
X051371Y030846D01*
X051397Y030817D01*
X051426Y030791D01*
X051458Y030767D01*
X051491Y030747D01*
X051527Y030730D01*
X051564Y030717D01*
X051602Y030708D01*
X051641Y030702D01*
X051680Y030700D01*
X051719Y030702D01*
X051758Y030708D01*
X051796Y030717D01*
X051833Y030730D01*
X051869Y030747D01*
X051902Y030767D01*
X051934Y030791D01*
X051963Y030817D01*
X051989Y030846D01*
X052013Y030878D01*
X052033Y030911D01*
X052050Y030947D01*
X052063Y030984D01*
X052072Y031022D01*
X052078Y031061D01*
X052080Y031100D01*
X052830Y031100D01*
X052830Y027100D01*
X051900Y028126D02*
X051460Y028126D01*
X051460Y027979D02*
X051460Y028273D01*
X051533Y028439D02*
X051827Y028439D01*
X051900Y028513D01*
X051900Y028660D01*
X051827Y028733D01*
X051827Y028900D02*
X051900Y028973D01*
X051900Y029120D01*
X051827Y029193D01*
X051533Y029193D01*
X051460Y029120D01*
X051460Y028973D01*
X051533Y028900D01*
X051606Y028900D01*
X051680Y028973D01*
X051680Y029193D01*
X051680Y029360D02*
X051680Y029580D01*
X051753Y029654D01*
X051827Y029654D01*
X051900Y029580D01*
X051900Y029434D01*
X051827Y029360D01*
X051680Y029360D01*
X051533Y029507D01*
X051460Y029654D01*
X051533Y029821D02*
X051460Y029894D01*
X051460Y030041D01*
X051533Y030114D01*
X051606Y030114D01*
X051900Y029821D01*
X051900Y030114D01*
X052330Y031650D02*
X051030Y031650D01*
X051004Y031652D01*
X050978Y031657D01*
X050953Y031665D01*
X050930Y031677D01*
X050908Y031691D01*
X050889Y031709D01*
X050871Y031728D01*
X050857Y031750D01*
X050845Y031773D01*
X050837Y031798D01*
X050832Y031824D01*
X050830Y031850D01*
X050830Y032350D01*
X050832Y032376D01*
X050837Y032402D01*
X050845Y032427D01*
X050857Y032450D01*
X050871Y032472D01*
X050889Y032491D01*
X050908Y032509D01*
X050930Y032523D01*
X050953Y032535D01*
X050978Y032543D01*
X051004Y032548D01*
X051030Y032550D01*
X052330Y032550D01*
X052356Y032548D01*
X052382Y032543D01*
X052407Y032535D01*
X052430Y032523D01*
X052452Y032509D01*
X052471Y032491D01*
X052489Y032472D01*
X052503Y032450D01*
X052515Y032427D01*
X052523Y032402D01*
X052528Y032376D01*
X052530Y032350D01*
X052530Y031850D01*
X052528Y031824D01*
X052523Y031798D01*
X052515Y031773D01*
X052503Y031750D01*
X052489Y031728D01*
X052471Y031709D01*
X052452Y031691D01*
X052430Y031677D01*
X052407Y031665D01*
X052382Y031657D01*
X052356Y031652D01*
X052330Y031650D01*
X052160Y032755D02*
X052014Y032755D01*
X051940Y032828D01*
X052234Y033122D01*
X052234Y032828D01*
X052160Y032755D01*
X051940Y032828D02*
X051940Y033122D01*
X052014Y033195D01*
X052160Y033195D01*
X052234Y033122D01*
X051773Y032975D02*
X051480Y032975D01*
X051700Y033195D01*
X051700Y032755D01*
X051313Y032828D02*
X051240Y032755D01*
X051093Y032755D01*
X051019Y032828D01*
X051019Y033122D01*
X051093Y033195D01*
X051240Y033195D01*
X051313Y033122D01*
X048859Y031122D02*
X048859Y031049D01*
X048785Y030975D01*
X048639Y030975D01*
X048565Y031049D01*
X048565Y031122D01*
X048639Y031195D01*
X048785Y031195D01*
X048859Y031122D01*
X048785Y030975D02*
X048859Y030902D01*
X048859Y030828D01*
X048785Y030755D01*
X048639Y030755D01*
X048565Y030828D01*
X048565Y030902D01*
X048639Y030975D01*
X048398Y030902D02*
X048398Y030828D01*
X048325Y030755D01*
X048178Y030755D01*
X048105Y030828D01*
X047938Y030828D02*
X047865Y030755D01*
X047718Y030755D01*
X047644Y030828D01*
X047644Y031122D01*
X047718Y031195D01*
X047865Y031195D01*
X047938Y031122D01*
X048105Y031122D02*
X048178Y031195D01*
X048325Y031195D01*
X048398Y031122D01*
X048398Y031049D01*
X048325Y030975D01*
X048398Y030902D01*
X048325Y030975D02*
X048252Y030975D01*
X048868Y030250D02*
X048868Y030150D01*
X048968Y030150D01*
X048868Y030150D02*
X048868Y030050D01*
X048868Y030150D02*
X048768Y030150D01*
X047305Y029600D02*
X047307Y029663D01*
X047313Y029725D01*
X047323Y029787D01*
X047336Y029849D01*
X047354Y029909D01*
X047375Y029968D01*
X047400Y030026D01*
X047429Y030082D01*
X047461Y030136D01*
X047496Y030188D01*
X047534Y030237D01*
X047576Y030285D01*
X047620Y030329D01*
X047668Y030371D01*
X047717Y030409D01*
X047769Y030444D01*
X047823Y030476D01*
X047879Y030505D01*
X047937Y030530D01*
X047996Y030551D01*
X048056Y030569D01*
X048118Y030582D01*
X048180Y030592D01*
X048242Y030598D01*
X048305Y030600D01*
X048368Y030598D01*
X048430Y030592D01*
X048492Y030582D01*
X048554Y030569D01*
X048614Y030551D01*
X048673Y030530D01*
X048731Y030505D01*
X048787Y030476D01*
X048841Y030444D01*
X048893Y030409D01*
X048942Y030371D01*
X048990Y030329D01*
X049034Y030285D01*
X049076Y030237D01*
X049114Y030188D01*
X049149Y030136D01*
X049181Y030082D01*
X049210Y030026D01*
X049235Y029968D01*
X049256Y029909D01*
X049274Y029849D01*
X049287Y029787D01*
X049297Y029725D01*
X049303Y029663D01*
X049305Y029600D01*
X049303Y029537D01*
X049297Y029475D01*
X049287Y029413D01*
X049274Y029351D01*
X049256Y029291D01*
X049235Y029232D01*
X049210Y029174D01*
X049181Y029118D01*
X049149Y029064D01*
X049114Y029012D01*
X049076Y028963D01*
X049034Y028915D01*
X048990Y028871D01*
X048942Y028829D01*
X048893Y028791D01*
X048841Y028756D01*
X048787Y028724D01*
X048731Y028695D01*
X048673Y028670D01*
X048614Y028649D01*
X048554Y028631D01*
X048492Y028618D01*
X048430Y028608D01*
X048368Y028602D01*
X048305Y028600D01*
X048242Y028602D01*
X048180Y028608D01*
X048118Y028618D01*
X048056Y028631D01*
X047996Y028649D01*
X047937Y028670D01*
X047879Y028695D01*
X047823Y028724D01*
X047769Y028756D01*
X047717Y028791D01*
X047668Y028829D01*
X047620Y028871D01*
X047576Y028915D01*
X047534Y028963D01*
X047496Y029012D01*
X047461Y029064D01*
X047429Y029118D01*
X047400Y029174D01*
X047375Y029232D01*
X047354Y029291D01*
X047336Y029351D01*
X047323Y029413D01*
X047313Y029475D01*
X047307Y029537D01*
X047305Y029600D01*
X046150Y029660D02*
X046077Y029733D01*
X045710Y029733D01*
X045856Y029900D02*
X045710Y030047D01*
X046150Y030047D01*
X046150Y030193D02*
X046150Y029900D01*
X046150Y029660D02*
X046150Y029513D01*
X046077Y029439D01*
X045710Y029439D01*
X045430Y028950D02*
X045430Y031250D01*
X038430Y031250D01*
X038430Y030500D01*
X038469Y030498D01*
X038508Y030492D01*
X038546Y030483D01*
X038583Y030470D01*
X038619Y030453D01*
X038652Y030433D01*
X038684Y030409D01*
X038713Y030383D01*
X038739Y030354D01*
X038763Y030322D01*
X038783Y030289D01*
X038800Y030253D01*
X038813Y030216D01*
X038822Y030178D01*
X038828Y030139D01*
X038830Y030100D01*
X038828Y030061D01*
X038822Y030022D01*
X038813Y029984D01*
X038800Y029947D01*
X038783Y029911D01*
X038763Y029878D01*
X038739Y029846D01*
X038713Y029817D01*
X038684Y029791D01*
X038652Y029767D01*
X038619Y029747D01*
X038583Y029730D01*
X038546Y029717D01*
X038508Y029708D01*
X038469Y029702D01*
X038430Y029700D01*
X038430Y028950D01*
X045430Y028950D01*
X047414Y028299D02*
X047561Y028445D01*
X047561Y028005D01*
X047414Y028005D02*
X047708Y028005D01*
X047875Y028078D02*
X048168Y028372D01*
X048168Y028078D01*
X048095Y028005D01*
X047948Y028005D01*
X047875Y028078D01*
X047875Y028372D01*
X047948Y028445D01*
X048095Y028445D01*
X048168Y028372D01*
X048335Y028299D02*
X048335Y028078D01*
X048408Y028005D01*
X048629Y028005D01*
X048629Y028299D01*
X048795Y028225D02*
X048942Y028225D01*
X048795Y028005D02*
X048795Y028445D01*
X049089Y028445D01*
X049343Y027070D02*
X049269Y026997D01*
X049269Y026703D01*
X049343Y026630D01*
X049490Y026630D01*
X049563Y026703D01*
X049730Y026703D02*
X049803Y026630D01*
X049950Y026630D01*
X050023Y026703D01*
X050023Y026777D01*
X049950Y026850D01*
X049877Y026850D01*
X049950Y026850D02*
X050023Y026924D01*
X050023Y026997D01*
X049950Y027070D01*
X049803Y027070D01*
X049730Y026997D01*
X049563Y026997D02*
X049490Y027070D01*
X049343Y027070D01*
X050190Y026997D02*
X050190Y026924D01*
X050264Y026850D01*
X050484Y026850D01*
X050484Y026703D02*
X050484Y026997D01*
X050410Y027070D01*
X050264Y027070D01*
X050190Y026997D01*
X050190Y026703D02*
X050264Y026630D01*
X050410Y026630D01*
X050484Y026703D01*
X049305Y025475D02*
X049307Y025538D01*
X049313Y025600D01*
X049323Y025662D01*
X049336Y025724D01*
X049354Y025784D01*
X049375Y025843D01*
X049400Y025901D01*
X049429Y025957D01*
X049461Y026011D01*
X049496Y026063D01*
X049534Y026112D01*
X049576Y026160D01*
X049620Y026204D01*
X049668Y026246D01*
X049717Y026284D01*
X049769Y026319D01*
X049823Y026351D01*
X049879Y026380D01*
X049937Y026405D01*
X049996Y026426D01*
X050056Y026444D01*
X050118Y026457D01*
X050180Y026467D01*
X050242Y026473D01*
X050305Y026475D01*
X050368Y026473D01*
X050430Y026467D01*
X050492Y026457D01*
X050554Y026444D01*
X050614Y026426D01*
X050673Y026405D01*
X050731Y026380D01*
X050787Y026351D01*
X050841Y026319D01*
X050893Y026284D01*
X050942Y026246D01*
X050990Y026204D01*
X051034Y026160D01*
X051076Y026112D01*
X051114Y026063D01*
X051149Y026011D01*
X051181Y025957D01*
X051210Y025901D01*
X051235Y025843D01*
X051256Y025784D01*
X051274Y025724D01*
X051287Y025662D01*
X051297Y025600D01*
X051303Y025538D01*
X051305Y025475D01*
X051303Y025412D01*
X051297Y025350D01*
X051287Y025288D01*
X051274Y025226D01*
X051256Y025166D01*
X051235Y025107D01*
X051210Y025049D01*
X051181Y024993D01*
X051149Y024939D01*
X051114Y024887D01*
X051076Y024838D01*
X051034Y024790D01*
X050990Y024746D01*
X050942Y024704D01*
X050893Y024666D01*
X050841Y024631D01*
X050787Y024599D01*
X050731Y024570D01*
X050673Y024545D01*
X050614Y024524D01*
X050554Y024506D01*
X050492Y024493D01*
X050430Y024483D01*
X050368Y024477D01*
X050305Y024475D01*
X050242Y024477D01*
X050180Y024483D01*
X050118Y024493D01*
X050056Y024506D01*
X049996Y024524D01*
X049937Y024545D01*
X049879Y024570D01*
X049823Y024599D01*
X049769Y024631D01*
X049717Y024666D01*
X049668Y024704D01*
X049620Y024746D01*
X049576Y024790D01*
X049534Y024838D01*
X049496Y024887D01*
X049461Y024939D01*
X049429Y024993D01*
X049400Y025049D01*
X049375Y025107D01*
X049354Y025166D01*
X049336Y025226D01*
X049323Y025288D01*
X049313Y025350D01*
X049307Y025412D01*
X049305Y025475D01*
X051093Y023195D02*
X051019Y023122D01*
X051019Y022828D01*
X051093Y022755D01*
X051240Y022755D01*
X051313Y022828D01*
X051480Y022755D02*
X051773Y023049D01*
X051773Y023122D01*
X051700Y023195D01*
X051553Y023195D01*
X051480Y023122D01*
X051313Y023122D02*
X051240Y023195D01*
X051093Y023195D01*
X051480Y022755D02*
X051773Y022755D01*
X051940Y022755D02*
X052234Y023049D01*
X052234Y023122D01*
X052160Y023195D01*
X052014Y023195D01*
X051940Y023122D01*
X051940Y022755D02*
X052234Y022755D01*
X052330Y022550D02*
X051030Y022550D01*
X051004Y022548D01*
X050978Y022543D01*
X050953Y022535D01*
X050930Y022523D01*
X050908Y022509D01*
X050889Y022491D01*
X050871Y022472D01*
X050857Y022450D01*
X050845Y022427D01*
X050837Y022402D01*
X050832Y022376D01*
X050830Y022350D01*
X050830Y021850D01*
X050832Y021824D01*
X050837Y021798D01*
X050845Y021773D01*
X050857Y021750D01*
X050871Y021728D01*
X050889Y021709D01*
X050908Y021691D01*
X050930Y021677D01*
X050953Y021665D01*
X050978Y021657D01*
X051004Y021652D01*
X051030Y021650D01*
X052330Y021650D01*
X052356Y021652D01*
X052382Y021657D01*
X052407Y021665D01*
X052430Y021677D01*
X052452Y021691D01*
X052471Y021709D01*
X052489Y021728D01*
X052503Y021750D01*
X052515Y021773D01*
X052523Y021798D01*
X052528Y021824D01*
X052530Y021850D01*
X052530Y022350D01*
X052528Y022376D01*
X052523Y022402D01*
X052515Y022427D01*
X052503Y022450D01*
X052489Y022472D01*
X052471Y022491D01*
X052452Y022509D01*
X052430Y022523D01*
X052407Y022535D01*
X052382Y022543D01*
X052356Y022548D01*
X052330Y022550D01*
X052080Y021100D02*
X052830Y021100D01*
X052830Y014100D01*
X050530Y014100D01*
X050530Y021100D01*
X051280Y021100D01*
X051282Y021061D01*
X051288Y021022D01*
X051297Y020984D01*
X051310Y020947D01*
X051327Y020911D01*
X051347Y020878D01*
X051371Y020846D01*
X051397Y020817D01*
X051426Y020791D01*
X051458Y020767D01*
X051491Y020747D01*
X051527Y020730D01*
X051564Y020717D01*
X051602Y020708D01*
X051641Y020702D01*
X051680Y020700D01*
X051719Y020702D01*
X051758Y020708D01*
X051796Y020717D01*
X051833Y020730D01*
X051869Y020747D01*
X051902Y020767D01*
X051934Y020791D01*
X051963Y020817D01*
X051989Y020846D01*
X052013Y020878D01*
X052033Y020911D01*
X052050Y020947D01*
X052063Y020984D01*
X052072Y021022D01*
X052078Y021061D01*
X052080Y021100D01*
X049150Y020580D02*
X049150Y020434D01*
X049077Y020360D01*
X048930Y020360D01*
X048930Y020580D01*
X049003Y020654D01*
X049077Y020654D01*
X049150Y020580D01*
X048930Y020360D02*
X048783Y020507D01*
X048710Y020654D01*
X049150Y020193D02*
X049150Y019900D01*
X049150Y020047D02*
X048710Y020047D01*
X048856Y019900D01*
X048710Y019733D02*
X049077Y019733D01*
X049150Y019660D01*
X049150Y019513D01*
X049077Y019439D01*
X048710Y019439D01*
X051460Y018321D02*
X051680Y018100D01*
X051680Y018394D01*
X051900Y018321D02*
X051460Y018321D01*
X051533Y017934D02*
X051827Y017640D01*
X051900Y017713D01*
X051900Y017860D01*
X051827Y017934D01*
X051533Y017934D01*
X051460Y017860D01*
X051460Y017713D01*
X051533Y017640D01*
X051827Y017640D01*
X051680Y017473D02*
X051680Y017180D01*
X051460Y017400D01*
X051900Y017400D01*
X051533Y017013D02*
X051827Y016719D01*
X051900Y016719D01*
X051460Y016719D02*
X051460Y017013D01*
X051533Y017013D01*
X049150Y015580D02*
X049150Y015434D01*
X049077Y015360D01*
X048930Y015360D02*
X048856Y015507D01*
X048856Y015580D01*
X048930Y015654D01*
X049077Y015654D01*
X049150Y015580D01*
X048930Y015360D02*
X048710Y015360D01*
X048710Y015654D01*
X048710Y015047D02*
X049150Y015047D01*
X049150Y015193D02*
X049150Y014900D01*
X049077Y014733D02*
X048710Y014733D01*
X048856Y014900D02*
X048710Y015047D01*
X049077Y014733D02*
X049150Y014660D01*
X049150Y014513D01*
X049077Y014439D01*
X048710Y014439D01*
X051019Y013820D02*
X051019Y013453D01*
X051093Y013380D01*
X051240Y013380D01*
X051313Y013453D01*
X051313Y013820D01*
X051480Y013747D02*
X051553Y013820D01*
X051700Y013820D01*
X051773Y013747D01*
X051773Y013674D01*
X051480Y013380D01*
X051773Y013380D01*
X051940Y013380D02*
X052234Y013674D01*
X052234Y013747D01*
X052160Y013820D01*
X052014Y013820D01*
X051940Y013747D01*
X051940Y013380D02*
X052234Y013380D01*
X058580Y014750D02*
X058580Y023100D01*
X059180Y023700D01*
X067530Y023700D01*
X067560Y023698D01*
X067590Y023693D01*
X067619Y023684D01*
X067646Y023671D01*
X067672Y023656D01*
X067696Y023637D01*
X067717Y023616D01*
X067736Y023592D01*
X067751Y023566D01*
X067764Y023539D01*
X067773Y023510D01*
X067778Y023480D01*
X067780Y023450D01*
X067780Y014750D01*
X067778Y014720D01*
X067773Y014690D01*
X067764Y014661D01*
X067751Y014634D01*
X067736Y014608D01*
X067717Y014584D01*
X067696Y014563D01*
X067672Y014544D01*
X067646Y014529D01*
X067619Y014516D01*
X067590Y014507D01*
X067560Y014502D01*
X067530Y014500D01*
X058830Y014500D01*
X058800Y014502D01*
X058770Y014507D01*
X058741Y014516D01*
X058714Y014529D01*
X058688Y014544D01*
X058664Y014563D01*
X058643Y014584D01*
X058624Y014608D01*
X058609Y014634D01*
X058596Y014661D01*
X058587Y014690D01*
X058582Y014720D01*
X058580Y014750D01*
X062519Y014195D02*
X062519Y013828D01*
X062593Y013755D01*
X062740Y013755D01*
X062813Y013828D01*
X062813Y014195D01*
X062980Y014122D02*
X063053Y014195D01*
X063200Y014195D01*
X063273Y014122D01*
X063273Y014049D01*
X062980Y013755D01*
X063273Y013755D01*
X063440Y013975D02*
X063734Y013975D01*
X063660Y013755D02*
X063660Y014195D01*
X063440Y013975D01*
X065434Y014049D02*
X065581Y014195D01*
X065581Y013755D01*
X065434Y013755D02*
X065728Y013755D01*
X065894Y013828D02*
X065968Y013755D01*
X066115Y013755D01*
X066188Y013828D01*
X066188Y013902D01*
X066115Y013975D01*
X065894Y013975D01*
X065894Y013828D01*
X065894Y013975D02*
X066041Y014122D01*
X066188Y014195D01*
X066355Y014195D02*
X066355Y013975D01*
X066502Y014049D01*
X066575Y014049D01*
X066648Y013975D01*
X066648Y013828D01*
X066575Y013755D01*
X066428Y013755D01*
X066355Y013828D01*
X066355Y014195D02*
X066648Y014195D01*
X066815Y014195D02*
X066815Y013975D01*
X066962Y014049D01*
X067035Y014049D01*
X067109Y013975D01*
X067109Y013828D01*
X067035Y013755D01*
X066889Y013755D01*
X066815Y013828D01*
X066815Y014195D02*
X067109Y014195D01*
X067276Y014122D02*
X067276Y013828D01*
X067569Y014122D01*
X067569Y013828D01*
X067496Y013755D01*
X067349Y013755D01*
X067276Y013828D01*
X067276Y014122D02*
X067349Y014195D01*
X067496Y014195D01*
X067569Y014122D01*
X070530Y015100D02*
X071280Y015100D01*
X071282Y015139D01*
X071288Y015178D01*
X071297Y015216D01*
X071310Y015253D01*
X071327Y015289D01*
X071347Y015322D01*
X071371Y015354D01*
X071397Y015383D01*
X071426Y015409D01*
X071458Y015433D01*
X071491Y015453D01*
X071527Y015470D01*
X071564Y015483D01*
X071602Y015492D01*
X071641Y015498D01*
X071680Y015500D01*
X071719Y015498D01*
X071758Y015492D01*
X071796Y015483D01*
X071833Y015470D01*
X071869Y015453D01*
X071902Y015433D01*
X071934Y015409D01*
X071963Y015383D01*
X071989Y015354D01*
X072013Y015322D01*
X072033Y015289D01*
X072050Y015253D01*
X072063Y015216D01*
X072072Y015178D01*
X072078Y015139D01*
X072080Y015100D01*
X072830Y015100D01*
X072830Y025100D01*
X070530Y025100D01*
X070530Y015100D01*
X071030Y014550D02*
X072330Y014550D01*
X072356Y014548D01*
X072382Y014543D01*
X072407Y014535D01*
X072430Y014523D01*
X072452Y014509D01*
X072471Y014491D01*
X072489Y014472D01*
X072503Y014450D01*
X072515Y014427D01*
X072523Y014402D01*
X072528Y014376D01*
X072530Y014350D01*
X072530Y013850D01*
X072528Y013824D01*
X072523Y013798D01*
X072515Y013773D01*
X072503Y013750D01*
X072489Y013728D01*
X072471Y013709D01*
X072452Y013691D01*
X072430Y013677D01*
X072407Y013665D01*
X072382Y013657D01*
X072356Y013652D01*
X072330Y013650D01*
X071030Y013650D01*
X071004Y013652D01*
X070978Y013657D01*
X070953Y013665D01*
X070930Y013677D01*
X070908Y013691D01*
X070889Y013709D01*
X070871Y013728D01*
X070857Y013750D01*
X070845Y013773D01*
X070837Y013798D01*
X070832Y013824D01*
X070830Y013850D01*
X070830Y014350D01*
X070832Y014376D01*
X070837Y014402D01*
X070845Y014427D01*
X070857Y014450D01*
X070871Y014472D01*
X070889Y014491D01*
X070908Y014509D01*
X070930Y014523D01*
X070953Y014535D01*
X070978Y014543D01*
X071004Y014548D01*
X071030Y014550D01*
X071093Y013445D02*
X071019Y013372D01*
X071019Y013078D01*
X071093Y013005D01*
X071240Y013005D01*
X071313Y013078D01*
X071480Y013005D02*
X071773Y013299D01*
X071773Y013372D01*
X071700Y013445D01*
X071553Y013445D01*
X071480Y013372D01*
X071313Y013372D02*
X071240Y013445D01*
X071093Y013445D01*
X071480Y013005D02*
X071773Y013005D01*
X071940Y013078D02*
X072014Y013005D01*
X072160Y013005D01*
X072234Y013078D01*
X072234Y013152D01*
X072160Y013225D01*
X071940Y013225D01*
X071940Y013078D01*
X071940Y013225D02*
X072087Y013372D01*
X072234Y013445D01*
X073519Y012070D02*
X073813Y012070D01*
X073666Y012070D02*
X073666Y011630D01*
X073980Y011630D02*
X073980Y012070D01*
X074200Y012070D01*
X074273Y011997D01*
X074273Y011850D01*
X074200Y011777D01*
X073980Y011777D01*
X074440Y011924D02*
X074587Y012070D01*
X074587Y011630D01*
X074440Y011630D02*
X074734Y011630D01*
X074660Y011070D02*
X074514Y011070D01*
X074440Y010997D01*
X074273Y010997D02*
X074273Y010850D01*
X074200Y010777D01*
X073980Y010777D01*
X073980Y010630D02*
X073980Y011070D01*
X074200Y011070D01*
X074273Y010997D01*
X074660Y011070D02*
X074734Y010997D01*
X074734Y010924D01*
X074440Y010630D01*
X074734Y010630D01*
X073813Y011070D02*
X073519Y011070D01*
X073666Y011070D02*
X073666Y010630D01*
X074408Y009654D02*
X074481Y009654D01*
X074555Y009580D01*
X074628Y009654D01*
X074702Y009654D01*
X074775Y009580D01*
X074775Y009434D01*
X074702Y009360D01*
X074702Y009193D02*
X074775Y009120D01*
X074775Y008973D01*
X074702Y008900D01*
X074702Y008733D02*
X074775Y008660D01*
X074775Y008513D01*
X074702Y008439D01*
X074408Y008439D01*
X074335Y008513D01*
X074335Y008660D01*
X074408Y008733D01*
X074408Y008900D02*
X074335Y008973D01*
X074335Y009120D01*
X074408Y009193D01*
X074481Y009193D01*
X074555Y009120D01*
X074628Y009193D01*
X074702Y009193D01*
X074555Y009120D02*
X074555Y009047D01*
X074408Y009360D02*
X074335Y009434D01*
X074335Y009580D01*
X074408Y009654D01*
X074555Y009580D02*
X074555Y009507D01*
X074980Y009750D02*
X074980Y008450D01*
X074982Y008424D01*
X074987Y008398D01*
X074995Y008373D01*
X075007Y008350D01*
X075021Y008328D01*
X075039Y008309D01*
X075058Y008291D01*
X075080Y008277D01*
X075103Y008265D01*
X075128Y008257D01*
X075154Y008252D01*
X075180Y008250D01*
X075680Y008250D01*
X075706Y008252D01*
X075732Y008257D01*
X075757Y008265D01*
X075780Y008277D01*
X075802Y008291D01*
X075821Y008309D01*
X075839Y008328D01*
X075853Y008350D01*
X075865Y008373D01*
X075873Y008398D01*
X075878Y008424D01*
X075880Y008450D01*
X075880Y009750D01*
X075878Y009776D01*
X075873Y009802D01*
X075865Y009827D01*
X075853Y009850D01*
X075839Y009872D01*
X075821Y009891D01*
X075802Y009909D01*
X075780Y009923D01*
X075757Y009935D01*
X075732Y009943D01*
X075706Y009948D01*
X075680Y009950D01*
X075180Y009950D01*
X075154Y009948D01*
X075128Y009943D01*
X075103Y009935D01*
X075080Y009923D01*
X075058Y009909D01*
X075039Y009891D01*
X075021Y009872D01*
X075007Y009850D01*
X074995Y009827D01*
X074987Y009802D01*
X074982Y009776D01*
X074980Y009750D01*
X072680Y008250D02*
X072680Y005950D01*
X062680Y005950D01*
X062680Y006700D01*
X062719Y006702D01*
X062758Y006708D01*
X062796Y006717D01*
X062833Y006730D01*
X062869Y006747D01*
X062902Y006767D01*
X062934Y006791D01*
X062963Y006817D01*
X062989Y006846D01*
X063013Y006878D01*
X063033Y006911D01*
X063050Y006947D01*
X063063Y006984D01*
X063072Y007022D01*
X063078Y007061D01*
X063080Y007100D01*
X063078Y007139D01*
X063072Y007178D01*
X063063Y007216D01*
X063050Y007253D01*
X063033Y007289D01*
X063013Y007322D01*
X062989Y007354D01*
X062963Y007383D01*
X062934Y007409D01*
X062902Y007433D01*
X062869Y007453D01*
X062833Y007470D01*
X062796Y007483D01*
X062758Y007492D01*
X062719Y007498D01*
X062680Y007500D01*
X062680Y008250D01*
X072680Y008250D01*
X073033Y007654D02*
X073106Y007654D01*
X073180Y007580D01*
X073253Y007654D01*
X073327Y007654D01*
X073400Y007580D01*
X073400Y007434D01*
X073327Y007360D01*
X073400Y007193D02*
X073400Y006900D01*
X073106Y007193D01*
X073033Y007193D01*
X072960Y007120D01*
X072960Y006973D01*
X073033Y006900D01*
X072960Y006733D02*
X073327Y006733D01*
X073400Y006660D01*
X073400Y006513D01*
X073327Y006439D01*
X072960Y006439D01*
X073033Y007360D02*
X072960Y007434D01*
X072960Y007580D01*
X073033Y007654D01*
X073180Y007580D02*
X073180Y007507D01*
X076085Y007330D02*
X076305Y007110D01*
X076305Y007404D01*
X076525Y007330D02*
X076085Y007330D01*
X076158Y006943D02*
X076305Y006943D01*
X076378Y006870D01*
X076378Y006650D01*
X076525Y006650D02*
X076085Y006650D01*
X076085Y006870D01*
X076158Y006943D01*
X076085Y006483D02*
X076085Y006336D01*
X076085Y006410D02*
X076452Y006410D01*
X076525Y006336D01*
X076525Y006263D01*
X076452Y006189D01*
X077255Y006958D02*
X077328Y006885D01*
X077401Y006885D01*
X077475Y006958D01*
X077475Y007325D01*
X077548Y007325D02*
X077401Y007325D01*
X077715Y007252D02*
X077788Y007325D01*
X077935Y007325D01*
X078009Y007252D01*
X078009Y007179D01*
X077935Y007105D01*
X078009Y007032D01*
X078009Y006958D01*
X077935Y006885D01*
X077788Y006885D01*
X077715Y006958D01*
X077862Y007105D02*
X077935Y007105D01*
X068694Y007100D02*
X068694Y006953D01*
X068621Y006880D01*
X068474Y006880D01*
X068401Y006953D01*
X068401Y007100D02*
X068547Y007174D01*
X068621Y007174D01*
X068694Y007100D01*
X068694Y007320D02*
X068401Y007320D01*
X068401Y007100D01*
X068234Y007100D02*
X067940Y007100D01*
X068160Y007320D01*
X068160Y006880D01*
X067773Y006880D02*
X067480Y006880D01*
X067773Y007174D01*
X067773Y007247D01*
X067700Y007320D01*
X067553Y007320D01*
X067480Y007247D01*
X067313Y007100D02*
X067019Y007100D01*
X067240Y007320D01*
X067240Y006880D01*
X066853Y007247D02*
X066559Y006953D01*
X066559Y006880D01*
X066559Y007320D02*
X066853Y007320D01*
X066853Y007247D01*
X062130Y007750D02*
X062130Y006450D01*
X062128Y006424D01*
X062123Y006398D01*
X062115Y006373D01*
X062103Y006350D01*
X062089Y006328D01*
X062071Y006309D01*
X062052Y006291D01*
X062030Y006277D01*
X062007Y006265D01*
X061982Y006257D01*
X061956Y006252D01*
X061930Y006250D01*
X061430Y006250D01*
X061404Y006252D01*
X061378Y006257D01*
X061353Y006265D01*
X061330Y006277D01*
X061308Y006291D01*
X061289Y006309D01*
X061271Y006328D01*
X061257Y006350D01*
X061245Y006373D01*
X061237Y006398D01*
X061232Y006424D01*
X061230Y006450D01*
X061230Y007750D01*
X061232Y007776D01*
X061237Y007802D01*
X061245Y007827D01*
X061257Y007850D01*
X061271Y007872D01*
X061289Y007891D01*
X061308Y007909D01*
X061330Y007923D01*
X061353Y007935D01*
X061378Y007943D01*
X061404Y007948D01*
X061430Y007950D01*
X061930Y007950D01*
X061956Y007948D01*
X061982Y007943D01*
X062007Y007935D01*
X062030Y007923D01*
X062052Y007909D01*
X062071Y007891D01*
X062089Y007872D01*
X062103Y007850D01*
X062115Y007827D01*
X062123Y007802D01*
X062128Y007776D01*
X062130Y007750D01*
X061827Y008189D02*
X061900Y008263D01*
X061900Y008410D01*
X061827Y008483D01*
X061900Y008650D02*
X061606Y008943D01*
X061533Y008943D01*
X061460Y008870D01*
X061460Y008723D01*
X061533Y008650D01*
X061533Y008483D02*
X061460Y008410D01*
X061460Y008263D01*
X061533Y008189D01*
X061827Y008189D01*
X061900Y008650D02*
X061900Y008943D01*
X061827Y009110D02*
X061900Y009184D01*
X061900Y009330D01*
X061827Y009404D01*
X061753Y009404D01*
X061680Y009330D01*
X061680Y009257D01*
X061680Y009330D02*
X061606Y009404D01*
X061533Y009404D01*
X061460Y009330D01*
X061460Y009184D01*
X061533Y009110D01*
X060680Y008250D02*
X060680Y005950D01*
X050680Y005950D01*
X050680Y006700D01*
X050719Y006702D01*
X050758Y006708D01*
X050796Y006717D01*
X050833Y006730D01*
X050869Y006747D01*
X050902Y006767D01*
X050934Y006791D01*
X050963Y006817D01*
X050989Y006846D01*
X051013Y006878D01*
X051033Y006911D01*
X051050Y006947D01*
X051063Y006984D01*
X051072Y007022D01*
X051078Y007061D01*
X051080Y007100D01*
X051078Y007139D01*
X051072Y007178D01*
X051063Y007216D01*
X051050Y007253D01*
X051033Y007289D01*
X051013Y007322D01*
X050989Y007354D01*
X050963Y007383D01*
X050934Y007409D01*
X050902Y007433D01*
X050869Y007453D01*
X050833Y007470D01*
X050796Y007483D01*
X050758Y007492D01*
X050719Y007498D01*
X050680Y007500D01*
X050680Y008250D01*
X060680Y008250D01*
X056694Y007100D02*
X056401Y007100D01*
X056621Y007320D01*
X056621Y006880D01*
X056234Y007100D02*
X055940Y007100D01*
X056160Y007320D01*
X056160Y006880D01*
X055773Y006880D02*
X055480Y006880D01*
X055773Y007174D01*
X055773Y007247D01*
X055700Y007320D01*
X055553Y007320D01*
X055480Y007247D01*
X055313Y007100D02*
X055019Y007100D01*
X055240Y007320D01*
X055240Y006880D01*
X054853Y007247D02*
X054559Y006953D01*
X054559Y006880D01*
X054559Y007320D02*
X054853Y007320D01*
X054853Y007247D01*
X059094Y005045D02*
X059094Y004678D01*
X059168Y004605D01*
X059315Y004605D01*
X059388Y004678D01*
X059388Y005045D01*
X059555Y004972D02*
X059628Y005045D01*
X059775Y005045D01*
X059848Y004972D01*
X059848Y004899D01*
X059555Y004605D01*
X059848Y004605D01*
X060015Y004605D02*
X060309Y004605D01*
X060162Y004605D02*
X060162Y005045D01*
X060015Y004899D01*
X050130Y006450D02*
X050130Y007750D01*
X050128Y007776D01*
X050123Y007802D01*
X050115Y007827D01*
X050103Y007850D01*
X050089Y007872D01*
X050071Y007891D01*
X050052Y007909D01*
X050030Y007923D01*
X050007Y007935D01*
X049982Y007943D01*
X049956Y007948D01*
X049930Y007950D01*
X049430Y007950D01*
X049404Y007948D01*
X049378Y007943D01*
X049353Y007935D01*
X049330Y007923D01*
X049308Y007909D01*
X049289Y007891D01*
X049271Y007872D01*
X049257Y007850D01*
X049245Y007827D01*
X049237Y007802D01*
X049232Y007776D01*
X049230Y007750D01*
X049230Y006450D01*
X049232Y006424D01*
X049237Y006398D01*
X049245Y006373D01*
X049257Y006350D01*
X049271Y006328D01*
X049289Y006309D01*
X049308Y006291D01*
X049330Y006277D01*
X049353Y006265D01*
X049378Y006257D01*
X049404Y006252D01*
X049430Y006250D01*
X049930Y006250D01*
X049956Y006252D01*
X049982Y006257D01*
X050007Y006265D01*
X050030Y006277D01*
X050052Y006291D01*
X050071Y006309D01*
X050089Y006328D01*
X050103Y006350D01*
X050115Y006373D01*
X050123Y006398D01*
X050128Y006424D01*
X050130Y006450D01*
X049025Y006513D02*
X049025Y006660D01*
X048952Y006733D01*
X049025Y006900D02*
X048731Y007193D01*
X048658Y007193D01*
X048585Y007120D01*
X048585Y006973D01*
X048658Y006900D01*
X048658Y006733D02*
X048585Y006660D01*
X048585Y006513D01*
X048658Y006439D01*
X048952Y006439D01*
X049025Y006513D01*
X049025Y006900D02*
X049025Y007193D01*
X049025Y007360D02*
X049025Y007654D01*
X049025Y007507D02*
X048585Y007507D01*
X048731Y007360D01*
X047830Y006600D02*
X047530Y006600D01*
X047680Y006450D02*
X047680Y006750D01*
X044180Y007100D02*
X044182Y007198D01*
X044190Y007296D01*
X044202Y007393D01*
X044218Y007490D01*
X044240Y007586D01*
X044266Y007681D01*
X044297Y007774D01*
X044332Y007865D01*
X044372Y007955D01*
X044416Y008043D01*
X044465Y008128D01*
X044517Y008211D01*
X044574Y008291D01*
X044634Y008369D01*
X044698Y008443D01*
X044766Y008514D01*
X044837Y008582D01*
X044911Y008646D01*
X044989Y008706D01*
X045069Y008763D01*
X045152Y008815D01*
X045237Y008864D01*
X045325Y008908D01*
X045415Y008948D01*
X045506Y008983D01*
X045599Y009014D01*
X045694Y009040D01*
X045790Y009062D01*
X045887Y009078D01*
X045984Y009090D01*
X046082Y009098D01*
X046180Y009100D01*
X046278Y009098D01*
X046376Y009090D01*
X046473Y009078D01*
X046570Y009062D01*
X046666Y009040D01*
X046761Y009014D01*
X046854Y008983D01*
X046945Y008948D01*
X047035Y008908D01*
X047123Y008864D01*
X047208Y008815D01*
X047291Y008763D01*
X047371Y008706D01*
X047449Y008646D01*
X047523Y008582D01*
X047594Y008514D01*
X047662Y008443D01*
X047726Y008369D01*
X047786Y008291D01*
X047843Y008211D01*
X047895Y008128D01*
X047944Y008043D01*
X047988Y007955D01*
X048028Y007865D01*
X048063Y007774D01*
X048094Y007681D01*
X048120Y007586D01*
X048142Y007490D01*
X048158Y007393D01*
X048170Y007296D01*
X048178Y007198D01*
X048180Y007100D01*
X048178Y007002D01*
X048170Y006904D01*
X048158Y006807D01*
X048142Y006710D01*
X048120Y006614D01*
X048094Y006519D01*
X048063Y006426D01*
X048028Y006335D01*
X047988Y006245D01*
X047944Y006157D01*
X047895Y006072D01*
X047843Y005989D01*
X047786Y005909D01*
X047726Y005831D01*
X047662Y005757D01*
X047594Y005686D01*
X047523Y005618D01*
X047449Y005554D01*
X047371Y005494D01*
X047291Y005437D01*
X047208Y005385D01*
X047123Y005336D01*
X047035Y005292D01*
X046945Y005252D01*
X046854Y005217D01*
X046761Y005186D01*
X046666Y005160D01*
X046570Y005138D01*
X046473Y005122D01*
X046376Y005110D01*
X046278Y005102D01*
X046180Y005100D01*
X046082Y005102D01*
X045984Y005110D01*
X045887Y005122D01*
X045790Y005138D01*
X045694Y005160D01*
X045599Y005186D01*
X045506Y005217D01*
X045415Y005252D01*
X045325Y005292D01*
X045237Y005336D01*
X045152Y005385D01*
X045069Y005437D01*
X044989Y005494D01*
X044911Y005554D01*
X044837Y005618D01*
X044766Y005686D01*
X044698Y005757D01*
X044634Y005831D01*
X044574Y005909D01*
X044517Y005989D01*
X044465Y006072D01*
X044416Y006157D01*
X044372Y006245D01*
X044332Y006335D01*
X044297Y006426D01*
X044266Y006519D01*
X044240Y006614D01*
X044218Y006710D01*
X044202Y006807D01*
X044190Y006904D01*
X044182Y007002D01*
X044180Y007100D01*
X043430Y006750D02*
X043430Y004450D01*
X036430Y004450D01*
X036430Y005200D01*
X036469Y005202D01*
X036508Y005208D01*
X036546Y005217D01*
X036583Y005230D01*
X036619Y005247D01*
X036652Y005267D01*
X036684Y005291D01*
X036713Y005317D01*
X036739Y005346D01*
X036763Y005378D01*
X036783Y005411D01*
X036800Y005447D01*
X036813Y005484D01*
X036822Y005522D01*
X036828Y005561D01*
X036830Y005600D01*
X036828Y005639D01*
X036822Y005678D01*
X036813Y005716D01*
X036800Y005753D01*
X036783Y005789D01*
X036763Y005822D01*
X036739Y005854D01*
X036713Y005883D01*
X036684Y005909D01*
X036652Y005933D01*
X036619Y005953D01*
X036583Y005970D01*
X036546Y005983D01*
X036508Y005992D01*
X036469Y005998D01*
X036430Y006000D01*
X036430Y006750D01*
X043430Y006750D01*
X043783Y006154D02*
X043856Y006154D01*
X043930Y006080D01*
X043930Y005934D01*
X043856Y005860D01*
X043783Y005860D01*
X043710Y005934D01*
X043710Y006080D01*
X043783Y006154D01*
X043930Y006080D02*
X044003Y006154D01*
X044077Y006154D01*
X044150Y006080D01*
X044150Y005934D01*
X044077Y005860D01*
X044003Y005860D01*
X043930Y005934D01*
X043856Y005693D02*
X043783Y005693D01*
X043710Y005620D01*
X043710Y005473D01*
X043783Y005400D01*
X043710Y005233D02*
X044077Y005233D01*
X044150Y005160D01*
X044150Y005013D01*
X044077Y004939D01*
X043710Y004939D01*
X044150Y005400D02*
X043856Y005693D01*
X044150Y005693D02*
X044150Y005400D01*
X040714Y005600D02*
X040420Y005600D01*
X040641Y005820D01*
X040641Y005380D01*
X040254Y005380D02*
X039960Y005380D01*
X040107Y005380D02*
X040107Y005820D01*
X039960Y005674D01*
X039793Y005600D02*
X039500Y005600D01*
X039720Y005820D01*
X039720Y005380D01*
X039333Y005747D02*
X039039Y005453D01*
X039039Y005380D01*
X039039Y005820D02*
X039333Y005820D01*
X039333Y005747D01*
X035880Y006250D02*
X035880Y004950D01*
X035878Y004924D01*
X035873Y004898D01*
X035865Y004873D01*
X035853Y004850D01*
X035839Y004828D01*
X035821Y004809D01*
X035802Y004791D01*
X035780Y004777D01*
X035757Y004765D01*
X035732Y004757D01*
X035706Y004752D01*
X035680Y004750D01*
X035180Y004750D01*
X035154Y004752D01*
X035128Y004757D01*
X035103Y004765D01*
X035080Y004777D01*
X035058Y004791D01*
X035039Y004809D01*
X035021Y004828D01*
X035007Y004850D01*
X034995Y004873D01*
X034987Y004898D01*
X034982Y004924D01*
X034980Y004950D01*
X034980Y006250D01*
X034982Y006276D01*
X034987Y006302D01*
X034995Y006327D01*
X035007Y006350D01*
X035021Y006372D01*
X035039Y006391D01*
X035058Y006409D01*
X035080Y006423D01*
X035103Y006435D01*
X035128Y006443D01*
X035154Y006448D01*
X035180Y006450D01*
X035680Y006450D01*
X035706Y006448D01*
X035732Y006443D01*
X035757Y006435D01*
X035780Y006423D01*
X035802Y006409D01*
X035821Y006391D01*
X035839Y006372D01*
X035853Y006350D01*
X035865Y006327D01*
X035873Y006302D01*
X035878Y006276D01*
X035880Y006250D01*
X034775Y006080D02*
X034775Y005934D01*
X034702Y005860D01*
X034628Y005860D01*
X034555Y005934D01*
X034555Y006080D01*
X034628Y006154D01*
X034702Y006154D01*
X034775Y006080D01*
X034555Y006080D02*
X034481Y006154D01*
X034408Y006154D01*
X034335Y006080D01*
X034335Y005934D01*
X034408Y005860D01*
X034481Y005860D01*
X034555Y005934D01*
X034481Y005693D02*
X034408Y005693D01*
X034335Y005620D01*
X034335Y005473D01*
X034408Y005400D01*
X034408Y005233D02*
X034335Y005160D01*
X034335Y005013D01*
X034408Y004939D01*
X034702Y004939D01*
X034775Y005013D01*
X034775Y005160D01*
X034702Y005233D01*
X034775Y005400D02*
X034481Y005693D01*
X034775Y005693D02*
X034775Y005400D01*
X032430Y008950D02*
X032430Y011250D01*
X024430Y011250D01*
X024430Y010500D01*
X024469Y010498D01*
X024508Y010492D01*
X024546Y010483D01*
X024583Y010470D01*
X024619Y010453D01*
X024652Y010433D01*
X024684Y010409D01*
X024713Y010383D01*
X024739Y010354D01*
X024763Y010322D01*
X024783Y010289D01*
X024800Y010253D01*
X024813Y010216D01*
X024822Y010178D01*
X024828Y010139D01*
X024830Y010100D01*
X024828Y010061D01*
X024822Y010022D01*
X024813Y009984D01*
X024800Y009947D01*
X024783Y009911D01*
X024763Y009878D01*
X024739Y009846D01*
X024713Y009817D01*
X024684Y009791D01*
X024652Y009767D01*
X024619Y009747D01*
X024583Y009730D01*
X024546Y009717D01*
X024508Y009708D01*
X024469Y009702D01*
X024430Y009700D01*
X024430Y008950D01*
X032430Y008950D01*
X032710Y009670D02*
X033077Y009670D01*
X033150Y009743D01*
X033150Y009890D01*
X033077Y009963D01*
X032710Y009963D01*
X032783Y010130D02*
X032856Y010130D01*
X032930Y010203D01*
X032930Y010350D01*
X033003Y010424D01*
X033077Y010424D01*
X033150Y010350D01*
X033150Y010203D01*
X033077Y010130D01*
X033003Y010130D01*
X032930Y010203D01*
X032930Y010350D02*
X032856Y010424D01*
X032783Y010424D01*
X032710Y010350D01*
X032710Y010203D01*
X032783Y010130D01*
X029444Y010174D02*
X029371Y010100D01*
X029224Y010100D01*
X029151Y010174D01*
X029151Y010247D01*
X029224Y010320D01*
X029371Y010320D01*
X029444Y010247D01*
X029444Y010174D01*
X029371Y010100D02*
X029444Y010027D01*
X029444Y009953D01*
X029371Y009880D01*
X029224Y009880D01*
X029151Y009953D01*
X029151Y010027D01*
X029224Y010100D01*
X028984Y010027D02*
X028984Y009953D01*
X028910Y009880D01*
X028764Y009880D01*
X028690Y009953D01*
X028523Y009880D02*
X028230Y009880D01*
X028377Y009880D02*
X028377Y010320D01*
X028230Y010174D01*
X028063Y010100D02*
X027769Y010100D01*
X027990Y010320D01*
X027990Y009880D01*
X027603Y010247D02*
X027309Y009953D01*
X027309Y009880D01*
X027309Y010320D02*
X027603Y010320D01*
X027603Y010247D01*
X028690Y010247D02*
X028764Y010320D01*
X028910Y010320D01*
X028984Y010247D01*
X028984Y010174D01*
X028910Y010100D01*
X028984Y010027D01*
X028910Y010100D02*
X028837Y010100D01*
X023880Y009450D02*
X023880Y010750D01*
X023878Y010776D01*
X023873Y010802D01*
X023865Y010827D01*
X023853Y010850D01*
X023839Y010872D01*
X023821Y010891D01*
X023802Y010909D01*
X023780Y010923D01*
X023757Y010935D01*
X023732Y010943D01*
X023706Y010948D01*
X023680Y010950D01*
X023180Y010950D01*
X023154Y010948D01*
X023128Y010943D01*
X023103Y010935D01*
X023080Y010923D01*
X023058Y010909D01*
X023039Y010891D01*
X023021Y010872D01*
X023007Y010850D01*
X022995Y010827D01*
X022987Y010802D01*
X022982Y010776D01*
X022980Y010750D01*
X022980Y009450D01*
X022982Y009424D01*
X022987Y009398D01*
X022995Y009373D01*
X023007Y009350D01*
X023021Y009328D01*
X023039Y009309D01*
X023058Y009291D01*
X023080Y009277D01*
X023103Y009265D01*
X023128Y009257D01*
X023154Y009252D01*
X023180Y009250D01*
X023680Y009250D01*
X023706Y009252D01*
X023732Y009257D01*
X023757Y009265D01*
X023780Y009277D01*
X023802Y009291D01*
X023821Y009309D01*
X023839Y009328D01*
X023853Y009350D01*
X023865Y009373D01*
X023873Y009398D01*
X023878Y009424D01*
X023880Y009450D01*
X022775Y009743D02*
X022775Y009890D01*
X022702Y009963D01*
X022702Y010130D02*
X022628Y010130D01*
X022555Y010203D01*
X022555Y010350D01*
X022628Y010424D01*
X022702Y010424D01*
X022775Y010350D01*
X022775Y010203D01*
X022702Y010130D01*
X022555Y010203D02*
X022481Y010130D01*
X022408Y010130D01*
X022335Y010203D01*
X022335Y010350D01*
X022408Y010424D01*
X022481Y010424D01*
X022555Y010350D01*
X022408Y009963D02*
X022335Y009890D01*
X022335Y009743D01*
X022408Y009670D01*
X022702Y009670D01*
X022775Y009743D01*
X020650Y009743D02*
X020650Y009890D01*
X020577Y009963D01*
X020210Y009963D01*
X020283Y010130D02*
X020210Y010203D01*
X020210Y010350D01*
X020283Y010424D01*
X020356Y010424D01*
X020650Y010130D01*
X020650Y010424D01*
X020650Y009743D02*
X020577Y009670D01*
X020210Y009670D01*
X017214Y009953D02*
X017214Y010027D01*
X017141Y010100D01*
X016920Y010100D01*
X016920Y009953D01*
X016994Y009880D01*
X017141Y009880D01*
X017214Y009953D01*
X017067Y010247D02*
X016920Y010100D01*
X016754Y010027D02*
X016754Y009953D01*
X016680Y009880D01*
X016533Y009880D01*
X016460Y009953D01*
X016460Y010027D01*
X016533Y010100D01*
X016680Y010100D01*
X016754Y010027D01*
X016680Y010100D02*
X016754Y010174D01*
X016754Y010247D01*
X016680Y010320D01*
X016533Y010320D01*
X016460Y010247D01*
X016460Y010174D01*
X016533Y010100D01*
X016293Y010100D02*
X016000Y010100D01*
X016220Y010320D01*
X016220Y009880D01*
X015833Y010247D02*
X015539Y009953D01*
X015539Y009880D01*
X015539Y010320D02*
X015833Y010320D01*
X015833Y010247D01*
X017067Y010247D02*
X017214Y010320D01*
X042309Y015380D02*
X042309Y015453D01*
X042603Y015747D01*
X042603Y015820D01*
X042309Y015820D01*
X042769Y015600D02*
X043063Y015600D01*
X043230Y015747D02*
X043303Y015820D01*
X043450Y015820D01*
X043523Y015747D01*
X043523Y015674D01*
X043230Y015380D01*
X043523Y015380D01*
X043690Y015600D02*
X043984Y015600D01*
X044151Y015600D02*
X044444Y015600D01*
X044371Y015380D02*
X044371Y015820D01*
X044151Y015600D01*
X043910Y015380D02*
X043910Y015820D01*
X043690Y015600D01*
X042990Y015380D02*
X042990Y015820D01*
X042769Y015600D01*
X042990Y019880D02*
X042990Y020320D01*
X042769Y020100D01*
X043063Y020100D01*
X043230Y020247D02*
X043303Y020320D01*
X043450Y020320D01*
X043523Y020247D01*
X043523Y020174D01*
X043230Y019880D01*
X043523Y019880D01*
X043690Y020100D02*
X043984Y020100D01*
X044151Y020100D02*
X044444Y020100D01*
X044371Y019880D02*
X044371Y020320D01*
X044151Y020100D01*
X043910Y019880D02*
X043910Y020320D01*
X043690Y020100D01*
X042603Y020247D02*
X042309Y019953D01*
X042309Y019880D01*
X042309Y020320D02*
X042603Y020320D01*
X042603Y020247D01*
X056835Y018507D02*
X057275Y018507D01*
X057275Y018360D02*
X057275Y018654D01*
X056981Y018360D02*
X056835Y018507D01*
X056908Y018193D02*
X057055Y018193D01*
X057128Y018120D01*
X057128Y017900D01*
X057275Y017900D02*
X056835Y017900D01*
X056835Y018120D01*
X056908Y018193D01*
X056835Y017733D02*
X056835Y017586D01*
X056835Y017660D02*
X057202Y017660D01*
X057275Y017586D01*
X057275Y017513D01*
X057202Y017439D01*
X057580Y020350D02*
X058280Y020350D01*
X058297Y020352D01*
X058314Y020356D01*
X058330Y020363D01*
X058344Y020373D01*
X058357Y020386D01*
X058367Y020400D01*
X058374Y020416D01*
X058378Y020433D01*
X058380Y020450D01*
X058380Y020600D01*
X058330Y020650D01*
X058330Y022550D01*
X058380Y022600D01*
X058380Y022750D01*
X058378Y022767D01*
X058374Y022784D01*
X058367Y022800D01*
X058357Y022814D01*
X058344Y022827D01*
X058330Y022837D01*
X058314Y022844D01*
X058297Y022848D01*
X058280Y022850D01*
X057580Y022850D01*
X057563Y022848D01*
X057546Y022844D01*
X057530Y022837D01*
X057516Y022827D01*
X057503Y022814D01*
X057493Y022800D01*
X057486Y022784D01*
X057482Y022767D01*
X057480Y022750D01*
X057480Y022600D01*
X057530Y022550D01*
X057530Y020650D01*
X057480Y020600D01*
X057480Y020450D01*
X057482Y020433D01*
X057486Y020416D01*
X057493Y020400D01*
X057503Y020386D01*
X057516Y020373D01*
X057530Y020363D01*
X057546Y020356D01*
X057563Y020352D01*
X057580Y020350D01*
X057856Y020978D02*
X057710Y021125D01*
X058150Y021125D01*
X058150Y021271D02*
X058150Y020978D01*
X058077Y021438D02*
X057783Y021732D01*
X058077Y021732D01*
X058150Y021658D01*
X058150Y021512D01*
X058077Y021438D01*
X057783Y021438D01*
X057710Y021512D01*
X057710Y021658D01*
X057783Y021732D01*
X057710Y021899D02*
X058150Y021899D01*
X058003Y021899D02*
X057856Y022119D01*
X058003Y021899D02*
X058150Y022119D01*
X057400Y021850D02*
X057400Y021703D01*
X057327Y021630D01*
X057253Y021630D01*
X057180Y021703D01*
X057180Y021850D01*
X057253Y021924D01*
X057327Y021924D01*
X057400Y021850D01*
X057180Y021850D02*
X057106Y021924D01*
X057033Y021924D01*
X056960Y021850D01*
X056960Y021703D01*
X057033Y021630D01*
X057106Y021630D01*
X057180Y021703D01*
X057180Y021463D02*
X057253Y021390D01*
X057253Y021170D01*
X057253Y021316D02*
X057400Y021463D01*
X057180Y021463D02*
X057033Y021463D01*
X056960Y021390D01*
X056960Y021170D01*
X057400Y021170D01*
X062680Y020600D02*
X063180Y021100D01*
X063680Y020600D01*
X062680Y020600D01*
X062530Y024150D02*
X063830Y024150D01*
X063856Y024152D01*
X063882Y024157D01*
X063907Y024165D01*
X063930Y024177D01*
X063952Y024191D01*
X063971Y024209D01*
X063989Y024228D01*
X064003Y024250D01*
X064015Y024273D01*
X064023Y024298D01*
X064028Y024324D01*
X064030Y024350D01*
X064030Y024850D01*
X064028Y024876D01*
X064023Y024902D01*
X064015Y024927D01*
X064003Y024950D01*
X063989Y024972D01*
X063971Y024991D01*
X063952Y025009D01*
X063930Y025023D01*
X063907Y025035D01*
X063882Y025043D01*
X063856Y025048D01*
X063830Y025050D01*
X062530Y025050D01*
X062504Y025048D01*
X062478Y025043D01*
X062453Y025035D01*
X062430Y025023D01*
X062408Y025009D01*
X062389Y024991D01*
X062371Y024972D01*
X062357Y024950D01*
X062345Y024927D01*
X062337Y024902D01*
X062332Y024876D01*
X062330Y024850D01*
X062330Y024350D01*
X062332Y024324D01*
X062337Y024298D01*
X062345Y024273D01*
X062357Y024250D01*
X062371Y024228D01*
X062389Y024209D01*
X062408Y024191D01*
X062430Y024177D01*
X062453Y024165D01*
X062478Y024157D01*
X062504Y024152D01*
X062530Y024150D01*
X062593Y025255D02*
X062740Y025255D01*
X062813Y025328D01*
X062980Y025255D02*
X063273Y025549D01*
X063273Y025622D01*
X063200Y025695D01*
X063053Y025695D01*
X062980Y025622D01*
X062813Y025622D02*
X062740Y025695D01*
X062593Y025695D01*
X062519Y025622D01*
X062519Y025328D01*
X062593Y025255D01*
X062980Y025255D02*
X063273Y025255D01*
X063440Y025475D02*
X063734Y025475D01*
X063660Y025255D02*
X063660Y025695D01*
X063440Y025475D01*
X063514Y026630D02*
X063440Y026703D01*
X063514Y026630D02*
X063660Y026630D01*
X063734Y026703D01*
X063734Y026850D01*
X063660Y026924D01*
X063587Y026924D01*
X063440Y026850D01*
X063440Y027070D01*
X063734Y027070D01*
X063273Y026997D02*
X063200Y027070D01*
X063053Y027070D01*
X062980Y026997D01*
X062813Y027070D02*
X062813Y026703D01*
X062740Y026630D01*
X062593Y026630D01*
X062519Y026703D01*
X062519Y027070D01*
X062980Y026630D02*
X063273Y026924D01*
X063273Y026997D01*
X063273Y026630D02*
X062980Y026630D01*
X065434Y026630D02*
X065728Y026630D01*
X065581Y026630D02*
X065581Y027070D01*
X065434Y026924D01*
X065894Y026850D02*
X066115Y026850D01*
X066188Y026777D01*
X066188Y026703D01*
X066115Y026630D01*
X065968Y026630D01*
X065894Y026703D01*
X065894Y026850D01*
X066041Y026997D01*
X066188Y027070D01*
X066355Y027070D02*
X066355Y026850D01*
X066502Y026924D01*
X066575Y026924D01*
X066648Y026850D01*
X066648Y026703D01*
X066575Y026630D01*
X066428Y026630D01*
X066355Y026703D01*
X066355Y027070D02*
X066648Y027070D01*
X066815Y027070D02*
X066815Y026850D01*
X066962Y026924D01*
X067035Y026924D01*
X067109Y026850D01*
X067109Y026703D01*
X067035Y026630D01*
X066889Y026630D01*
X066815Y026703D01*
X066815Y027070D02*
X067109Y027070D01*
X067276Y026997D02*
X067349Y027070D01*
X067496Y027070D01*
X067569Y026997D01*
X067276Y026703D01*
X067349Y026630D01*
X067496Y026630D01*
X067569Y026703D01*
X067569Y026997D01*
X067276Y026997D02*
X067276Y026703D01*
X067530Y027375D02*
X058830Y027375D01*
X058800Y027377D01*
X058770Y027382D01*
X058741Y027391D01*
X058714Y027404D01*
X058688Y027419D01*
X058664Y027438D01*
X058643Y027459D01*
X058624Y027483D01*
X058609Y027509D01*
X058596Y027536D01*
X058587Y027565D01*
X058582Y027595D01*
X058580Y027625D01*
X058580Y035975D01*
X059180Y036575D01*
X067530Y036575D01*
X067560Y036573D01*
X067590Y036568D01*
X067619Y036559D01*
X067646Y036546D01*
X067672Y036531D01*
X067696Y036512D01*
X067717Y036491D01*
X067736Y036467D01*
X067751Y036441D01*
X067764Y036414D01*
X067773Y036385D01*
X067778Y036355D01*
X067780Y036325D01*
X067780Y027625D01*
X067778Y027595D01*
X067773Y027565D01*
X067764Y027536D01*
X067751Y027509D01*
X067736Y027483D01*
X067717Y027459D01*
X067696Y027438D01*
X067672Y027419D01*
X067646Y027404D01*
X067619Y027391D01*
X067590Y027382D01*
X067560Y027377D01*
X067530Y027375D01*
X070530Y027975D02*
X071280Y027975D01*
X071282Y028014D01*
X071288Y028053D01*
X071297Y028091D01*
X071310Y028128D01*
X071327Y028164D01*
X071347Y028197D01*
X071371Y028229D01*
X071397Y028258D01*
X071426Y028284D01*
X071458Y028308D01*
X071491Y028328D01*
X071527Y028345D01*
X071564Y028358D01*
X071602Y028367D01*
X071641Y028373D01*
X071680Y028375D01*
X071719Y028373D01*
X071758Y028367D01*
X071796Y028358D01*
X071833Y028345D01*
X071869Y028328D01*
X071902Y028308D01*
X071934Y028284D01*
X071963Y028258D01*
X071989Y028229D01*
X072013Y028197D01*
X072033Y028164D01*
X072050Y028128D01*
X072063Y028091D01*
X072072Y028053D01*
X072078Y028014D01*
X072080Y027975D01*
X072830Y027975D01*
X072830Y037975D01*
X070530Y037975D01*
X070530Y027975D01*
X071030Y027425D02*
X072330Y027425D01*
X072356Y027423D01*
X072382Y027418D01*
X072407Y027410D01*
X072430Y027398D01*
X072452Y027384D01*
X072471Y027366D01*
X072489Y027347D01*
X072503Y027325D01*
X072515Y027302D01*
X072523Y027277D01*
X072528Y027251D01*
X072530Y027225D01*
X072530Y026725D01*
X072528Y026699D01*
X072523Y026673D01*
X072515Y026648D01*
X072503Y026625D01*
X072489Y026603D01*
X072471Y026584D01*
X072452Y026566D01*
X072430Y026552D01*
X072407Y026540D01*
X072382Y026532D01*
X072356Y026527D01*
X072330Y026525D01*
X071030Y026525D01*
X071004Y026527D01*
X070978Y026532D01*
X070953Y026540D01*
X070930Y026552D01*
X070908Y026566D01*
X070889Y026584D01*
X070871Y026603D01*
X070857Y026625D01*
X070845Y026648D01*
X070837Y026673D01*
X070832Y026699D01*
X070830Y026725D01*
X070830Y027225D01*
X070832Y027251D01*
X070837Y027277D01*
X070845Y027302D01*
X070857Y027325D01*
X070871Y027347D01*
X070889Y027366D01*
X070908Y027384D01*
X070930Y027398D01*
X070953Y027410D01*
X070978Y027418D01*
X071004Y027423D01*
X071030Y027425D01*
X071093Y026320D02*
X071019Y026247D01*
X071019Y025953D01*
X071093Y025880D01*
X071240Y025880D01*
X071313Y025953D01*
X071480Y025880D02*
X071773Y026174D01*
X071773Y026247D01*
X071700Y026320D01*
X071553Y026320D01*
X071480Y026247D01*
X071313Y026247D02*
X071240Y026320D01*
X071093Y026320D01*
X071480Y025880D02*
X071773Y025880D01*
X071940Y025880D02*
X071940Y025953D01*
X072234Y026247D01*
X072234Y026320D01*
X071940Y026320D01*
X074394Y027203D02*
X074468Y027130D01*
X074541Y027130D01*
X074615Y027203D01*
X074615Y027570D01*
X074688Y027570D02*
X074541Y027570D01*
X074855Y027570D02*
X075075Y027570D01*
X075148Y027497D01*
X075148Y027350D01*
X075075Y027277D01*
X074855Y027277D01*
X074855Y027130D02*
X074855Y027570D01*
X075315Y027350D02*
X075535Y027350D01*
X075609Y027277D01*
X075609Y027203D01*
X075535Y027130D01*
X075389Y027130D01*
X075315Y027203D01*
X075315Y027350D01*
X075462Y027497D01*
X075609Y027570D01*
X075827Y027920D02*
X075900Y027993D01*
X075900Y028066D01*
X075827Y028140D01*
X075460Y028140D01*
X075460Y028213D02*
X075460Y028066D01*
X075533Y028380D02*
X075460Y028453D01*
X075460Y028600D01*
X075533Y028674D01*
X075606Y028674D01*
X075900Y028380D01*
X075900Y028674D01*
X076134Y027160D02*
X078496Y027160D01*
X076134Y027160D02*
X076134Y039290D01*
X078496Y039290D01*
X075609Y039559D02*
X075315Y039266D01*
X075315Y039193D01*
X075148Y039413D02*
X075075Y039339D01*
X074855Y039339D01*
X074855Y039193D02*
X074855Y039633D01*
X075075Y039633D01*
X075148Y039559D01*
X075148Y039413D01*
X075315Y039633D02*
X075609Y039633D01*
X075609Y039559D01*
X074688Y039633D02*
X074541Y039633D01*
X074615Y039633D02*
X074615Y039266D01*
X074541Y039193D01*
X074468Y039193D01*
X074394Y039266D01*
X072234Y038695D02*
X072234Y038622D01*
X071940Y038328D01*
X071940Y038255D01*
X071773Y038255D02*
X071480Y038255D01*
X071773Y038549D01*
X071773Y038622D01*
X071700Y038695D01*
X071553Y038695D01*
X071480Y038622D01*
X071313Y038695D02*
X071313Y038328D01*
X071240Y038255D01*
X071093Y038255D01*
X071019Y038328D01*
X071019Y038695D01*
X071940Y038695D02*
X072234Y038695D01*
X068129Y037695D02*
X067835Y037695D01*
X067835Y037475D01*
X067982Y037549D01*
X068055Y037549D01*
X068129Y037475D01*
X068129Y037328D01*
X068055Y037255D01*
X067908Y037255D01*
X067835Y037328D01*
X067595Y037328D02*
X067595Y037695D01*
X067668Y037695D02*
X067521Y037695D01*
X067595Y037328D02*
X067521Y037255D01*
X067448Y037255D01*
X067375Y037328D01*
X064030Y037225D02*
X064030Y037725D01*
X064028Y037751D01*
X064023Y037777D01*
X064015Y037802D01*
X064003Y037825D01*
X063989Y037847D01*
X063971Y037866D01*
X063952Y037884D01*
X063930Y037898D01*
X063907Y037910D01*
X063882Y037918D01*
X063856Y037923D01*
X063830Y037925D01*
X062530Y037925D01*
X062504Y037923D01*
X062478Y037918D01*
X062453Y037910D01*
X062430Y037898D01*
X062408Y037884D01*
X062389Y037866D01*
X062371Y037847D01*
X062357Y037825D01*
X062345Y037802D01*
X062337Y037777D01*
X062332Y037751D01*
X062330Y037725D01*
X062330Y037225D01*
X062332Y037199D01*
X062337Y037173D01*
X062345Y037148D01*
X062357Y037125D01*
X062371Y037103D01*
X062389Y037084D01*
X062408Y037066D01*
X062430Y037052D01*
X062453Y037040D01*
X062478Y037032D01*
X062504Y037027D01*
X062530Y037025D01*
X063830Y037025D01*
X063856Y037027D01*
X063882Y037032D01*
X063907Y037040D01*
X063930Y037052D01*
X063952Y037066D01*
X063971Y037084D01*
X063989Y037103D01*
X064003Y037125D01*
X064015Y037148D01*
X064023Y037173D01*
X064028Y037199D01*
X064030Y037225D01*
X063660Y038130D02*
X063514Y038130D01*
X063440Y038203D01*
X063440Y038350D02*
X063587Y038424D01*
X063660Y038424D01*
X063734Y038350D01*
X063734Y038203D01*
X063660Y038130D01*
X063440Y038350D02*
X063440Y038570D01*
X063734Y038570D01*
X063273Y038497D02*
X063200Y038570D01*
X063053Y038570D01*
X062980Y038497D01*
X062813Y038497D02*
X062740Y038570D01*
X062593Y038570D01*
X062519Y038497D01*
X062519Y038203D01*
X062593Y038130D01*
X062740Y038130D01*
X062813Y038203D01*
X062980Y038130D02*
X063273Y038424D01*
X063273Y038497D01*
X063273Y038130D02*
X062980Y038130D01*
X058380Y035625D02*
X058380Y035475D01*
X058330Y035425D01*
X058330Y033525D01*
X058380Y033475D01*
X058380Y033325D01*
X058378Y033308D01*
X058374Y033291D01*
X058367Y033275D01*
X058357Y033261D01*
X058344Y033248D01*
X058330Y033238D01*
X058314Y033231D01*
X058297Y033227D01*
X058280Y033225D01*
X057580Y033225D01*
X057563Y033227D01*
X057546Y033231D01*
X057530Y033238D01*
X057516Y033248D01*
X057503Y033261D01*
X057493Y033275D01*
X057486Y033291D01*
X057482Y033308D01*
X057480Y033325D01*
X057480Y033475D01*
X057530Y033525D01*
X057530Y035425D01*
X057480Y035475D01*
X057480Y035625D01*
X057482Y035642D01*
X057486Y035659D01*
X057493Y035675D01*
X057503Y035689D01*
X057516Y035702D01*
X057530Y035712D01*
X057546Y035719D01*
X057563Y035723D01*
X057580Y035725D01*
X058280Y035725D01*
X058297Y035723D01*
X058314Y035719D01*
X058330Y035712D01*
X058344Y035702D01*
X058357Y035689D01*
X058367Y035675D01*
X058374Y035659D01*
X058378Y035642D01*
X058380Y035625D01*
X058150Y034994D02*
X058003Y034774D01*
X057856Y034994D01*
X057710Y034774D02*
X058150Y034774D01*
X058077Y034607D02*
X058150Y034533D01*
X058150Y034387D01*
X058077Y034313D01*
X057783Y034607D01*
X058077Y034607D01*
X058077Y034313D02*
X057783Y034313D01*
X057710Y034387D01*
X057710Y034533D01*
X057783Y034607D01*
X057400Y034578D02*
X057400Y034725D01*
X057327Y034799D01*
X057033Y034799D01*
X056960Y034725D01*
X056960Y034578D01*
X057033Y034505D01*
X057106Y034505D01*
X057180Y034578D01*
X057180Y034799D01*
X057400Y034578D02*
X057327Y034505D01*
X057400Y034338D02*
X057253Y034191D01*
X057253Y034265D02*
X057253Y034045D01*
X057400Y034045D02*
X056960Y034045D01*
X056960Y034265D01*
X057033Y034338D01*
X057180Y034338D01*
X057253Y034265D01*
X057710Y034000D02*
X058150Y034000D01*
X058150Y034146D02*
X058150Y033853D01*
X057856Y033853D02*
X057710Y034000D01*
X057275Y031529D02*
X057275Y031235D01*
X056981Y031529D01*
X056908Y031529D01*
X056835Y031455D01*
X056835Y031309D01*
X056908Y031235D01*
X056908Y031068D02*
X057055Y031068D01*
X057128Y030995D01*
X057128Y030775D01*
X057275Y030775D02*
X056835Y030775D01*
X056835Y030995D01*
X056908Y031068D01*
X056835Y030608D02*
X056835Y030461D01*
X056835Y030535D02*
X057202Y030535D01*
X057275Y030461D01*
X057275Y030388D01*
X057202Y030314D01*
X051533Y028733D02*
X051460Y028660D01*
X051460Y028513D01*
X051533Y028439D01*
X046150Y030434D02*
X046077Y030360D01*
X046003Y030360D01*
X045930Y030434D01*
X045930Y030580D01*
X046003Y030654D01*
X046077Y030654D01*
X046150Y030580D01*
X046150Y030434D01*
X045930Y030434D02*
X045856Y030360D01*
X045783Y030360D01*
X045710Y030434D01*
X045710Y030580D01*
X045783Y030654D01*
X045856Y030654D01*
X045930Y030580D01*
X042944Y030247D02*
X042651Y029953D01*
X042724Y029880D01*
X042871Y029880D01*
X042944Y029953D01*
X042944Y030247D01*
X042871Y030320D01*
X042724Y030320D01*
X042651Y030247D01*
X042651Y029953D01*
X042484Y029953D02*
X042410Y029880D01*
X042264Y029880D01*
X042190Y029953D01*
X042190Y030027D01*
X042264Y030100D01*
X042410Y030100D01*
X042484Y030027D01*
X042484Y029953D01*
X042410Y030100D02*
X042484Y030174D01*
X042484Y030247D01*
X042410Y030320D01*
X042264Y030320D01*
X042190Y030247D01*
X042190Y030174D01*
X042264Y030100D01*
X042023Y030174D02*
X041730Y029880D01*
X042023Y029880D01*
X042023Y030174D02*
X042023Y030247D01*
X041950Y030320D01*
X041803Y030320D01*
X041730Y030247D01*
X041563Y030100D02*
X041269Y030100D01*
X041490Y030320D01*
X041490Y029880D01*
X041103Y030247D02*
X040809Y029953D01*
X040809Y029880D01*
X040809Y030320D02*
X041103Y030320D01*
X041103Y030247D01*
X037880Y030750D02*
X037880Y029450D01*
X037878Y029424D01*
X037873Y029398D01*
X037865Y029373D01*
X037853Y029350D01*
X037839Y029328D01*
X037821Y029309D01*
X037802Y029291D01*
X037780Y029277D01*
X037757Y029265D01*
X037732Y029257D01*
X037706Y029252D01*
X037680Y029250D01*
X037180Y029250D01*
X037154Y029252D01*
X037128Y029257D01*
X037103Y029265D01*
X037080Y029277D01*
X037058Y029291D01*
X037039Y029309D01*
X037021Y029328D01*
X037007Y029350D01*
X036995Y029373D01*
X036987Y029398D01*
X036982Y029424D01*
X036980Y029450D01*
X036980Y030750D01*
X036982Y030776D01*
X036987Y030802D01*
X036995Y030827D01*
X037007Y030850D01*
X037021Y030872D01*
X037039Y030891D01*
X037058Y030909D01*
X037080Y030923D01*
X037103Y030935D01*
X037128Y030943D01*
X037154Y030948D01*
X037180Y030950D01*
X037680Y030950D01*
X037706Y030948D01*
X037732Y030943D01*
X037757Y030935D01*
X037780Y030923D01*
X037802Y030909D01*
X037821Y030891D01*
X037839Y030872D01*
X037853Y030850D01*
X037865Y030827D01*
X037873Y030802D01*
X037878Y030776D01*
X037880Y030750D01*
X036775Y030580D02*
X036775Y030434D01*
X036702Y030360D01*
X036628Y030360D01*
X036555Y030434D01*
X036555Y030580D01*
X036628Y030654D01*
X036702Y030654D01*
X036775Y030580D01*
X036555Y030580D02*
X036481Y030654D01*
X036408Y030654D01*
X036335Y030580D01*
X036335Y030434D01*
X036408Y030360D01*
X036481Y030360D01*
X036555Y030434D01*
X036775Y030193D02*
X036775Y029900D01*
X036775Y030047D02*
X036335Y030047D01*
X036481Y029900D01*
X036408Y029733D02*
X036335Y029660D01*
X036335Y029513D01*
X036408Y029439D01*
X036702Y029439D01*
X036775Y029513D01*
X036775Y029660D01*
X036702Y029733D01*
X032150Y029660D02*
X032077Y029733D01*
X031710Y029733D01*
X031856Y029900D02*
X031710Y030047D01*
X032150Y030047D01*
X032150Y030193D02*
X032150Y029900D01*
X032150Y029660D02*
X032150Y029513D01*
X032077Y029439D01*
X031710Y029439D01*
X031430Y028950D02*
X031430Y031250D01*
X024430Y031250D01*
X024430Y030500D01*
X024469Y030498D01*
X024508Y030492D01*
X024546Y030483D01*
X024583Y030470D01*
X024619Y030453D01*
X024652Y030433D01*
X024684Y030409D01*
X024713Y030383D01*
X024739Y030354D01*
X024763Y030322D01*
X024783Y030289D01*
X024800Y030253D01*
X024813Y030216D01*
X024822Y030178D01*
X024828Y030139D01*
X024830Y030100D01*
X024828Y030061D01*
X024822Y030022D01*
X024813Y029984D01*
X024800Y029947D01*
X024783Y029911D01*
X024763Y029878D01*
X024739Y029846D01*
X024713Y029817D01*
X024684Y029791D01*
X024652Y029767D01*
X024619Y029747D01*
X024583Y029730D01*
X024546Y029717D01*
X024508Y029708D01*
X024469Y029702D01*
X024430Y029700D01*
X024430Y028950D01*
X031430Y028950D01*
X031783Y030360D02*
X031710Y030434D01*
X031710Y030580D01*
X031783Y030654D01*
X031856Y030654D01*
X032150Y030360D01*
X032150Y030654D01*
X028944Y030100D02*
X028651Y030100D01*
X028871Y030320D01*
X028871Y029880D01*
X028484Y029953D02*
X028484Y030027D01*
X028410Y030100D01*
X028190Y030100D01*
X028190Y029953D01*
X028264Y029880D01*
X028410Y029880D01*
X028484Y029953D01*
X028337Y030247D02*
X028190Y030100D01*
X028337Y030247D02*
X028484Y030320D01*
X027877Y030320D02*
X027877Y029880D01*
X028023Y029880D02*
X027730Y029880D01*
X027490Y029880D02*
X027490Y030320D01*
X027269Y030100D01*
X027563Y030100D01*
X027730Y030174D02*
X027877Y030320D01*
X027103Y030320D02*
X027103Y030247D01*
X026809Y029953D01*
X026809Y029880D01*
X026809Y030320D02*
X027103Y030320D01*
X023880Y030750D02*
X023880Y029450D01*
X023878Y029424D01*
X023873Y029398D01*
X023865Y029373D01*
X023853Y029350D01*
X023839Y029328D01*
X023821Y029309D01*
X023802Y029291D01*
X023780Y029277D01*
X023757Y029265D01*
X023732Y029257D01*
X023706Y029252D01*
X023680Y029250D01*
X023180Y029250D01*
X023154Y029252D01*
X023128Y029257D01*
X023103Y029265D01*
X023080Y029277D01*
X023058Y029291D01*
X023039Y029309D01*
X023021Y029328D01*
X023007Y029350D01*
X022995Y029373D01*
X022987Y029398D01*
X022982Y029424D01*
X022980Y029450D01*
X022980Y030750D01*
X022982Y030776D01*
X022987Y030802D01*
X022995Y030827D01*
X023007Y030850D01*
X023021Y030872D01*
X023039Y030891D01*
X023058Y030909D01*
X023080Y030923D01*
X023103Y030935D01*
X023128Y030943D01*
X023154Y030948D01*
X023180Y030950D01*
X023680Y030950D01*
X023706Y030948D01*
X023732Y030943D01*
X023757Y030935D01*
X023780Y030923D01*
X023802Y030909D01*
X023821Y030891D01*
X023839Y030872D01*
X023853Y030850D01*
X023865Y030827D01*
X023873Y030802D01*
X023878Y030776D01*
X023880Y030750D01*
X022775Y030654D02*
X022775Y030360D01*
X022481Y030654D01*
X022408Y030654D01*
X022335Y030580D01*
X022335Y030434D01*
X022408Y030360D01*
X022335Y030047D02*
X022775Y030047D01*
X022775Y030193D02*
X022775Y029900D01*
X022702Y029733D02*
X022775Y029660D01*
X022775Y029513D01*
X022702Y029439D01*
X022408Y029439D01*
X022335Y029513D01*
X022335Y029660D01*
X022408Y029733D01*
X022481Y029900D02*
X022335Y030047D01*
X020650Y030203D02*
X020650Y030350D01*
X020577Y030424D01*
X020503Y030424D01*
X020430Y030350D01*
X020430Y030130D01*
X020577Y030130D01*
X020650Y030203D01*
X020430Y030130D02*
X020283Y030277D01*
X020210Y030424D01*
X020210Y029963D02*
X020577Y029963D01*
X020650Y029890D01*
X020650Y029743D01*
X020577Y029670D01*
X020210Y029670D01*
X019930Y028950D02*
X019930Y031250D01*
X012930Y031250D01*
X012930Y030500D01*
X012969Y030498D01*
X013008Y030492D01*
X013046Y030483D01*
X013083Y030470D01*
X013119Y030453D01*
X013152Y030433D01*
X013184Y030409D01*
X013213Y030383D01*
X013239Y030354D01*
X013263Y030322D01*
X013283Y030289D01*
X013300Y030253D01*
X013313Y030216D01*
X013322Y030178D01*
X013328Y030139D01*
X013330Y030100D01*
X013328Y030061D01*
X013322Y030022D01*
X013313Y029984D01*
X013300Y029947D01*
X013283Y029911D01*
X013263Y029878D01*
X013239Y029846D01*
X013213Y029817D01*
X013184Y029791D01*
X013152Y029767D01*
X013119Y029747D01*
X013083Y029730D01*
X013046Y029717D01*
X013008Y029708D01*
X012969Y029702D01*
X012930Y029700D01*
X012930Y028950D01*
X019930Y028950D01*
X017141Y029880D02*
X017141Y030320D01*
X016920Y030100D01*
X017214Y030100D01*
X016754Y030247D02*
X016460Y029953D01*
X016460Y029880D01*
X016220Y029880D02*
X016220Y030320D01*
X016000Y030100D01*
X016293Y030100D01*
X016460Y030320D02*
X016754Y030320D01*
X016754Y030247D01*
X015833Y030247D02*
X015539Y029953D01*
X015539Y029880D01*
X015539Y030320D02*
X015833Y030320D01*
X015833Y030247D01*
X012380Y030750D02*
X012380Y029450D01*
X012378Y029424D01*
X012373Y029398D01*
X012365Y029373D01*
X012353Y029350D01*
X012339Y029328D01*
X012321Y029309D01*
X012302Y029291D01*
X012280Y029277D01*
X012257Y029265D01*
X012232Y029257D01*
X012206Y029252D01*
X012180Y029250D01*
X011680Y029250D01*
X011654Y029252D01*
X011628Y029257D01*
X011603Y029265D01*
X011580Y029277D01*
X011558Y029291D01*
X011539Y029309D01*
X011521Y029328D01*
X011507Y029350D01*
X011495Y029373D01*
X011487Y029398D01*
X011482Y029424D01*
X011480Y029450D01*
X011480Y030750D01*
X011482Y030776D01*
X011487Y030802D01*
X011495Y030827D01*
X011507Y030850D01*
X011521Y030872D01*
X011539Y030891D01*
X011558Y030909D01*
X011580Y030923D01*
X011603Y030935D01*
X011628Y030943D01*
X011654Y030948D01*
X011680Y030950D01*
X012180Y030950D01*
X012206Y030948D01*
X012232Y030943D01*
X012257Y030935D01*
X012280Y030923D01*
X012302Y030909D01*
X012321Y030891D01*
X012339Y030872D01*
X012353Y030850D01*
X012365Y030827D01*
X012373Y030802D01*
X012378Y030776D01*
X012380Y030750D01*
X011275Y030350D02*
X011202Y030424D01*
X011128Y030424D01*
X011055Y030350D01*
X011055Y030130D01*
X011202Y030130D01*
X011275Y030203D01*
X011275Y030350D01*
X011055Y030130D02*
X010908Y030277D01*
X010835Y030424D01*
X010908Y029963D02*
X010835Y029890D01*
X010835Y029743D01*
X010908Y029670D01*
X011202Y029670D01*
X011275Y029743D01*
X011275Y029890D01*
X011202Y029963D01*
X008920Y032380D02*
X008920Y032820D01*
X009214Y032820D01*
X009067Y032600D02*
X008920Y032600D01*
X008754Y032600D02*
X008754Y032380D01*
X008754Y032600D02*
X008680Y032674D01*
X008460Y032674D01*
X008460Y032380D01*
X008293Y032453D02*
X008220Y032380D01*
X008073Y032380D01*
X008000Y032453D01*
X008293Y032747D01*
X008293Y032453D01*
X008000Y032453D02*
X008000Y032747D01*
X008073Y032820D01*
X008220Y032820D01*
X008293Y032747D01*
X008230Y033005D02*
X008523Y033299D01*
X008523Y033372D01*
X008450Y033445D01*
X008303Y033445D01*
X008230Y033372D01*
X008063Y033372D02*
X007990Y033445D01*
X007843Y033445D01*
X007769Y033372D01*
X007769Y033078D01*
X007843Y033005D01*
X007990Y033005D01*
X008063Y033078D01*
X008230Y033005D02*
X008523Y033005D01*
X008690Y033078D02*
X008764Y033005D01*
X008910Y033005D01*
X008984Y033078D01*
X008984Y033372D01*
X008910Y033445D01*
X008764Y033445D01*
X008690Y033372D01*
X008690Y033299D01*
X008764Y033225D01*
X008984Y033225D01*
X009080Y033650D02*
X007780Y033650D01*
X007754Y033652D01*
X007728Y033657D01*
X007703Y033665D01*
X007680Y033677D01*
X007658Y033691D01*
X007639Y033709D01*
X007621Y033728D01*
X007607Y033750D01*
X007595Y033773D01*
X007587Y033798D01*
X007582Y033824D01*
X007580Y033850D01*
X007580Y034350D01*
X007582Y034376D01*
X007587Y034402D01*
X007595Y034427D01*
X007607Y034450D01*
X007621Y034472D01*
X007639Y034491D01*
X007658Y034509D01*
X007680Y034523D01*
X007703Y034535D01*
X007728Y034543D01*
X007754Y034548D01*
X007780Y034550D01*
X009080Y034550D01*
X009106Y034548D01*
X009132Y034543D01*
X009157Y034535D01*
X009180Y034523D01*
X009202Y034509D01*
X009221Y034491D01*
X009239Y034472D01*
X009253Y034450D01*
X009265Y034427D01*
X009273Y034402D01*
X009278Y034376D01*
X009280Y034350D01*
X009280Y033850D01*
X009278Y033824D01*
X009273Y033798D01*
X009265Y033773D01*
X009253Y033750D01*
X009239Y033728D01*
X009221Y033709D01*
X009202Y033691D01*
X009180Y033677D01*
X009157Y033665D01*
X009132Y033657D01*
X009106Y033652D01*
X009080Y033650D01*
X007686Y032820D02*
X007686Y032380D01*
X007539Y032380D02*
X007833Y032380D01*
X007539Y032674D02*
X007686Y032820D01*
X006279Y032655D02*
X005985Y032655D01*
X006132Y032655D02*
X006132Y033095D01*
X005985Y032949D01*
X005818Y033095D02*
X005818Y032728D01*
X005745Y032655D01*
X005598Y032655D01*
X005525Y032728D01*
X005525Y033095D01*
X006930Y033950D02*
X006930Y036250D01*
X002930Y036250D01*
X002930Y035500D01*
X002969Y035498D01*
X003008Y035492D01*
X003046Y035483D01*
X003083Y035470D01*
X003119Y035453D01*
X003152Y035433D01*
X003184Y035409D01*
X003213Y035383D01*
X003239Y035354D01*
X003263Y035322D01*
X003283Y035289D01*
X003300Y035253D01*
X003313Y035216D01*
X003322Y035178D01*
X003328Y035139D01*
X003330Y035100D01*
X003328Y035061D01*
X003322Y035022D01*
X003313Y034984D01*
X003300Y034947D01*
X003283Y034911D01*
X003263Y034878D01*
X003239Y034846D01*
X003213Y034817D01*
X003184Y034791D01*
X003152Y034767D01*
X003119Y034747D01*
X003083Y034730D01*
X003046Y034717D01*
X003008Y034708D01*
X002969Y034702D01*
X002930Y034700D01*
X002930Y033950D01*
X006930Y033950D01*
X005484Y034953D02*
X005410Y034880D01*
X005264Y034880D01*
X005190Y034953D01*
X005190Y035100D02*
X005337Y035174D01*
X005410Y035174D01*
X005484Y035100D01*
X005484Y034953D01*
X005190Y035100D02*
X005190Y035320D01*
X005484Y035320D01*
X005023Y035320D02*
X004730Y035320D01*
X004730Y035100D01*
X004877Y035174D01*
X004950Y035174D01*
X005023Y035100D01*
X005023Y034953D01*
X004950Y034880D01*
X004803Y034880D01*
X004730Y034953D01*
X004563Y034953D02*
X004490Y034880D01*
X004343Y034880D01*
X004269Y034953D01*
X004269Y035100D02*
X004416Y035174D01*
X004490Y035174D01*
X004563Y035100D01*
X004563Y034953D01*
X004269Y035100D02*
X004269Y035320D01*
X004563Y035320D01*
X002380Y035750D02*
X002380Y034450D01*
X002378Y034424D01*
X002373Y034398D01*
X002365Y034373D01*
X002353Y034350D01*
X002339Y034328D01*
X002321Y034309D01*
X002302Y034291D01*
X002280Y034277D01*
X002257Y034265D01*
X002232Y034257D01*
X002206Y034252D01*
X002180Y034250D01*
X001680Y034250D01*
X001654Y034252D01*
X001628Y034257D01*
X001603Y034265D01*
X001580Y034277D01*
X001558Y034291D01*
X001539Y034309D01*
X001521Y034328D01*
X001507Y034350D01*
X001495Y034373D01*
X001487Y034398D01*
X001482Y034424D01*
X001480Y034450D01*
X001480Y035750D01*
X001482Y035776D01*
X001487Y035802D01*
X001495Y035827D01*
X001507Y035850D01*
X001521Y035872D01*
X001539Y035891D01*
X001558Y035909D01*
X001580Y035923D01*
X001603Y035935D01*
X001628Y035943D01*
X001654Y035948D01*
X001680Y035950D01*
X002180Y035950D01*
X002206Y035948D01*
X002232Y035943D01*
X002257Y035935D01*
X002280Y035923D01*
X002302Y035909D01*
X002321Y035891D01*
X002339Y035872D01*
X002353Y035850D01*
X002365Y035827D01*
X002373Y035802D01*
X002378Y035776D01*
X002380Y035750D01*
X001275Y035424D02*
X001275Y035130D01*
X001275Y035277D02*
X000835Y035277D01*
X000981Y035130D01*
X000908Y034963D02*
X000835Y034890D01*
X000835Y034743D01*
X000908Y034670D01*
X001202Y034670D01*
X001275Y034743D01*
X001275Y034890D01*
X001202Y034963D01*
X004180Y037250D02*
X004180Y037950D01*
X004182Y037967D01*
X004186Y037984D01*
X004193Y038000D01*
X004203Y038014D01*
X004216Y038027D01*
X004230Y038037D01*
X004246Y038044D01*
X004263Y038048D01*
X004280Y038050D01*
X004430Y038050D01*
X004480Y038000D01*
X006380Y038000D01*
X006430Y038050D01*
X006580Y038050D01*
X006597Y038048D01*
X006614Y038044D01*
X006630Y038037D01*
X006644Y038027D01*
X006657Y038014D01*
X006667Y038000D01*
X006674Y037984D01*
X006678Y037967D01*
X006680Y037950D01*
X006680Y037250D01*
X006678Y037233D01*
X006674Y037216D01*
X006667Y037200D01*
X006657Y037186D01*
X006644Y037173D01*
X006630Y037163D01*
X006614Y037156D01*
X006597Y037152D01*
X006580Y037150D01*
X006430Y037150D01*
X006380Y037200D01*
X004480Y037200D01*
X004430Y037150D01*
X004280Y037150D01*
X004263Y037152D01*
X004246Y037156D01*
X004230Y037163D01*
X004216Y037173D01*
X004203Y037186D01*
X004193Y037200D01*
X004186Y037216D01*
X004182Y037233D01*
X004180Y037250D01*
X004693Y037380D02*
X004986Y037380D01*
X004839Y037380D02*
X004839Y037820D01*
X004693Y037674D01*
X005153Y037453D02*
X005226Y037453D01*
X005226Y037380D01*
X005153Y037380D01*
X005153Y037453D01*
X005383Y037380D02*
X005677Y037674D01*
X005677Y037747D01*
X005603Y037820D01*
X005457Y037820D01*
X005383Y037747D01*
X005383Y037380D02*
X005677Y037380D01*
X005844Y037380D02*
X005844Y037820D01*
X006064Y037674D02*
X005844Y037527D01*
X006064Y037380D01*
X005460Y038255D02*
X005460Y038328D01*
X005754Y038622D01*
X005754Y038695D01*
X005460Y038695D01*
X005293Y038622D02*
X005293Y038475D01*
X005220Y038402D01*
X005000Y038402D01*
X005146Y038402D02*
X005293Y038255D01*
X005000Y038255D02*
X005000Y038695D01*
X005220Y038695D01*
X005293Y038622D01*
X008019Y038372D02*
X008019Y038078D01*
X008093Y038005D01*
X008240Y038005D01*
X008313Y038078D01*
X008480Y038078D02*
X008553Y038005D01*
X008700Y038005D01*
X008773Y038078D01*
X008773Y038152D01*
X008700Y038225D01*
X008627Y038225D01*
X008700Y038225D02*
X008773Y038299D01*
X008773Y038372D01*
X008700Y038445D01*
X008553Y038445D01*
X008480Y038372D01*
X008313Y038372D02*
X008240Y038445D01*
X008093Y038445D01*
X008019Y038372D01*
X008048Y037770D02*
X008194Y037770D01*
X008268Y037697D01*
X007974Y037403D01*
X008048Y037330D01*
X008194Y037330D01*
X008268Y037403D01*
X008268Y037697D01*
X008048Y037770D02*
X007974Y037697D01*
X007974Y037403D01*
X008435Y037403D02*
X008508Y037403D01*
X008508Y037330D01*
X008435Y037330D01*
X008435Y037403D01*
X008665Y037330D02*
X008958Y037330D01*
X008811Y037330D02*
X008811Y037770D01*
X008665Y037624D01*
X009125Y037624D02*
X009125Y037403D01*
X009198Y037330D01*
X009419Y037330D01*
X009419Y037624D01*
X009585Y037550D02*
X009732Y037550D01*
X009585Y037330D02*
X009585Y037770D01*
X009879Y037770D01*
X009234Y038078D02*
X009160Y038005D01*
X009014Y038005D01*
X008940Y038078D01*
X009234Y038372D01*
X009234Y038078D01*
X008940Y038078D02*
X008940Y038372D01*
X009014Y038445D01*
X009160Y038445D01*
X009234Y038372D01*
X007780Y036813D02*
X007780Y036663D01*
X007930Y036663D01*
X007780Y036663D02*
X007780Y036513D01*
X007780Y036663D02*
X007630Y036663D01*
X007330Y036100D02*
X007332Y036166D01*
X007338Y036231D01*
X007348Y036296D01*
X007361Y036361D01*
X007379Y036424D01*
X007400Y036487D01*
X007425Y036547D01*
X007454Y036607D01*
X007486Y036664D01*
X007521Y036720D01*
X007560Y036773D01*
X007602Y036824D01*
X007646Y036872D01*
X007694Y036917D01*
X007744Y036960D01*
X007797Y036999D01*
X007852Y037036D01*
X007909Y037069D01*
X007968Y037098D01*
X008028Y037124D01*
X008090Y037146D01*
X008153Y037165D01*
X008217Y037179D01*
X008282Y037190D01*
X008348Y037197D01*
X008414Y037200D01*
X008479Y037199D01*
X008545Y037194D01*
X008610Y037185D01*
X008675Y037172D01*
X008738Y037156D01*
X008801Y037136D01*
X008862Y037111D01*
X008922Y037084D01*
X008980Y037053D01*
X009036Y037018D01*
X009090Y036980D01*
X009141Y036939D01*
X009190Y036895D01*
X009236Y036848D01*
X009280Y036799D01*
X009320Y036747D01*
X009357Y036692D01*
X009391Y036636D01*
X009421Y036577D01*
X009448Y036517D01*
X009471Y036456D01*
X009490Y036393D01*
X009506Y036329D01*
X009518Y036264D01*
X009526Y036199D01*
X009530Y036133D01*
X009530Y036067D01*
X009526Y036001D01*
X009518Y035936D01*
X009506Y035871D01*
X009490Y035807D01*
X009471Y035744D01*
X009448Y035683D01*
X009421Y035623D01*
X009391Y035564D01*
X009357Y035508D01*
X009320Y035453D01*
X009280Y035401D01*
X009236Y035352D01*
X009190Y035305D01*
X009141Y035261D01*
X009090Y035220D01*
X009036Y035182D01*
X008980Y035147D01*
X008922Y035116D01*
X008862Y035089D01*
X008801Y035064D01*
X008738Y035044D01*
X008675Y035028D01*
X008610Y035015D01*
X008545Y035006D01*
X008479Y035001D01*
X008414Y035000D01*
X008348Y035003D01*
X008282Y035010D01*
X008217Y035021D01*
X008153Y035035D01*
X008090Y035054D01*
X008028Y035076D01*
X007968Y035102D01*
X007909Y035131D01*
X007852Y035164D01*
X007797Y035201D01*
X007744Y035240D01*
X007694Y035283D01*
X007646Y035328D01*
X007602Y035376D01*
X007560Y035427D01*
X007521Y035480D01*
X007486Y035536D01*
X007454Y035593D01*
X007425Y035653D01*
X007400Y035713D01*
X007379Y035776D01*
X007361Y035839D01*
X007348Y035904D01*
X007338Y035969D01*
X007332Y036034D01*
X007330Y036100D01*
X010835Y035424D02*
X010835Y035130D01*
X010908Y034963D02*
X010835Y034890D01*
X010835Y034743D01*
X010908Y034670D01*
X011202Y034670D01*
X011275Y034743D01*
X011275Y034890D01*
X011202Y034963D01*
X011202Y035130D02*
X011275Y035130D01*
X011202Y035130D02*
X010908Y035424D01*
X010835Y035424D01*
X011480Y035750D02*
X011480Y034450D01*
X011482Y034424D01*
X011487Y034398D01*
X011495Y034373D01*
X011507Y034350D01*
X011521Y034328D01*
X011539Y034309D01*
X011558Y034291D01*
X011580Y034277D01*
X011603Y034265D01*
X011628Y034257D01*
X011654Y034252D01*
X011680Y034250D01*
X012180Y034250D01*
X012206Y034252D01*
X012232Y034257D01*
X012257Y034265D01*
X012280Y034277D01*
X012302Y034291D01*
X012321Y034309D01*
X012339Y034328D01*
X012353Y034350D01*
X012365Y034373D01*
X012373Y034398D01*
X012378Y034424D01*
X012380Y034450D01*
X012380Y035750D01*
X012378Y035776D01*
X012373Y035802D01*
X012365Y035827D01*
X012353Y035850D01*
X012339Y035872D01*
X012321Y035891D01*
X012302Y035909D01*
X012280Y035923D01*
X012257Y035935D01*
X012232Y035943D01*
X012206Y035948D01*
X012180Y035950D01*
X011680Y035950D01*
X011654Y035948D01*
X011628Y035943D01*
X011603Y035935D01*
X011580Y035923D01*
X011558Y035909D01*
X011539Y035891D01*
X011521Y035872D01*
X011507Y035850D01*
X011495Y035827D01*
X011487Y035802D01*
X011482Y035776D01*
X011480Y035750D01*
X012930Y035500D02*
X012930Y036250D01*
X019930Y036250D01*
X019930Y033950D01*
X012930Y033950D01*
X012930Y034700D01*
X012969Y034702D01*
X013008Y034708D01*
X013046Y034717D01*
X013083Y034730D01*
X013119Y034747D01*
X013152Y034767D01*
X013184Y034791D01*
X013213Y034817D01*
X013239Y034846D01*
X013263Y034878D01*
X013283Y034911D01*
X013300Y034947D01*
X013313Y034984D01*
X013322Y035022D01*
X013328Y035061D01*
X013330Y035100D01*
X013328Y035139D01*
X013322Y035178D01*
X013313Y035216D01*
X013300Y035253D01*
X013283Y035289D01*
X013263Y035322D01*
X013239Y035354D01*
X013213Y035383D01*
X013184Y035409D01*
X013152Y035433D01*
X013119Y035453D01*
X013083Y035470D01*
X013046Y035483D01*
X013008Y035492D01*
X012969Y035498D01*
X012930Y035500D01*
X015539Y035320D02*
X015833Y035320D01*
X015833Y035247D01*
X015539Y034953D01*
X015539Y034880D01*
X016000Y035100D02*
X016293Y035100D01*
X016460Y034953D02*
X016754Y035247D01*
X016754Y034953D01*
X016680Y034880D01*
X016533Y034880D01*
X016460Y034953D01*
X016460Y035247D01*
X016533Y035320D01*
X016680Y035320D01*
X016754Y035247D01*
X016920Y035247D02*
X016920Y035174D01*
X016994Y035100D01*
X017141Y035100D01*
X017214Y035027D01*
X017214Y034953D01*
X017141Y034880D01*
X016994Y034880D01*
X016920Y034953D01*
X016920Y035027D01*
X016994Y035100D01*
X017141Y035100D02*
X017214Y035174D01*
X017214Y035247D01*
X017141Y035320D01*
X016994Y035320D01*
X016920Y035247D01*
X016220Y035320D02*
X016220Y034880D01*
X016000Y035100D02*
X016220Y035320D01*
X020210Y035424D02*
X020210Y035130D01*
X020210Y034963D02*
X020577Y034963D01*
X020650Y034890D01*
X020650Y034743D01*
X020577Y034670D01*
X020210Y034670D01*
X020577Y035130D02*
X020650Y035130D01*
X020577Y035130D02*
X020283Y035424D01*
X020210Y035424D01*
X022335Y035434D02*
X022335Y035580D01*
X022408Y035654D01*
X022481Y035654D01*
X022555Y035580D01*
X022628Y035654D01*
X022702Y035654D01*
X022775Y035580D01*
X022775Y035434D01*
X022702Y035360D01*
X022775Y035193D02*
X022775Y034900D01*
X022775Y035047D02*
X022335Y035047D01*
X022481Y034900D01*
X022408Y034733D02*
X022335Y034660D01*
X022335Y034513D01*
X022408Y034439D01*
X022702Y034439D01*
X022775Y034513D01*
X022775Y034660D01*
X022702Y034733D01*
X022980Y034450D02*
X022980Y035750D01*
X022982Y035776D01*
X022987Y035802D01*
X022995Y035827D01*
X023007Y035850D01*
X023021Y035872D01*
X023039Y035891D01*
X023058Y035909D01*
X023080Y035923D01*
X023103Y035935D01*
X023128Y035943D01*
X023154Y035948D01*
X023180Y035950D01*
X023680Y035950D01*
X023706Y035948D01*
X023732Y035943D01*
X023757Y035935D01*
X023780Y035923D01*
X023802Y035909D01*
X023821Y035891D01*
X023839Y035872D01*
X023853Y035850D01*
X023865Y035827D01*
X023873Y035802D01*
X023878Y035776D01*
X023880Y035750D01*
X023880Y034450D01*
X023878Y034424D01*
X023873Y034398D01*
X023865Y034373D01*
X023853Y034350D01*
X023839Y034328D01*
X023821Y034309D01*
X023802Y034291D01*
X023780Y034277D01*
X023757Y034265D01*
X023732Y034257D01*
X023706Y034252D01*
X023680Y034250D01*
X023180Y034250D01*
X023154Y034252D01*
X023128Y034257D01*
X023103Y034265D01*
X023080Y034277D01*
X023058Y034291D01*
X023039Y034309D01*
X023021Y034328D01*
X023007Y034350D01*
X022995Y034373D01*
X022987Y034398D01*
X022982Y034424D01*
X022980Y034450D01*
X024430Y034700D02*
X024430Y033950D01*
X031430Y033950D01*
X031430Y036250D01*
X024430Y036250D01*
X024430Y035500D01*
X024469Y035498D01*
X024508Y035492D01*
X024546Y035483D01*
X024583Y035470D01*
X024619Y035453D01*
X024652Y035433D01*
X024684Y035409D01*
X024713Y035383D01*
X024739Y035354D01*
X024763Y035322D01*
X024783Y035289D01*
X024800Y035253D01*
X024813Y035216D01*
X024822Y035178D01*
X024828Y035139D01*
X024830Y035100D01*
X024828Y035061D01*
X024822Y035022D01*
X024813Y034984D01*
X024800Y034947D01*
X024783Y034911D01*
X024763Y034878D01*
X024739Y034846D01*
X024713Y034817D01*
X024684Y034791D01*
X024652Y034767D01*
X024619Y034747D01*
X024583Y034730D01*
X024546Y034717D01*
X024508Y034708D01*
X024469Y034702D01*
X024430Y034700D01*
X022555Y035507D02*
X022555Y035580D01*
X022408Y035360D02*
X022335Y035434D01*
X026809Y035320D02*
X027103Y035320D01*
X027103Y035247D01*
X026809Y034953D01*
X026809Y034880D01*
X027269Y035100D02*
X027563Y035100D01*
X027730Y035174D02*
X027877Y035320D01*
X027877Y034880D01*
X028023Y034880D02*
X027730Y034880D01*
X027490Y034880D02*
X027490Y035320D01*
X027269Y035100D01*
X028190Y035100D02*
X028410Y035100D01*
X028484Y035027D01*
X028484Y034953D01*
X028410Y034880D01*
X028264Y034880D01*
X028190Y034953D01*
X028190Y035100D01*
X028337Y035247D01*
X028484Y035320D01*
X028651Y035100D02*
X028944Y035100D01*
X028871Y034880D02*
X028871Y035320D01*
X028651Y035100D01*
X031710Y035047D02*
X032150Y035047D01*
X032150Y035193D02*
X032150Y034900D01*
X032077Y034733D02*
X031710Y034733D01*
X031856Y034900D02*
X031710Y035047D01*
X031783Y035360D02*
X031710Y035434D01*
X031710Y035580D01*
X031783Y035654D01*
X031856Y035654D01*
X031930Y035580D01*
X032003Y035654D01*
X032077Y035654D01*
X032150Y035580D01*
X032150Y035434D01*
X032077Y035360D01*
X031930Y035507D02*
X031930Y035580D01*
X032077Y034733D02*
X032150Y034660D01*
X032150Y034513D01*
X032077Y034439D01*
X031710Y034439D01*
X036335Y034513D02*
X036408Y034439D01*
X036702Y034439D01*
X036775Y034513D01*
X036775Y034660D01*
X036702Y034733D01*
X036775Y034900D02*
X036775Y035193D01*
X036775Y035047D02*
X036335Y035047D01*
X036481Y034900D01*
X036408Y034733D02*
X036335Y034660D01*
X036335Y034513D01*
X036980Y034450D02*
X036980Y035750D01*
X036982Y035776D01*
X036987Y035802D01*
X036995Y035827D01*
X037007Y035850D01*
X037021Y035872D01*
X037039Y035891D01*
X037058Y035909D01*
X037080Y035923D01*
X037103Y035935D01*
X037128Y035943D01*
X037154Y035948D01*
X037180Y035950D01*
X037680Y035950D01*
X037706Y035948D01*
X037732Y035943D01*
X037757Y035935D01*
X037780Y035923D01*
X037802Y035909D01*
X037821Y035891D01*
X037839Y035872D01*
X037853Y035850D01*
X037865Y035827D01*
X037873Y035802D01*
X037878Y035776D01*
X037880Y035750D01*
X037880Y034450D01*
X037878Y034424D01*
X037873Y034398D01*
X037865Y034373D01*
X037853Y034350D01*
X037839Y034328D01*
X037821Y034309D01*
X037802Y034291D01*
X037780Y034277D01*
X037757Y034265D01*
X037732Y034257D01*
X037706Y034252D01*
X037680Y034250D01*
X037180Y034250D01*
X037154Y034252D01*
X037128Y034257D01*
X037103Y034265D01*
X037080Y034277D01*
X037058Y034291D01*
X037039Y034309D01*
X037021Y034328D01*
X037007Y034350D01*
X036995Y034373D01*
X036987Y034398D01*
X036982Y034424D01*
X036980Y034450D01*
X038430Y034700D02*
X038430Y033950D01*
X046430Y033950D01*
X046430Y036250D01*
X038430Y036250D01*
X038430Y035500D01*
X038469Y035498D01*
X038508Y035492D01*
X038546Y035483D01*
X038583Y035470D01*
X038619Y035453D01*
X038652Y035433D01*
X038684Y035409D01*
X038713Y035383D01*
X038739Y035354D01*
X038763Y035322D01*
X038783Y035289D01*
X038800Y035253D01*
X038813Y035216D01*
X038822Y035178D01*
X038828Y035139D01*
X038830Y035100D01*
X038828Y035061D01*
X038822Y035022D01*
X038813Y034984D01*
X038800Y034947D01*
X038783Y034911D01*
X038763Y034878D01*
X038739Y034846D01*
X038713Y034817D01*
X038684Y034791D01*
X038652Y034767D01*
X038619Y034747D01*
X038583Y034730D01*
X038546Y034717D01*
X038508Y034708D01*
X038469Y034702D01*
X038430Y034700D01*
X036775Y035434D02*
X036775Y035580D01*
X036702Y035654D01*
X036408Y035654D01*
X036335Y035580D01*
X036335Y035434D01*
X036408Y035360D01*
X036481Y035360D01*
X036555Y035434D01*
X036555Y035654D01*
X036775Y035434D02*
X036702Y035360D01*
X041309Y035320D02*
X041603Y035320D01*
X041603Y035247D01*
X041309Y034953D01*
X041309Y034880D01*
X041769Y035100D02*
X042063Y035100D01*
X042230Y035174D02*
X042377Y035320D01*
X042377Y034880D01*
X042523Y034880D02*
X042230Y034880D01*
X041990Y034880D02*
X041990Y035320D01*
X041769Y035100D01*
X042690Y035100D02*
X042910Y035100D01*
X042984Y035027D01*
X042984Y034953D01*
X042910Y034880D01*
X042764Y034880D01*
X042690Y034953D01*
X042690Y035100D01*
X042837Y035247D01*
X042984Y035320D01*
X043151Y035320D02*
X043151Y035100D01*
X043297Y035174D01*
X043371Y035174D01*
X043444Y035100D01*
X043444Y034953D01*
X043371Y034880D01*
X043224Y034880D01*
X043151Y034953D01*
X043151Y035320D02*
X043444Y035320D01*
X046710Y035484D02*
X046783Y035410D01*
X046856Y035410D01*
X046930Y035484D01*
X046930Y035704D01*
X047077Y035704D02*
X046783Y035704D01*
X046710Y035630D01*
X046710Y035484D01*
X047077Y035410D02*
X047150Y035484D01*
X047150Y035630D01*
X047077Y035704D01*
X047150Y035243D02*
X047150Y034950D01*
X047150Y035097D02*
X046710Y035097D01*
X046856Y034950D01*
X046710Y034783D02*
X047077Y034783D01*
X047150Y034710D01*
X047150Y034563D01*
X047077Y034489D01*
X046710Y034489D01*
X049753Y035880D02*
X050047Y035880D01*
X049900Y035880D02*
X049900Y036320D01*
X049753Y036174D01*
X050214Y035953D02*
X050287Y035953D01*
X050287Y035880D01*
X050214Y035880D01*
X050214Y035953D01*
X050444Y035953D02*
X050444Y036027D01*
X050517Y036100D01*
X050664Y036100D01*
X050738Y036027D01*
X050738Y035953D01*
X050664Y035880D01*
X050517Y035880D01*
X050444Y035953D01*
X050517Y036100D02*
X050444Y036174D01*
X050444Y036247D01*
X050517Y036320D01*
X050664Y036320D01*
X050738Y036247D01*
X050738Y036174D01*
X050664Y036100D01*
X050904Y036100D02*
X051198Y036100D01*
X051365Y035953D02*
X051438Y035880D01*
X051585Y035880D01*
X051658Y035953D01*
X051658Y036027D01*
X051585Y036100D01*
X051511Y036100D01*
X051585Y036100D02*
X051658Y036174D01*
X051658Y036247D01*
X051585Y036320D01*
X051438Y036320D01*
X051365Y036247D01*
X051124Y036320D02*
X050904Y036100D01*
X051124Y035880D02*
X051124Y036320D01*
X051825Y036247D02*
X051898Y036320D01*
X052045Y036320D01*
X052119Y036247D01*
X052119Y036174D01*
X051825Y035880D01*
X052119Y035880D01*
X052285Y035880D02*
X052285Y036320D01*
X052432Y036174D01*
X052579Y036320D01*
X052579Y035880D01*
X052746Y035880D02*
X052746Y036320D01*
X052746Y036100D02*
X053039Y036100D01*
X053206Y036174D02*
X053500Y036174D01*
X053206Y035880D01*
X053500Y035880D01*
X053039Y035880D02*
X053039Y036320D01*
X052330Y039150D02*
X051030Y039150D01*
X051004Y039152D01*
X050978Y039157D01*
X050953Y039165D01*
X050930Y039177D01*
X050908Y039191D01*
X050889Y039209D01*
X050871Y039228D01*
X050857Y039250D01*
X050845Y039273D01*
X050837Y039298D01*
X050832Y039324D01*
X050830Y039350D01*
X050830Y039850D01*
X050832Y039876D01*
X050837Y039902D01*
X050845Y039927D01*
X050857Y039950D01*
X050871Y039972D01*
X050889Y039991D01*
X050908Y040009D01*
X050930Y040023D01*
X050953Y040035D01*
X050978Y040043D01*
X051004Y040048D01*
X051030Y040050D01*
X052330Y040050D01*
X052356Y040048D01*
X052382Y040043D01*
X052407Y040035D01*
X052430Y040023D01*
X052452Y040009D01*
X052471Y039991D01*
X052489Y039972D01*
X052503Y039950D01*
X052515Y039927D01*
X052523Y039902D01*
X052528Y039876D01*
X052530Y039850D01*
X052530Y039350D01*
X052528Y039324D01*
X052523Y039298D01*
X052515Y039273D01*
X052503Y039250D01*
X052489Y039228D01*
X052471Y039209D01*
X052452Y039191D01*
X052430Y039177D01*
X052407Y039165D01*
X052382Y039157D01*
X052356Y039152D01*
X052330Y039150D01*
X052234Y040255D02*
X051940Y040255D01*
X052234Y040549D01*
X052234Y040622D01*
X052160Y040695D01*
X052014Y040695D01*
X051940Y040622D01*
X051773Y040622D02*
X051773Y040549D01*
X051700Y040475D01*
X051773Y040402D01*
X051773Y040328D01*
X051700Y040255D01*
X051553Y040255D01*
X051480Y040328D01*
X051313Y040328D02*
X051240Y040255D01*
X051093Y040255D01*
X051019Y040328D01*
X051019Y040622D01*
X051093Y040695D01*
X051240Y040695D01*
X051313Y040622D01*
X051480Y040622D02*
X051553Y040695D01*
X051700Y040695D01*
X051773Y040622D01*
X051700Y040475D02*
X051627Y040475D01*
X049732Y039445D02*
X049732Y039005D01*
X049585Y039005D02*
X049879Y039005D01*
X049585Y039299D02*
X049732Y039445D01*
X049418Y039445D02*
X049418Y039372D01*
X049271Y039225D01*
X049271Y039005D01*
X049271Y039225D02*
X049125Y039372D01*
X049125Y039445D01*
X047150Y039513D02*
X047150Y039660D01*
X047077Y039733D01*
X046710Y039733D01*
X046783Y039900D02*
X046710Y039973D01*
X046710Y040120D01*
X046783Y040193D01*
X046856Y040193D01*
X047150Y039900D01*
X047150Y040193D01*
X047077Y040360D02*
X046783Y040654D01*
X047077Y040654D01*
X047150Y040580D01*
X047150Y040434D01*
X047077Y040360D01*
X046783Y040360D01*
X046710Y040434D01*
X046710Y040580D01*
X046783Y040654D01*
X046430Y041250D02*
X046430Y038950D01*
X038430Y038950D01*
X038430Y039700D01*
X038469Y039702D01*
X038508Y039708D01*
X038546Y039717D01*
X038583Y039730D01*
X038619Y039747D01*
X038652Y039767D01*
X038684Y039791D01*
X038713Y039817D01*
X038739Y039846D01*
X038763Y039878D01*
X038783Y039911D01*
X038800Y039947D01*
X038813Y039984D01*
X038822Y040022D01*
X038828Y040061D01*
X038830Y040100D01*
X038828Y040139D01*
X038822Y040178D01*
X038813Y040216D01*
X038800Y040253D01*
X038783Y040289D01*
X038763Y040322D01*
X038739Y040354D01*
X038713Y040383D01*
X038684Y040409D01*
X038652Y040433D01*
X038619Y040453D01*
X038583Y040470D01*
X038546Y040483D01*
X038508Y040492D01*
X038469Y040498D01*
X038430Y040500D01*
X038430Y041250D01*
X046430Y041250D01*
X043444Y040320D02*
X043151Y040320D01*
X043151Y040100D01*
X043297Y040174D01*
X043371Y040174D01*
X043444Y040100D01*
X043444Y039953D01*
X043371Y039880D01*
X043224Y039880D01*
X043151Y039953D01*
X042984Y039953D02*
X042984Y040027D01*
X042910Y040100D01*
X042690Y040100D01*
X042690Y039953D01*
X042764Y039880D01*
X042910Y039880D01*
X042984Y039953D01*
X042837Y040247D02*
X042690Y040100D01*
X042837Y040247D02*
X042984Y040320D01*
X042377Y040320D02*
X042377Y039880D01*
X042523Y039880D02*
X042230Y039880D01*
X041990Y039880D02*
X041990Y040320D01*
X041769Y040100D01*
X042063Y040100D01*
X042230Y040174D02*
X042377Y040320D01*
X041603Y040320D02*
X041603Y040247D01*
X041309Y039953D01*
X041309Y039880D01*
X041309Y040320D02*
X041603Y040320D01*
X037880Y040750D02*
X037880Y039450D01*
X037878Y039424D01*
X037873Y039398D01*
X037865Y039373D01*
X037853Y039350D01*
X037839Y039328D01*
X037821Y039309D01*
X037802Y039291D01*
X037780Y039277D01*
X037757Y039265D01*
X037732Y039257D01*
X037706Y039252D01*
X037680Y039250D01*
X037180Y039250D01*
X037154Y039252D01*
X037128Y039257D01*
X037103Y039265D01*
X037080Y039277D01*
X037058Y039291D01*
X037039Y039309D01*
X037021Y039328D01*
X037007Y039350D01*
X036995Y039373D01*
X036987Y039398D01*
X036982Y039424D01*
X036980Y039450D01*
X036980Y040750D01*
X036982Y040776D01*
X036987Y040802D01*
X036995Y040827D01*
X037007Y040850D01*
X037021Y040872D01*
X037039Y040891D01*
X037058Y040909D01*
X037080Y040923D01*
X037103Y040935D01*
X037128Y040943D01*
X037154Y040948D01*
X037180Y040950D01*
X037680Y040950D01*
X037706Y040948D01*
X037732Y040943D01*
X037757Y040935D01*
X037780Y040923D01*
X037802Y040909D01*
X037821Y040891D01*
X037839Y040872D01*
X037853Y040850D01*
X037865Y040827D01*
X037873Y040802D01*
X037878Y040776D01*
X037880Y040750D01*
X036775Y040580D02*
X036775Y040434D01*
X036702Y040360D01*
X036408Y040654D01*
X036702Y040654D01*
X036775Y040580D01*
X036702Y040360D02*
X036408Y040360D01*
X036335Y040434D01*
X036335Y040580D01*
X036408Y040654D01*
X036408Y040193D02*
X036335Y040120D01*
X036335Y039973D01*
X036408Y039900D01*
X036408Y039733D02*
X036335Y039660D01*
X036335Y039513D01*
X036408Y039439D01*
X036702Y039439D01*
X036775Y039513D01*
X036775Y039660D01*
X036702Y039733D01*
X036775Y039900D02*
X036481Y040193D01*
X036408Y040193D01*
X036775Y040193D02*
X036775Y039900D01*
X034525Y039900D02*
X034085Y039900D01*
X034085Y040120D01*
X034158Y040193D01*
X034305Y040193D01*
X034378Y040120D01*
X034378Y039900D01*
X034452Y039660D02*
X034085Y039660D01*
X034085Y039733D02*
X034085Y039586D01*
X034452Y039660D02*
X034525Y039586D01*
X034525Y039513D01*
X034452Y039439D01*
X034452Y040360D02*
X034525Y040434D01*
X034525Y040580D01*
X034452Y040654D01*
X034378Y040654D01*
X034305Y040580D01*
X034305Y040507D01*
X034305Y040580D02*
X034231Y040654D01*
X034158Y040654D01*
X034085Y040580D01*
X034085Y040434D01*
X034158Y040360D01*
X032150Y040193D02*
X032150Y039900D01*
X032150Y040047D02*
X031710Y040047D01*
X031856Y039900D01*
X031710Y039733D02*
X032077Y039733D01*
X032150Y039660D01*
X032150Y039513D01*
X032077Y039439D01*
X031710Y039439D01*
X031430Y038950D02*
X031430Y041250D01*
X024430Y041250D01*
X024430Y040500D01*
X024469Y040498D01*
X024508Y040492D01*
X024546Y040483D01*
X024583Y040470D01*
X024619Y040453D01*
X024652Y040433D01*
X024684Y040409D01*
X024713Y040383D01*
X024739Y040354D01*
X024763Y040322D01*
X024783Y040289D01*
X024800Y040253D01*
X024813Y040216D01*
X024822Y040178D01*
X024828Y040139D01*
X024830Y040100D01*
X024828Y040061D01*
X024822Y040022D01*
X024813Y039984D01*
X024800Y039947D01*
X024783Y039911D01*
X024763Y039878D01*
X024739Y039846D01*
X024713Y039817D01*
X024684Y039791D01*
X024652Y039767D01*
X024619Y039747D01*
X024583Y039730D01*
X024546Y039717D01*
X024508Y039708D01*
X024469Y039702D01*
X024430Y039700D01*
X024430Y038950D01*
X031430Y038950D01*
X031930Y040360D02*
X031930Y040654D01*
X032150Y040580D02*
X031710Y040580D01*
X031930Y040360D01*
X028714Y040100D02*
X028420Y040100D01*
X028641Y040320D01*
X028641Y039880D01*
X028254Y040247D02*
X027960Y039953D01*
X027960Y039880D01*
X027720Y039880D02*
X027720Y040320D01*
X027500Y040100D01*
X027793Y040100D01*
X027960Y040320D02*
X028254Y040320D01*
X028254Y040247D01*
X027333Y040247D02*
X027039Y039953D01*
X027039Y039880D01*
X027039Y040320D02*
X027333Y040320D01*
X027333Y040247D01*
X023880Y040750D02*
X023880Y039450D01*
X023878Y039424D01*
X023873Y039398D01*
X023865Y039373D01*
X023853Y039350D01*
X023839Y039328D01*
X023821Y039309D01*
X023802Y039291D01*
X023780Y039277D01*
X023757Y039265D01*
X023732Y039257D01*
X023706Y039252D01*
X023680Y039250D01*
X023180Y039250D01*
X023154Y039252D01*
X023128Y039257D01*
X023103Y039265D01*
X023080Y039277D01*
X023058Y039291D01*
X023039Y039309D01*
X023021Y039328D01*
X023007Y039350D01*
X022995Y039373D01*
X022987Y039398D01*
X022982Y039424D01*
X022980Y039450D01*
X022980Y040750D01*
X022982Y040776D01*
X022987Y040802D01*
X022995Y040827D01*
X023007Y040850D01*
X023021Y040872D01*
X023039Y040891D01*
X023058Y040909D01*
X023080Y040923D01*
X023103Y040935D01*
X023128Y040943D01*
X023154Y040948D01*
X023180Y040950D01*
X023680Y040950D01*
X023706Y040948D01*
X023732Y040943D01*
X023757Y040935D01*
X023780Y040923D01*
X023802Y040909D01*
X023821Y040891D01*
X023839Y040872D01*
X023853Y040850D01*
X023865Y040827D01*
X023873Y040802D01*
X023878Y040776D01*
X023880Y040750D01*
X022775Y040580D02*
X022335Y040580D01*
X022555Y040360D01*
X022555Y040654D01*
X022775Y040193D02*
X022775Y039900D01*
X022775Y040047D02*
X022335Y040047D01*
X022481Y039900D01*
X022408Y039733D02*
X022335Y039660D01*
X022335Y039513D01*
X022408Y039439D01*
X022702Y039439D01*
X022775Y039513D01*
X022775Y039660D01*
X022702Y039733D01*
X046710Y039439D02*
X047077Y039439D01*
X047150Y039513D01*
X062680Y033475D02*
X063180Y033975D01*
X063680Y033475D01*
X062680Y033475D01*
X071460Y033455D02*
X071533Y033529D01*
X071606Y033529D01*
X071680Y033455D01*
X071680Y033309D01*
X071606Y033235D01*
X071533Y033235D01*
X071460Y033309D01*
X071460Y033455D01*
X071680Y033455D02*
X071753Y033529D01*
X071827Y033529D01*
X071900Y033455D01*
X071900Y033309D01*
X071827Y033235D01*
X071753Y033235D01*
X071680Y033309D01*
X071900Y033068D02*
X071900Y032775D01*
X071900Y032922D02*
X071460Y032922D01*
X071606Y032775D01*
X071680Y032608D02*
X071827Y032608D01*
X071900Y032535D01*
X071900Y032388D01*
X071827Y032314D01*
X071680Y032314D02*
X071606Y032461D01*
X071606Y032535D01*
X071680Y032608D01*
X071460Y032608D02*
X071460Y032314D01*
X071680Y032314D01*
X071533Y032148D02*
X071827Y031854D01*
X071900Y031854D01*
X071460Y031854D02*
X071460Y032148D01*
X071533Y032148D01*
X071460Y033696D02*
X071680Y033696D01*
X071606Y033842D01*
X071606Y033916D01*
X071680Y033989D01*
X071827Y033989D01*
X071900Y033916D01*
X071900Y033769D01*
X071827Y033696D01*
X071460Y033696D02*
X071460Y033989D01*
X079138Y034036D02*
X079194Y033980D01*
X079416Y033980D01*
X079472Y034036D01*
X079472Y034147D01*
X079416Y034203D01*
X079416Y034343D02*
X079472Y034398D01*
X079472Y034454D01*
X079416Y034510D01*
X079138Y034510D01*
X079138Y034565D02*
X079138Y034454D01*
X079138Y034705D02*
X079472Y034705D01*
X079472Y034928D01*
X079416Y035068D02*
X079472Y035123D01*
X079472Y035235D01*
X079416Y035290D01*
X079416Y035068D02*
X079194Y035068D01*
X079138Y035123D01*
X079138Y035235D01*
X079194Y035290D01*
X079194Y034203D02*
X079138Y034147D01*
X079138Y034036D01*
X079472Y033840D02*
X079472Y033618D01*
X079138Y033618D01*
X079138Y033478D02*
X079138Y033366D01*
X079138Y033422D02*
X079416Y033422D01*
X079472Y033366D01*
X079472Y033311D01*
X079416Y033255D01*
X079416Y033115D02*
X079472Y033059D01*
X079472Y032948D01*
X079416Y032892D01*
X079194Y032892D01*
X079138Y032948D01*
X079138Y033059D01*
X079194Y033115D01*
X079472Y032753D02*
X079472Y032530D01*
X079138Y032530D01*
X079138Y032390D02*
X079138Y032279D01*
X079138Y032334D02*
X079416Y032334D01*
X079472Y032279D01*
X079472Y032223D01*
X079416Y032167D01*
X079416Y032028D02*
X079472Y031972D01*
X079472Y031861D01*
X079416Y031805D01*
X079194Y031805D01*
X079138Y031861D01*
X079138Y031972D01*
X079194Y032028D01*
X079472Y031665D02*
X079472Y031442D01*
X079138Y031442D01*
X079138Y031303D02*
X079138Y031191D01*
X079138Y031247D02*
X079416Y031247D01*
X079472Y031191D01*
X079472Y031136D01*
X079416Y031080D01*
X078496Y025790D02*
X076134Y025790D01*
X076134Y013660D01*
X078496Y013660D01*
X075609Y015016D02*
X075535Y014943D01*
X075389Y014943D01*
X075315Y015016D01*
X075315Y015163D02*
X075462Y015236D01*
X075535Y015236D01*
X075609Y015163D01*
X075609Y015016D01*
X075315Y015163D02*
X075315Y015383D01*
X075609Y015383D01*
X075148Y015309D02*
X075148Y015163D01*
X075075Y015089D01*
X074855Y015089D01*
X074855Y014943D02*
X074855Y015383D01*
X075075Y015383D01*
X075148Y015309D01*
X074688Y015383D02*
X074541Y015383D01*
X074615Y015383D02*
X074615Y015016D01*
X074541Y014943D01*
X074468Y014943D01*
X074394Y015016D01*
X071890Y018979D02*
X071817Y018979D01*
X071523Y019273D01*
X071450Y019273D01*
X071450Y018979D01*
X071450Y019439D02*
X071670Y019439D01*
X071596Y019586D01*
X071596Y019660D01*
X071670Y019733D01*
X071817Y019733D01*
X071890Y019660D01*
X071890Y019513D01*
X071817Y019439D01*
X071450Y019439D02*
X071450Y019733D01*
X071596Y019900D02*
X071450Y020047D01*
X071890Y020047D01*
X071890Y020193D02*
X071890Y019900D01*
X071817Y020360D02*
X071743Y020360D01*
X071670Y020434D01*
X071670Y020580D01*
X071743Y020654D01*
X071817Y020654D01*
X071890Y020580D01*
X071890Y020434D01*
X071817Y020360D01*
X071670Y020434D02*
X071596Y020360D01*
X071523Y020360D01*
X071450Y020434D01*
X071450Y020580D01*
X071523Y020654D01*
X071596Y020654D01*
X071670Y020580D01*
X071670Y020821D02*
X071596Y020967D01*
X071596Y021041D01*
X071670Y021114D01*
X071817Y021114D01*
X071890Y021041D01*
X071890Y020894D01*
X071817Y020821D01*
X071670Y020821D02*
X071450Y020821D01*
X071450Y021114D01*
X073710Y023439D02*
X074077Y023439D01*
X074150Y023513D01*
X074150Y023660D01*
X074077Y023733D01*
X073710Y023733D01*
X073783Y023900D02*
X073710Y023973D01*
X073710Y024120D01*
X073783Y024193D01*
X073856Y024193D01*
X074150Y023900D01*
X074150Y024193D01*
X074077Y024360D02*
X074150Y024434D01*
X074150Y024580D01*
X074077Y024654D01*
X074003Y024654D01*
X073930Y024580D01*
X073930Y024360D01*
X074077Y024360D01*
X073930Y024360D02*
X073783Y024507D01*
X073710Y024654D01*
X075460Y024777D02*
X075900Y024777D01*
X075900Y024630D02*
X075900Y024924D01*
X075606Y024630D02*
X075460Y024777D01*
X075460Y024463D02*
X075460Y024316D01*
X075460Y024390D02*
X075827Y024390D01*
X075900Y024316D01*
X075900Y024243D01*
X075827Y024170D01*
X068129Y024600D02*
X067835Y024600D01*
X068055Y024820D01*
X068055Y024380D01*
X067595Y024453D02*
X067595Y024820D01*
X067668Y024820D02*
X067521Y024820D01*
X067595Y024453D02*
X067521Y024380D01*
X067448Y024380D01*
X067375Y024453D01*
X046587Y009695D02*
X046587Y009255D01*
X046440Y009255D02*
X046734Y009255D01*
X046440Y009549D02*
X046587Y009695D01*
X046273Y009622D02*
X046273Y009549D01*
X046200Y009475D01*
X046273Y009402D01*
X046273Y009328D01*
X046200Y009255D01*
X046053Y009255D01*
X045980Y009328D01*
X045813Y009328D02*
X045740Y009255D01*
X045593Y009255D01*
X045519Y009328D01*
X045519Y009622D01*
X045593Y009695D01*
X045740Y009695D01*
X045813Y009622D01*
X045980Y009622D02*
X046053Y009695D01*
X046200Y009695D01*
X046273Y009622D01*
X046200Y009475D02*
X046127Y009475D01*
X046200Y008195D02*
X046273Y008122D01*
X045980Y007828D01*
X046053Y007755D01*
X046200Y007755D01*
X046273Y007828D01*
X046273Y008122D01*
X046200Y008195D02*
X046053Y008195D01*
X045980Y008122D01*
X045980Y007828D01*
X045813Y007755D02*
X045519Y007755D01*
X045813Y008049D01*
X045813Y008122D01*
X045740Y008195D01*
X045593Y008195D01*
X045519Y008122D01*
X045353Y008122D02*
X045279Y008195D01*
X045132Y008195D01*
X045059Y008122D01*
X045353Y008122D02*
X045353Y008049D01*
X045059Y007755D01*
X045353Y007755D01*
X046440Y007828D02*
X046440Y008049D01*
X046440Y007828D02*
X046514Y007755D01*
X046734Y007755D01*
X046734Y008049D01*
X046901Y007975D02*
X047047Y007975D01*
X046901Y007755D02*
X046901Y008195D01*
X047194Y008195D01*
D12*
X057765Y015033D02*
X057765Y015143D01*
X057765Y015088D02*
X058040Y015088D01*
X058095Y015033D01*
X058095Y014978D01*
X058040Y014923D01*
X058095Y015291D02*
X058095Y015511D01*
X058095Y015401D02*
X057765Y015401D01*
X057875Y015291D01*
X057765Y016028D02*
X057765Y016138D01*
X057765Y016083D02*
X058095Y016083D01*
X058095Y016028D02*
X058095Y016138D01*
X058095Y016273D02*
X057765Y016273D01*
X058095Y016494D01*
X057765Y016494D01*
X057765Y016642D02*
X057765Y016862D01*
X057765Y016752D02*
X058095Y016752D01*
X064570Y025260D02*
X064790Y025260D01*
X064845Y025315D01*
X064845Y025425D01*
X064790Y025480D01*
X064570Y025480D01*
X064515Y025425D01*
X064515Y025315D01*
X064570Y025260D01*
X064515Y025628D02*
X064515Y025793D01*
X064570Y025849D01*
X064680Y025849D01*
X064735Y025793D01*
X064735Y025628D01*
X064845Y025628D02*
X064515Y025628D01*
X064625Y025997D02*
X064515Y026107D01*
X064845Y026107D01*
X064845Y025997D02*
X064845Y026217D01*
X065515Y026162D02*
X065515Y026052D01*
X065570Y025997D01*
X065570Y025849D02*
X065680Y025849D01*
X065735Y025793D01*
X065735Y025628D01*
X065845Y025628D02*
X065515Y025628D01*
X065515Y025793D01*
X065570Y025849D01*
X065845Y025997D02*
X065625Y026217D01*
X065570Y026217D01*
X065515Y026162D01*
X065845Y026217D02*
X065845Y025997D01*
X065790Y025480D02*
X065570Y025480D01*
X065515Y025425D01*
X065515Y025315D01*
X065570Y025260D01*
X065790Y025260D01*
X065845Y025315D01*
X065845Y025425D01*
X065790Y025480D01*
X066515Y025425D02*
X066515Y025315D01*
X066570Y025260D01*
X066790Y025260D01*
X066845Y025315D01*
X066845Y025425D01*
X066790Y025480D01*
X066680Y025480D01*
X066680Y025370D01*
X066570Y025480D02*
X066515Y025425D01*
X066515Y025628D02*
X066845Y025849D01*
X066515Y025849D01*
X066515Y025997D02*
X066515Y026162D01*
X066570Y026217D01*
X066790Y026217D01*
X066845Y026162D01*
X066845Y025997D01*
X066515Y025997D01*
X066515Y025628D02*
X066845Y025628D01*
X058095Y027853D02*
X058095Y027908D01*
X058040Y027963D01*
X057765Y027963D01*
X057765Y027908D02*
X057765Y028018D01*
X057820Y028166D02*
X057765Y028221D01*
X057765Y028331D01*
X057820Y028386D01*
X057875Y028386D01*
X058095Y028166D01*
X058095Y028386D01*
X058095Y028903D02*
X058095Y029013D01*
X058095Y028958D02*
X057765Y028958D01*
X057765Y028903D02*
X057765Y029013D01*
X057765Y029148D02*
X058095Y029369D01*
X057765Y029369D01*
X057765Y029517D02*
X057765Y029737D01*
X057765Y029627D02*
X058095Y029627D01*
X058095Y029148D02*
X057765Y029148D01*
X058095Y027853D02*
X058040Y027798D01*
X064570Y038135D02*
X064790Y038135D01*
X064845Y038190D01*
X064845Y038300D01*
X064790Y038355D01*
X064570Y038355D01*
X064515Y038300D01*
X064515Y038190D01*
X064570Y038135D01*
X064515Y038503D02*
X064515Y038668D01*
X064570Y038724D01*
X064680Y038724D01*
X064735Y038668D01*
X064735Y038503D01*
X064845Y038503D02*
X064515Y038503D01*
X064625Y038872D02*
X064515Y038982D01*
X064845Y038982D01*
X064845Y038872D02*
X064845Y039092D01*
X065515Y039037D02*
X065515Y038927D01*
X065570Y038872D01*
X065570Y038724D02*
X065680Y038724D01*
X065735Y038668D01*
X065735Y038503D01*
X065845Y038503D02*
X065515Y038503D01*
X065515Y038668D01*
X065570Y038724D01*
X065845Y038872D02*
X065625Y039092D01*
X065570Y039092D01*
X065515Y039037D01*
X065845Y039092D02*
X065845Y038872D01*
X066515Y038872D02*
X066515Y039037D01*
X066570Y039092D01*
X066790Y039092D01*
X066845Y039037D01*
X066845Y038872D01*
X066515Y038872D01*
X066515Y038724D02*
X066845Y038724D01*
X066515Y038503D01*
X066845Y038503D01*
X066790Y038355D02*
X066680Y038355D01*
X066680Y038245D01*
X066790Y038135D02*
X066845Y038190D01*
X066845Y038300D01*
X066790Y038355D01*
X066790Y038135D02*
X066570Y038135D01*
X066515Y038190D01*
X066515Y038300D01*
X066570Y038355D01*
X065845Y038300D02*
X065790Y038355D01*
X065570Y038355D01*
X065515Y038300D01*
X065515Y038190D01*
X065570Y038135D01*
X065790Y038135D01*
X065845Y038190D01*
X065845Y038300D01*
X034360Y041640D02*
X034140Y041640D01*
X034250Y041640D02*
X034250Y041310D01*
X033992Y041310D02*
X033992Y041640D01*
X033772Y041640D02*
X033992Y041310D01*
X033772Y041310D02*
X033772Y041640D01*
X033636Y041640D02*
X033526Y041640D01*
X033581Y041640D02*
X033581Y041310D01*
X033526Y041310D02*
X033636Y041310D01*
X033010Y041365D02*
X032955Y041310D01*
X032790Y041310D01*
X032790Y041640D01*
X032955Y041640D01*
X033010Y041585D01*
X033010Y041530D01*
X032955Y041475D01*
X032790Y041475D01*
X032955Y041475D02*
X033010Y041420D01*
X033010Y041365D01*
X032642Y041310D02*
X032476Y041475D01*
X032421Y041420D02*
X032642Y041640D01*
X032421Y041640D02*
X032421Y041310D01*
D13*
X075259Y034864D02*
X075259Y034668D01*
X075358Y034569D01*
X075259Y034864D02*
X075358Y034963D01*
X075456Y034963D01*
X075850Y034569D01*
X075850Y034963D01*
X075259Y033674D02*
X075259Y033280D01*
X075259Y033477D02*
X075850Y033477D01*
X075850Y033029D02*
X075653Y032832D01*
X075653Y032931D02*
X075653Y032635D01*
X075850Y032635D02*
X075259Y032635D01*
X075259Y032931D01*
X075358Y033029D01*
X075555Y033029D01*
X075653Y032931D01*
X075752Y032385D02*
X075358Y032385D01*
X075259Y032286D01*
X075259Y032089D01*
X075358Y031991D01*
X075752Y031991D01*
X075850Y032089D01*
X075850Y032286D01*
X075752Y032385D01*
X075555Y031740D02*
X075653Y031642D01*
X075653Y031346D01*
X075850Y031346D02*
X075259Y031346D01*
X075259Y031642D01*
X075358Y031740D01*
X075555Y031740D01*
X075850Y021463D02*
X075850Y021069D01*
X075850Y021266D02*
X075259Y021266D01*
X075456Y021069D01*
X075259Y020174D02*
X075259Y019780D01*
X075259Y019977D02*
X075850Y019977D01*
X075850Y019529D02*
X075653Y019332D01*
X075653Y019431D02*
X075653Y019135D01*
X075850Y019135D02*
X075259Y019135D01*
X075259Y019431D01*
X075358Y019529D01*
X075555Y019529D01*
X075653Y019431D01*
X075752Y018885D02*
X075358Y018885D01*
X075259Y018786D01*
X075259Y018589D01*
X075358Y018491D01*
X075752Y018491D01*
X075850Y018589D01*
X075850Y018786D01*
X075752Y018885D01*
X075555Y018240D02*
X075653Y018142D01*
X075653Y017846D01*
X075850Y017846D02*
X075259Y017846D01*
X075259Y018142D01*
X075358Y018240D01*
X075555Y018240D01*
D14*
X076007Y004580D02*
X075853Y004504D01*
X075700Y004350D01*
X075930Y004350D01*
X076007Y004273D01*
X076007Y004197D01*
X075930Y004120D01*
X075777Y004120D01*
X075700Y004197D01*
X075700Y004350D01*
X076160Y004427D02*
X076314Y004580D01*
X076314Y004120D01*
X076467Y004120D02*
X076160Y004120D01*
X044507Y004120D02*
X044200Y004120D01*
X044353Y004120D02*
X044353Y004580D01*
X044200Y004427D01*
D15*
X044680Y004600D02*
X045180Y003600D01*
X045680Y004600D01*
X044680Y004600D01*
X044702Y004555D02*
X045658Y004555D01*
X045633Y004507D02*
X044727Y004507D01*
X044751Y004458D02*
X045609Y004458D01*
X045585Y004410D02*
X044775Y004410D01*
X044799Y004361D02*
X045561Y004361D01*
X045536Y004313D02*
X044824Y004313D01*
X044848Y004264D02*
X045512Y004264D01*
X045488Y004216D02*
X044872Y004216D01*
X044896Y004167D02*
X045464Y004167D01*
X045439Y004119D02*
X044921Y004119D01*
X044945Y004070D02*
X045415Y004070D01*
X045391Y004022D02*
X044969Y004022D01*
X044993Y003973D02*
X045367Y003973D01*
X045342Y003925D02*
X045018Y003925D01*
X045042Y003876D02*
X045318Y003876D01*
X045294Y003828D02*
X045066Y003828D01*
X045090Y003779D02*
X045270Y003779D01*
X045245Y003731D02*
X045115Y003731D01*
X045139Y003682D02*
X045221Y003682D01*
X045197Y003634D02*
X045163Y003634D01*
X066455Y015100D02*
X066755Y015100D01*
X066915Y015100D02*
X067216Y015100D01*
X067141Y014875D02*
X067141Y015325D01*
X066915Y015100D01*
X066680Y014875D02*
X066680Y015325D01*
X066455Y015100D01*
X074055Y014788D02*
X074055Y013788D01*
X076055Y013788D01*
X076055Y014788D01*
X074055Y014788D01*
X076004Y013106D02*
X076004Y007594D01*
X077905Y007594D01*
X075930Y007850D02*
X075930Y005850D01*
X074930Y005850D01*
X074930Y007850D01*
X075930Y007850D01*
X075930Y010350D02*
X074930Y010350D01*
X074930Y011350D01*
X075930Y011350D01*
X075930Y010350D01*
X075930Y011350D02*
X074930Y011350D01*
X074930Y012350D01*
X075930Y012350D01*
X075930Y011350D01*
X076004Y013106D02*
X077905Y013106D01*
X077865Y016750D02*
X077715Y016900D01*
X077639Y017050D01*
X077865Y016975D02*
X077865Y016750D01*
X078015Y016750D01*
X078090Y016825D01*
X078090Y016975D01*
X078015Y017050D01*
X077940Y017050D01*
X077865Y016975D01*
X077040Y016900D02*
X076589Y016900D01*
X076740Y016750D01*
X077040Y016750D02*
X077040Y017050D01*
X076965Y022600D02*
X077040Y022675D01*
X077040Y022825D01*
X076965Y022900D01*
X076815Y022900D01*
X076740Y022825D01*
X076740Y022750D01*
X076815Y022600D01*
X076589Y022600D01*
X076589Y022900D01*
X077589Y022825D02*
X077589Y022675D01*
X077665Y022600D01*
X077740Y022600D01*
X077815Y022675D01*
X077815Y022900D01*
X077965Y022900D02*
X077665Y022900D01*
X077589Y022825D01*
X077965Y022900D02*
X078040Y022825D01*
X078040Y022675D01*
X077965Y022600D01*
X076055Y025975D02*
X074055Y025975D01*
X074055Y026975D01*
X076055Y026975D01*
X076055Y025975D01*
X076740Y030250D02*
X076589Y030400D01*
X077040Y030400D01*
X077040Y030250D02*
X077040Y030550D01*
X077639Y030550D02*
X077715Y030400D01*
X077865Y030250D01*
X077865Y030475D01*
X077940Y030550D01*
X078015Y030550D01*
X078090Y030475D01*
X078090Y030325D01*
X078015Y030250D01*
X077865Y030250D01*
X067216Y027975D02*
X066915Y027975D01*
X067141Y028200D01*
X067141Y027750D01*
X066755Y027975D02*
X066455Y027975D01*
X066680Y028200D01*
X066680Y027750D01*
X067180Y025100D02*
X064180Y025100D01*
X064180Y024100D01*
X067180Y024100D01*
X067180Y025100D01*
X058430Y029975D02*
X057430Y029975D01*
X057430Y031975D01*
X058430Y031975D01*
X058430Y029975D01*
X064180Y036975D02*
X064180Y037975D01*
X067180Y037975D01*
X067180Y036975D01*
X064180Y036975D01*
X074055Y038038D02*
X074055Y039038D01*
X076055Y039038D01*
X076055Y038038D01*
X074055Y038038D01*
X076589Y036400D02*
X076589Y036100D01*
X076815Y036100D01*
X076740Y036250D01*
X076740Y036325D01*
X076815Y036400D01*
X076965Y036400D01*
X077040Y036325D01*
X077040Y036175D01*
X076965Y036100D01*
X077589Y036175D02*
X077665Y036100D01*
X077740Y036100D01*
X077815Y036175D01*
X077815Y036400D01*
X077965Y036400D02*
X077665Y036400D01*
X077589Y036325D01*
X077589Y036175D01*
X077965Y036100D02*
X078040Y036175D01*
X078040Y036325D01*
X077965Y036400D01*
X058430Y019100D02*
X057430Y019100D01*
X057430Y017100D01*
X058430Y017100D01*
X058430Y019100D01*
X033930Y039100D02*
X032930Y039100D01*
X032930Y041100D01*
X033930Y041100D01*
X033930Y039100D01*
X006725Y019000D02*
X006567Y019000D01*
X006505Y018450D02*
X004855Y018450D01*
X004793Y019000D02*
X004635Y019000D01*
X005567Y019000D02*
X005793Y019000D01*
X004855Y018450D02*
X004820Y018498D01*
X004787Y018548D01*
X004756Y018600D01*
X004729Y018654D01*
X004705Y018709D01*
X004685Y018766D01*
X004667Y018823D01*
X004653Y018881D01*
X004642Y018940D01*
X004635Y019000D01*
X004631Y019062D01*
X004630Y019125D01*
X004634Y019187D01*
X004641Y019249D01*
X004651Y019310D01*
X004666Y019371D01*
X004684Y019431D01*
X004705Y019490D01*
X004730Y019547D01*
X004758Y019602D01*
X004789Y019656D01*
X004824Y019708D01*
X004862Y019758D01*
X004902Y019805D01*
X004946Y019850D01*
X004991Y019893D01*
X005040Y019932D01*
X005090Y019969D01*
X005143Y020002D01*
X005197Y020033D01*
X005254Y020060D01*
X005311Y020083D01*
X005370Y020103D01*
X005990Y020103D02*
X006050Y020083D01*
X006109Y020059D01*
X006166Y020031D01*
X006221Y020000D01*
X006275Y019965D01*
X006326Y019928D01*
X006375Y019887D01*
X006421Y019843D01*
X006465Y019797D01*
X006506Y019748D01*
X006544Y019697D01*
X006578Y019644D01*
X006610Y019588D01*
X006637Y019531D01*
X006662Y019472D01*
X006682Y019412D01*
X006700Y019351D01*
X006713Y019289D01*
X006722Y019226D01*
X006728Y019163D01*
X006730Y019099D01*
X006728Y019035D01*
X006722Y018972D01*
X006713Y018909D01*
X006699Y018847D01*
X006682Y018786D01*
X006661Y018726D01*
X006637Y018667D01*
X006609Y018610D01*
X006577Y018554D01*
X006542Y018501D01*
X006505Y018450D01*
X005370Y015853D02*
X005311Y015833D01*
X005254Y015810D01*
X005197Y015783D01*
X005143Y015752D01*
X005090Y015719D01*
X005040Y015682D01*
X004991Y015643D01*
X004946Y015600D01*
X004902Y015555D01*
X004862Y015508D01*
X004824Y015458D01*
X004789Y015406D01*
X004758Y015352D01*
X004730Y015297D01*
X004705Y015240D01*
X004684Y015181D01*
X004666Y015121D01*
X004651Y015060D01*
X004641Y014999D01*
X004634Y014937D01*
X004630Y014875D01*
X004631Y014812D01*
X004635Y014750D01*
X004793Y014750D01*
X004855Y014200D02*
X006505Y014200D01*
X006567Y014750D02*
X006725Y014750D01*
X005793Y014750D02*
X005567Y014750D01*
X004855Y014200D02*
X004820Y014248D01*
X004787Y014298D01*
X004756Y014350D01*
X004729Y014404D01*
X004705Y014459D01*
X004685Y014516D01*
X004667Y014573D01*
X004653Y014631D01*
X004642Y014690D01*
X004635Y014750D01*
X005990Y015853D02*
X006050Y015833D01*
X006109Y015809D01*
X006166Y015781D01*
X006221Y015750D01*
X006275Y015715D01*
X006326Y015678D01*
X006375Y015637D01*
X006421Y015593D01*
X006465Y015547D01*
X006506Y015498D01*
X006544Y015447D01*
X006578Y015394D01*
X006610Y015338D01*
X006637Y015281D01*
X006662Y015222D01*
X006682Y015162D01*
X006700Y015101D01*
X006713Y015039D01*
X006722Y014976D01*
X006728Y014913D01*
X006730Y014849D01*
X006728Y014785D01*
X006722Y014722D01*
X006713Y014659D01*
X006699Y014597D01*
X006682Y014536D01*
X006661Y014476D01*
X006637Y014417D01*
X006609Y014360D01*
X006577Y014304D01*
X006542Y014251D01*
X006505Y014200D01*
X006567Y011500D02*
X006725Y011500D01*
X006505Y010950D02*
X004855Y010950D01*
X004793Y011500D02*
X004635Y011500D01*
X005567Y011500D02*
X005793Y011500D01*
X004855Y010950D02*
X004820Y010998D01*
X004787Y011048D01*
X004756Y011100D01*
X004729Y011154D01*
X004705Y011209D01*
X004685Y011266D01*
X004667Y011323D01*
X004653Y011381D01*
X004642Y011440D01*
X004635Y011500D01*
X004631Y011562D01*
X004630Y011625D01*
X004634Y011687D01*
X004641Y011749D01*
X004651Y011810D01*
X004666Y011871D01*
X004684Y011931D01*
X004705Y011990D01*
X004730Y012047D01*
X004758Y012102D01*
X004789Y012156D01*
X004824Y012208D01*
X004862Y012258D01*
X004902Y012305D01*
X004946Y012350D01*
X004991Y012393D01*
X005040Y012432D01*
X005090Y012469D01*
X005143Y012502D01*
X005197Y012533D01*
X005254Y012560D01*
X005311Y012583D01*
X005370Y012603D01*
X005990Y012603D02*
X006050Y012583D01*
X006109Y012559D01*
X006166Y012531D01*
X006221Y012500D01*
X006275Y012465D01*
X006326Y012428D01*
X006375Y012387D01*
X006421Y012343D01*
X006465Y012297D01*
X006506Y012248D01*
X006544Y012197D01*
X006578Y012144D01*
X006610Y012088D01*
X006637Y012031D01*
X006662Y011972D01*
X006682Y011912D01*
X006700Y011851D01*
X006713Y011789D01*
X006722Y011726D01*
X006728Y011663D01*
X006730Y011599D01*
X006728Y011535D01*
X006722Y011472D01*
X006713Y011409D01*
X006699Y011347D01*
X006682Y011286D01*
X006661Y011226D01*
X006637Y011167D01*
X006609Y011110D01*
X006577Y011054D01*
X006542Y011001D01*
X006505Y010950D01*
D16*
X063180Y020325D03*
X063180Y033200D03*
D17*
X063180Y033550D03*
X063180Y020675D03*
D18*
X063180Y020800D03*
X063180Y033675D03*
D19*
X063180Y033775D03*
X063180Y020900D03*
D20*
X063180Y021000D03*
X063180Y033875D03*
D21*
X063580Y033500D03*
X062780Y033500D03*
X062780Y020625D03*
X063580Y020625D03*
D22*
X063555Y020675D03*
X063455Y020775D03*
X063355Y020875D03*
X063255Y020975D03*
X063105Y020975D03*
X063005Y020875D03*
X062905Y020775D03*
X062805Y020675D03*
X062805Y033550D03*
X062905Y033650D03*
X063005Y033750D03*
X063105Y033850D03*
X063255Y033850D03*
X063355Y033750D03*
X063455Y033650D03*
X063555Y033550D03*
D23*
X054280Y034000D02*
X054280Y038200D01*
X054278Y038244D01*
X054272Y038287D01*
X054263Y038329D01*
X054250Y038371D01*
X054233Y038411D01*
X054213Y038450D01*
X054190Y038487D01*
X054163Y038521D01*
X054134Y038554D01*
X054101Y038583D01*
X054067Y038610D01*
X054030Y038633D01*
X053991Y038653D01*
X053951Y038670D01*
X053909Y038683D01*
X053867Y038692D01*
X053824Y038698D01*
X053780Y038700D01*
X049080Y038700D01*
X049080Y034000D01*
X049082Y033956D01*
X049088Y033913D01*
X049097Y033871D01*
X049110Y033829D01*
X049127Y033789D01*
X049147Y033750D01*
X049170Y033713D01*
X049197Y033679D01*
X049226Y033646D01*
X049259Y033617D01*
X049293Y033590D01*
X049330Y033567D01*
X049369Y033547D01*
X049409Y033530D01*
X049451Y033517D01*
X049493Y033508D01*
X049536Y033502D01*
X049580Y033500D01*
X053780Y033500D01*
X053824Y033502D01*
X053867Y033508D01*
X053909Y033517D01*
X053951Y033530D01*
X053991Y033547D01*
X054030Y033567D01*
X054067Y033590D01*
X054101Y033617D01*
X054134Y033646D01*
X054163Y033679D01*
X054190Y033713D01*
X054213Y033750D01*
X054233Y033789D01*
X054250Y033829D01*
X054263Y033871D01*
X054272Y033913D01*
X054278Y033956D01*
X054280Y034000D01*
D24*
X007100Y021850D03*
X007100Y020850D03*
X004260Y020850D03*
X004260Y021850D03*
X004260Y017600D03*
X004260Y016600D03*
X007100Y016600D03*
X007100Y017600D03*
X007100Y013350D03*
X004260Y013350D03*
X004260Y010100D03*
X007100Y010100D03*
X006850Y037600D03*
X004010Y037600D03*
D25*
X057930Y035895D03*
X057930Y033055D03*
X057930Y023020D03*
X057930Y020180D03*
M02*
