%
M48
M72
T01C0.0197
T02C0.0315
T03C0.0320
T04C0.0354
T05C0.0394
T06C0.0400
T07C0.0866
T08C0.1201
T09C0.1600
%
T01
X12680Y7788
X12930Y8038
X11930Y7975
X10055Y8600
X7180Y8100
X14930Y8100
X16180Y5725
X20055Y7975
X21180Y7600
X21930Y8475
X24180Y6600
X24493Y6600
X26180Y5725
X21180Y5725
X16430Y10850
X20430Y12100
X20805Y11600
X21555Y13350
X25430Y10975
X26430Y10975
X27430Y10975
X29430Y10850
X30430Y10725
X34305Y13100
X35430Y11850
X37430Y12475
X38930Y12475
X38930Y11600
X37618Y11225
X40430Y8975
X39180Y8725
X38493Y8350
X38180Y8350
X39430Y7600
X40430Y6600
X42430Y6225
X45180Y4975
X46180Y4100
X45930Y3725
X46430Y3725
X47180Y3725
X47180Y3350
X47180Y4100
X47930Y4475
X52680Y3475
X54680Y3475
X55680Y3475
X56680Y3475
X58680Y3475
X60180Y3850
X65180Y3850
X65680Y3475
X66680Y3475
X67680Y3475
X68680Y3475
X71180Y3850
X74930Y3663
X75180Y4038
X75430Y3663
X70680Y6225
X72805Y8475
X72680Y9350
X74618Y9850
X73055Y10475
X70055Y10725
X69555Y10725
X69055Y10725
X68555Y10725
X68055Y10725
X67180Y11100
X66555Y10850
X65930Y10600
X64180Y9725
X61368Y7913
X59680Y9100
X60555Y9350
X57680Y9100
X56930Y9850
X55680Y9100
X53680Y9100
X50430Y8725
X45430Y8725
X42930Y8725
X41930Y8975
X37430Y6225
X35805Y7225
X34305Y7975
X33743Y7475
X31180Y5725
X34305Y4600
X52680Y13725
X54055Y15100
X56305Y13600
X55930Y13225
X55555Y12850
X55180Y12475
X54805Y12100
X54430Y11725
X56680Y13975
X57055Y14350
X57493Y15163
X58680Y15475
X59180Y15475
X59555Y15100
X60430Y14225
X60930Y14225
X61305Y13475
X62243Y13850
X61993Y14100
X62805Y13350
X63243Y13475
X64680Y13475
X67680Y13038
X69805Y13475
X69868Y14413
X70180Y14413
X68055Y14850
X68055Y17600
X63180Y17600
X58680Y16100
X54055Y18600
X51868Y16600
X49680Y16100
X50930Y15600
X49680Y15100
X49305Y14100
X48430Y14100
X47930Y14725
X47430Y15100
X46430Y15100
X45430Y15100
X44430Y15100
X43430Y15100
X42430Y15100
X42430Y14100
X41430Y15100
X40430Y15100
X40430Y14100
X38805Y14600
X39305Y15975
X42430Y16100
X44430Y16100
X46430Y16100
X48930Y16725
X46430Y14100
X44430Y14100
X36180Y17100
X35055Y17725
X33743Y18100
X34305Y20725
X35805Y22100
X36680Y23600
X33930Y24725
X32930Y24725
X32930Y25600
X31430Y25100
X30930Y24725
X29930Y24600
X33180Y27600
X36180Y27100
X35055Y30100
X29930Y30100
X27305Y28100
X25555Y27600
X23430Y28475
X21430Y27850
X20305Y27475
X19930Y27100
X15930Y27100
X13930Y25975
X13930Y24850
X13180Y22975
X10430Y22100
X8680Y21100
X9680Y19350
X9180Y17600
X14430Y15100
X10430Y13350
X18930Y18100
X20430Y17350
X21930Y17725
X21180Y15975
X14930Y20100
X16930Y20725
X20055Y22100
X20805Y23100
X22180Y22600
X23430Y22100
X15930Y22600
X8180Y25100
X9180Y27100
X11930Y28100
X10055Y29100
X8180Y30100
X9680Y32475
X10430Y32850
X9805Y36100
X12180Y37100
X17180Y38100
X18930Y37475
X21055Y38975
X21180Y40100
X22180Y37100
X26430Y37475
X29055Y35475
X30430Y37725
X35805Y37725
X36180Y38100
X40430Y35975
X40430Y34225
X39430Y33225
X35430Y33600
X33180Y33600
X43305Y30475
X46930Y28975
X49680Y29100
X49680Y31975
X48555Y31975
X54055Y32225
X55555Y32725
X57055Y33475
X57430Y33100
X56680Y33975
X56305Y34475
X54805Y34975
X55930Y35475
X55180Y35850
X54430Y36225
X54680Y39475
X59680Y39475
X60180Y36975
X64680Y39475
X68743Y38225
X68993Y38475
X70930Y36975
X71055Y35975
X69555Y34975
X68430Y34475
X69555Y34225
X74618Y35600
X57930Y27475
X57430Y28475
X60555Y26600
X59680Y23475
X56680Y21850
X56305Y21475
X55555Y21100
X54805Y22225
X55930Y22600
X55180Y22975
X54430Y23350
X52430Y24038
X52430Y24350
X53055Y25225
X53055Y21600
X51430Y21350
X49305Y20850
X47930Y19725
X57055Y20600
X58555Y20100
X61180Y20100
X68430Y21600
X69555Y21350
X69555Y22100
X71055Y23100
X70930Y24100
X72555Y24975
X72555Y25725
X68743Y24225
X68743Y23850
X66680Y26475
X74618Y22725
X45430Y24600
X34805Y15600
X63680Y6225
X18930Y30475
X17930Y30850
X17930Y33100
X21805Y34100
X17680Y35100
X34180Y42100
X46430Y37975
X46930Y37600
X48930Y39475
T02
X51180Y39600
X52180Y39600
X62680Y37475
X63680Y37475
X52180Y32100
X51180Y32100
X37430Y30600
X37430Y29600
X37430Y25600
X37430Y24600
X37430Y20600
X37430Y19600
X37430Y15600
X37430Y14600
X23430Y14600
X23430Y15600
X23430Y19600
X23430Y20600
X23430Y24600
X23430Y25600
X23430Y29600
X23430Y30600
X23430Y34600
X23430Y35600
X23430Y39600
X23430Y40600
X11930Y35600
X11930Y34600
X8930Y34100
X7930Y34100
X1930Y34600
X1930Y35600
X11930Y30600
X11930Y29600
X11930Y25600
X11930Y24600
X11930Y20600
X11930Y19600
X11930Y15600
X11930Y14600
X11930Y10600
X11930Y9600
X23430Y9600
X23430Y10600
X35430Y6100
X35430Y5100
X49680Y6600
X49680Y7600
X61680Y7600
X61680Y6600
X75430Y8600
X75430Y9600
X72180Y14100
X71180Y14100
X52180Y22100
X51180Y22100
X62680Y24600
X63680Y24600
X71180Y26975
X72180Y26975
X37430Y34600
X37430Y35600
X37430Y39600
X37430Y40600
T03
X38930Y41600
X39930Y41600
X40930Y41600
X41930Y41600
X42930Y41600
X43930Y41600
X44930Y41600
X45930Y41600
X45930Y38600
X44930Y38600
X43930Y38600
X42930Y38600
X41930Y38600
X40930Y38600
X39930Y38600
X38930Y38600
X38930Y36600
X39930Y36600
X40930Y36600
X41930Y36600
X42930Y36600
X43930Y36600
X44930Y36600
X45930Y36600
X50180Y37600
X53180Y37600
X57930Y36475
X60680Y35475
X61680Y35475
X62680Y35475
X62680Y34475
X61680Y34475
X60680Y34475
X59680Y34475
X59680Y33475
X60680Y33475
X60680Y32475
X59680Y32475
X59680Y31475
X60680Y31475
X60680Y30475
X59680Y30475
X59680Y29475
X60680Y29475
X61680Y29475
X62680Y29475
X62680Y28475
X61680Y28475
X60680Y28475
X63680Y28475
X64680Y28475
X65680Y28475
X65680Y29475
X64680Y29475
X63680Y29475
X65680Y30475
X66680Y30475
X66680Y29475
X70180Y29475
X70180Y28475
X73180Y28475
X73180Y29475
X73180Y30475
X73180Y31475
X73180Y32475
X73180Y33475
X73180Y34475
X73180Y35475
X73180Y36475
X73180Y37475
X70180Y37475
X70180Y36475
X70180Y35475
X70180Y34475
X70180Y33475
X70180Y32475
X70180Y31475
X70180Y30475
X66680Y31475
X65680Y31475
X65680Y32475
X66680Y32475
X66680Y33475
X65680Y33475
X65680Y34475
X64680Y34475
X63680Y34475
X63680Y35475
X64680Y35475
X65680Y35475
X66680Y34475
X57930Y32475
X53180Y30600
X53180Y29600
X53180Y28600
X53180Y27600
X50180Y27600
X50180Y28600
X50180Y29600
X48305Y29100
X48305Y30100
X50180Y30600
X44930Y31600
X43930Y31600
X42930Y31600
X41930Y31600
X40930Y31600
X39930Y31600
X38930Y31600
X38930Y33600
X39930Y33600
X40930Y33600
X41930Y33600
X42930Y33600
X43930Y33600
X44930Y33600
X45930Y33600
X50180Y34600
X53180Y34600
X44930Y28600
X43930Y28600
X42930Y28600
X41930Y28600
X40930Y28600
X39930Y28600
X38930Y28600
X38930Y26600
X39930Y26600
X40930Y26600
X41930Y26600
X42930Y26600
X43930Y26600
X44930Y26600
X45930Y26600
X46930Y26600
X47930Y26600
X50305Y25975
X50305Y24975
X47930Y23600
X46930Y23600
X45930Y23600
X44930Y23600
X43930Y23600
X42930Y23600
X41930Y23600
X40930Y23600
X39930Y23600
X38930Y23600
X38930Y21600
X39930Y21600
X40930Y21600
X41930Y21600
X42930Y21600
X43930Y21600
X44930Y21600
X45930Y21600
X46930Y21600
X47930Y21600
X49555Y22100
X49555Y23100
X50180Y20600
X50180Y19600
X50180Y18600
X50180Y17600
X50180Y16600
X47930Y16600
X46930Y16600
X46930Y17600
X47930Y17600
X47930Y18600
X46930Y18600
X45930Y18600
X44930Y18600
X43930Y18600
X42930Y18600
X41930Y18600
X40930Y18600
X39930Y18600
X38930Y18600
X39930Y17600
X40930Y17600
X41930Y17600
X42930Y17600
X43930Y17600
X44930Y17600
X45930Y17600
X45930Y16600
X44930Y16600
X43930Y16600
X42930Y16600
X41930Y16600
X40930Y16600
X39930Y16600
X38930Y16600
X38930Y13600
X39930Y13600
X40930Y13600
X41930Y13600
X42930Y13600
X43930Y13600
X44930Y13600
X45930Y13600
X46930Y13600
X47930Y13600
X50180Y14600
X50180Y15600
X53180Y15600
X53180Y14600
X53180Y16600
X53180Y17600
X53180Y18600
X53180Y19600
X53180Y20600
X57930Y19600
X59680Y19600
X60680Y19600
X60680Y18600
X59680Y18600
X59680Y17600
X60680Y17600
X60680Y16600
X59680Y16600
X61680Y16600
X62680Y16600
X63680Y16600
X64680Y16600
X65680Y16600
X66680Y16600
X66680Y17600
X65680Y17600
X65680Y18600
X66680Y18600
X66680Y19600
X65680Y19600
X65680Y20600
X66680Y20600
X66680Y21600
X65680Y21600
X64680Y21600
X63680Y21600
X63680Y22600
X64680Y22600
X65680Y22600
X62680Y22600
X61680Y22600
X60680Y22600
X60680Y21600
X59680Y21600
X59680Y20600
X60680Y20600
X61680Y21600
X62680Y21600
X57930Y23600
X70180Y23600
X70180Y24600
X73180Y24600
X73180Y23600
X73180Y22600
X73180Y21600
X73180Y20600
X73180Y19600
X73180Y18600
X73180Y17600
X73180Y16600
X73180Y15600
X70180Y15600
X70180Y16600
X70180Y17600
X70180Y18600
X70180Y19600
X70180Y20600
X70180Y21600
X70180Y22600
X65680Y15600
X64680Y15600
X63680Y15600
X62680Y15600
X61680Y15600
X60680Y15600
X60180Y8600
X59180Y8600
X58180Y8600
X57180Y8600
X56180Y8600
X55180Y8600
X54180Y8600
X53180Y8600
X52180Y8600
X51180Y8600
X51180Y5600
X52180Y5600
X53180Y5600
X54180Y5600
X55180Y5600
X56180Y5600
X57180Y5600
X58180Y5600
X59180Y5600
X60180Y5600
X63180Y5600
X64180Y5600
X65180Y5600
X66180Y5600
X67180Y5600
X68180Y5600
X69180Y5600
X70180Y5600
X71180Y5600
X72180Y5600
X72180Y8600
X71180Y8600
X70180Y8600
X69180Y8600
X68180Y8600
X67180Y8600
X66180Y8600
X65180Y8600
X64180Y8600
X63180Y8600
X42930Y7100
X41930Y7100
X40930Y7100
X39930Y7100
X38930Y7100
X37930Y7100
X36930Y7100
X31930Y8600
X30930Y8600
X29930Y8600
X28930Y8600
X27930Y8600
X26930Y8600
X25930Y8600
X24930Y8600
X24930Y11600
X25930Y11600
X26930Y11600
X27930Y11600
X28930Y11600
X29930Y11600
X30930Y11600
X31930Y11600
X31930Y13600
X30930Y13600
X29930Y13600
X28930Y13600
X27930Y13600
X26930Y13600
X25930Y13600
X24930Y13600
X24930Y16600
X25930Y16600
X26930Y16600
X27930Y16600
X28930Y16600
X29930Y16600
X30930Y16600
X31930Y16600
X30930Y18600
X29930Y18600
X28930Y18600
X27930Y18600
X26930Y18600
X25930Y18600
X24930Y18600
X24930Y21600
X25930Y21600
X26930Y21600
X27930Y21600
X28930Y21600
X29930Y21600
X30930Y21600
X30930Y23600
X31930Y23600
X32930Y23600
X33930Y23600
X29930Y23600
X28930Y23600
X27930Y23600
X26930Y23600
X25930Y23600
X24930Y23600
X24930Y26600
X25930Y26600
X26930Y26600
X27930Y26600
X28930Y26600
X29930Y26600
X30930Y26600
X31930Y26600
X32930Y26600
X33930Y26600
X30930Y28600
X29930Y28600
X28930Y28600
X27930Y28600
X26930Y28600
X25930Y28600
X24930Y28600
X24930Y31600
X25930Y31600
X26930Y31600
X27930Y31600
X28930Y31600
X29930Y31600
X30930Y31600
X30930Y33600
X29930Y33600
X28930Y33600
X27930Y33600
X26930Y33600
X25930Y33600
X24930Y33600
X24930Y36600
X25930Y36600
X26930Y36600
X27930Y36600
X28930Y36600
X29930Y36600
X30930Y36600
X30930Y38600
X29930Y38600
X28930Y38600
X27930Y38600
X26930Y38600
X25930Y38600
X24930Y38600
X24930Y41600
X25930Y41600
X26930Y41600
X27930Y41600
X28930Y41600
X29930Y41600
X30930Y41600
X19430Y36600
X18430Y36600
X17430Y36600
X16430Y36600
X15430Y36600
X14430Y36600
X13430Y36600
X8930Y36100
X7930Y36100
X6430Y36600
X5430Y36600
X4430Y36600
X3430Y36600
X3430Y37600
X7430Y37600
X6430Y33600
X5430Y33600
X4430Y33600
X3430Y33600
X13430Y33600
X14430Y33600
X15430Y33600
X16430Y33600
X17430Y33600
X18430Y33600
X19430Y33600
X19430Y31600
X18430Y31600
X17430Y31600
X16430Y31600
X15430Y31600
X14430Y31600
X13430Y31600
X13430Y28600
X14430Y28600
X15430Y28600
X16430Y28600
X17430Y28600
X18430Y28600
X19430Y28600
X19430Y26600
X18430Y26600
X17430Y26600
X16430Y26600
X15430Y26600
X14430Y26600
X13430Y26600
X13430Y23600
X14430Y23600
X15430Y23600
X16430Y23600
X17430Y23600
X18430Y23600
X19430Y23600
X19430Y21600
X18430Y21600
X17430Y21600
X16430Y21600
X15430Y21600
X14430Y21600
X13430Y21600
X13430Y18600
X14430Y18600
X15430Y18600
X16430Y18600
X17430Y18600
X18430Y18600
X19430Y18600
X19430Y16600
X18430Y16600
X17430Y16600
X16430Y16600
X15430Y16600
X14430Y16600
X13430Y16600
X13430Y13600
X14430Y13600
X15430Y13600
X16430Y13600
X17430Y13600
X18430Y13600
X19430Y13600
X19430Y11600
X18430Y11600
X17430Y11600
X16430Y11600
X15430Y11600
X14430Y11600
X13430Y11600
X13430Y8600
X14430Y8600
X15430Y8600
X16430Y8600
X17430Y8600
X18430Y8600
X19430Y8600
X7680Y10100
X6180Y11600
X5180Y11600
X5680Y12350
X3680Y13350
X5180Y14850
X5680Y15600
X6180Y14850
X7680Y13350
X3680Y10100
X3680Y16600
X3680Y17600
X5180Y19100
X6180Y19100
X5680Y19850
X3680Y20850
X3680Y21850
X7680Y21850
X7680Y20850
X7680Y17600
X7680Y16600
X36930Y4100
X37930Y4100
X38930Y4100
X39930Y4100
X40930Y4100
X41930Y4100
X42930Y4100
T04
X76724Y9031
X77705Y9031
X77705Y9838
X77705Y10862
X77705Y11669
X76724Y11669
T05
X76756Y17544
X76756Y18634
X77874Y18089
X77874Y19180
X76756Y19725
X76756Y20816
X77874Y21361
X77874Y20270
X76756Y21906
X76756Y31044
X76756Y32134
X77874Y31589
X77874Y32680
X76756Y33225
X76756Y34316
X77874Y34861
X77874Y33770
X76756Y35406
T06
X75555Y38538
X74555Y38538
X66680Y37475
X65680Y37475
X64680Y37475
X57930Y31475
X57930Y30475
X64680Y24600
X65680Y24600
X66680Y24600
X74555Y26475
X75555Y26475
X57930Y18600
X57930Y17600
X74555Y14288
X75555Y14288
X75430Y11850
X75430Y10850
X75430Y7350
X75430Y6350
X47180Y7100
X45180Y7100
X33430Y39600
X33430Y40600
T07
X78886Y13011
X79205Y10350
X78886Y7689
T08
X77315Y14806
X77315Y24644
X77315Y28306
X77315Y38144
T09
X2180Y5100
X2180Y41100
X78180Y41100
X78180Y5100
M30
